<svg width="373" height="104" viewBox="0 0 373 104" fill="none" xmlns="http://www.w3.org/2000/svg">
<path d="M238.888 28.0859C217.182 20.0591 194.539 17.5833 171.476 17.6134C131.103 17.6662 89.9853 20.8435 52.2032 36.1754C42.5897 40.0765 -1.4853 59.4093 9.74904 76.9991C16.1945 87.0908 32.0378 90.218 42.6714 92.112C71.8097 97.3019 102.278 95.8977 131.687 94.8085C183.314 92.8964 233.78 87.7527 284.666 78.7863C303.897 75.3977 322.531 71.9923 340.603 64.4259C348.203 61.244 365.509 55.9315 365.31 44.7038C365.131 34.5758 349.746 28.2743 342.484 25.2013C316.914 14.3806 287.756 9.94951 260.21 8.61467C230.252 7.16297 199.174 8.12617 169.563 13.1924C139.662 18.3085 111.188 29.2103 82.5544 38.8092" stroke="#FFA665" stroke-width="15" stroke-linecap="round"/>
</svg>
