<svg width="380" height="247" viewBox="0 0 380 247" fill="none" xmlns="http://www.w3.org/2000/svg">
<line x1="124.008" y1="239.383" x2="328.79" y2="146.711" stroke="black" stroke-width="10" stroke-linecap="round"/>
<line x1="125.005" y1="234.336" x2="7.86272" y2="160.352" stroke="black" stroke-width="10" stroke-linecap="round"/>
<line x1="5.49383" y1="130.784" x2="210.276" y2="38.1119" stroke="black" stroke-width="10" stroke-linecap="round"/>
<line x1="124.008" y1="205.387" x2="328.79" y2="112.715" stroke="black" stroke-width="10" stroke-linecap="round"/>
<line x1="242.523" y1="56.8696" x2="319.446" y2="22.0587" stroke="black" stroke-width="10" stroke-linecap="round"/>
<line x1="282.55" y1="74.4048" x2="355.186" y2="42.2773" stroke="black" stroke-width="10" stroke-linecap="round"/>
<line x1="125.005" y1="204.34" x2="7.86272" y2="130.356" stroke="black" stroke-width="10" stroke-linecap="round"/>
<line x1="329.093" y1="111.211" x2="211.951" y2="37.2268" stroke="black" stroke-width="10" stroke-linecap="round"/>
<line x1="195.416" y1="88.6435" x2="158.202" y2="89.1261" stroke="black" stroke-width="10" stroke-linecap="round"/>
<line x1="182.589" y1="108.856" x2="176.828" y2="72.0876" stroke="black" stroke-width="10" stroke-linecap="round"/>
<line x1="233.201" y1="118.591" x2="195.988" y2="119.074" stroke="black" stroke-width="10" stroke-linecap="round"/>
<line x1="220.375" y1="138.805" x2="214.613" y2="102.036" stroke="black" stroke-width="10" stroke-linecap="round"/>
<line x1="372.94" y1="51.9842" x2="301.552" y2="6.89718" stroke="black" stroke-width="10" stroke-linecap="round"/>
<path d="M124.82 201.616L124.924 232.779" stroke="black" stroke-width="10" stroke-linecap="round"/>
<path d="M6.30519 130.318L6.40975 161.481" stroke="black" stroke-width="10" stroke-linecap="round"/>
<path d="M325.964 112.848L326.068 144.011" stroke="black" stroke-width="10" stroke-linecap="round"/>
<path d="M20.1502 181.016C19.1342 181.07 18.49 181.785 17.8752 182.542C15.4988 185.471 14.9262 187.994 15.1825 191.715C15.6822 198.97 20.9628 204.769 28.1274 206.172C35.3725 207.59 43.7922 203.359 43.7505 195.257C43.7272 190.728 41.2962 186.431 37.5013 183.982C33.3269 181.289 28.9149 181.251 24.1676 181.664" stroke="black" stroke-width="10" stroke-linecap="round"/>
<path d="M69.2658 217.172C66.0949 219.794 63.9871 224.697 63.0381 228.591C62.3046 231.6 63.3477 234.364 65.378 236.568C69.5754 241.124 77.8084 242.082 83.5642 240.787C87.1747 239.974 91.0018 238.215 93.0101 234.955C94.9761 231.764 94.4924 228.639 93.4564 225.149C90.9324 216.647 81.1687 215.068 73.6719 214.191" stroke="black" stroke-width="10" stroke-linecap="round"/>
<path d="M73.4228 61.7182C95.9733 60.927 118.411 65.4223 140.97 65.7541" stroke="black" stroke-width="10" stroke-linecap="round"/>
<path d="M238.256 235.048C238.597 233.145 239.098 231.468 239.731 229.596C242.737 220.706 246.067 211.92 249.372 203.138C251.996 196.166 254.775 189.266 257.585 182.369" stroke="black" stroke-width="10" stroke-linecap="round"/>
</svg>
