<svg width="233" height="367" viewBox="0 0 233 367" fill="none" xmlns="http://www.w3.org/2000/svg">
<path d="M65.9278 147.168L196.186 120.765" stroke="black" stroke-width="10" stroke-linecap="round"/>
<path d="M53.5944 25.9814L157.104 4.99984" stroke="black" stroke-width="10" stroke-linecap="round"/>
<path d="M65.9278 340.208L196.186 313.804" stroke="black" stroke-width="10" stroke-linecap="round"/>
<path d="M200.281 122.936L200.281 311.282" stroke="black" stroke-width="10" stroke-linecap="round"/>
<path d="M64.7426 339.446L64.7426 151.1" stroke="black" stroke-width="10" stroke-linecap="round"/>
<path d="M26.6158 135.433L156.874 109.03" stroke="black" stroke-width="10" stroke-linecap="round"/>
<path d="M159.116 110.198V123.482" stroke="black" stroke-width="10" stroke-linecap="round"/>
<path d="M25.4306 327.71L25.4306 139.365" stroke="black" stroke-width="10" stroke-linecap="round"/>
<path d="M26.6895 137.911L67.175 150.233" stroke="black" stroke-width="10" stroke-linecap="round"/>
<path d="M25.4306 328.297L65.9161 340.619" stroke="black" stroke-width="10" stroke-linecap="round"/>
<path d="M159.881 109.747L200.366 122.069" stroke="black" stroke-width="10" stroke-linecap="round"/>
<path d="M83.6725 123.018L83.6725 26.6915" stroke="black" stroke-width="10" stroke-linecap="round"/>
<path d="M137.27 109.005V12.9025" stroke="black" stroke-width="10" stroke-linecap="round"/>
<path d="M64.9513 338.272C57.3656 340.406 50.4082 343.017 46.725 350.417C42.5511 358.803 56.7222 361.018 62.0871 361.018C67.8295 361.018 73.0933 359.613 77.4957 355.727C79.7855 353.706 81.9847 349.124 81.2061 346.009C78.4745 335.083 62.4557 343.13 56.5821 345.972" stroke="black" stroke-width="10" stroke-linecap="round"/>
<path d="M145.922 327.124C138.337 329.257 131.379 331.869 127.696 339.269C123.522 347.654 137.693 349.87 143.058 349.87C148.8 349.87 154.064 348.465 158.467 344.578C160.756 342.557 162.956 337.975 162.177 334.861C159.445 323.934 143.427 331.982 137.553 334.824" stroke="black" stroke-width="10" stroke-linecap="round"/>
<path d="M89.823 223.924C94.4192 214.829 107.308 199.984 122.094 213.362" stroke="black" stroke-width="10" stroke-linecap="round"/>
<path d="M145.564 210.428C150.16 201.333 163.049 186.489 177.835 199.866" stroke="black" stroke-width="10" stroke-linecap="round"/>
<path d="M62.9449 259.381C55.6556 254.279 48.7672 246.445 42.1911 240.554C29.3047 229.012 16.8734 217.081 5 204.509" stroke="black" stroke-width="10" stroke-linecap="round"/>
<path d="M200.783 236.994C199.835 233.608 203.179 227.173 204.1 224.849C210.946 207.581 219.648 191.614 228 175.099" stroke="black" stroke-width="10" stroke-linecap="round"/>
</svg>
