<svg width="967" height="865" viewBox="0 0 967 865" fill="none" xmlns="http://www.w3.org/2000/svg">
<path d="M688.112 464.995C701.689 470.333 710.464 475.192 724.866 477.593C736.427 479.52 748.876 491.79 741.672 503.796C734.592 515.597 716.09 519.462 703.616 522.067L702.9 522.217C683.517 526.271 663.671 527.672 644.295 531.73C564.486 548.444 479.285 583.121 397.737 558.395C375.088 551.528 353.337 542.027 330.483 535.794C311.023 530.487 291.392 526.831 271.244 525.561C231.7 523.069 190.193 530.036 151.352 520.545C126.937 514.579 97.5882 501.323 90.1521 474.912C85.4414 458.181 95.9862 442.476 107.102 430.778C125.235 411.695 146.793 400.155 172.396 393.821C208.022 385.008 245.542 380.625 282.14 384.308C319.613 388.08 352.486 407.246 388.973 414.692C428.55 422.769 469.704 415.58 509.759 418.555C553.009 421.767 592.688 431.115 633.456 445.566C651.753 452.052 670.03 457.887 688.112 464.995Z" fill="#8A947F"/>
<path d="M45 534.01C45 534.133 44.77 535.591 41.3203 537.316C38.1697 538.891 33.4672 540.01 28 540.01C22.5328 540.01 17.8303 538.891 14.6797 537.316C11.23 535.591 11 534.133 11 534.01C11 533.886 11.23 532.429 14.6797 530.704C17.8303 529.128 22.5328 528.01 28 528.01C33.4672 528.01 38.1697 529.128 41.3203 530.704C44.77 532.429 45 533.886 45 534.01Z" stroke="black" stroke-width="10"/>
<path d="M18 541.01L18 555.01" stroke="black" stroke-width="10" stroke-linecap="round"/>
<path d="M35.5 484.003L35.5 523.016" stroke="black" stroke-width="10" stroke-linecap="round"/>
<path d="M39 569.01L60 571.01" stroke="black" stroke-width="10" stroke-linecap="round"/>
<path d="M45 534.01C49.1667 537.025 58 548.645 60 571.01" stroke="black" stroke-width="10" stroke-linecap="round"/>
<path d="M64.6238 571.049L565.624 634.049" stroke="black" stroke-width="10" stroke-linecap="round"/>
<path d="M565 634.01C601.5 638.676 661 643.01 675.5 608.51" stroke="black" stroke-width="10" stroke-linecap="round"/>
<path d="M679 572.01V616.021" stroke="black" stroke-width="10" stroke-linecap="round"/>
<path d="M737 513.01V547.01" stroke="black" stroke-width="10" stroke-linecap="round"/>
<path d="M737 513.01L679 572.01" stroke="black" stroke-width="10" stroke-linecap="round"/>
<path d="M938 567.01L880 626.01" stroke="black" stroke-width="10" stroke-linecap="round"/>
<path d="M962 574.01L923 615.01" stroke="black" stroke-width="10" stroke-linecap="round"/>
<path d="M962 598.01L923 639.01" stroke="black" stroke-width="10" stroke-linecap="round"/>
<path d="M962 576.01L962 599.01" stroke="black" stroke-width="10" stroke-linecap="round"/>
<path d="M922 638.01L879 629.01" stroke="black" stroke-width="10" stroke-linecap="round"/>
<path d="M961.512 571.722L939 567.01" stroke="black" stroke-width="10" stroke-linecap="round"/>
<path d="M920.512 615.722L898 611.01" stroke="black" stroke-width="10" stroke-linecap="round"/>
<path d="M725 571.01L709 589.01" stroke="black" stroke-width="10" stroke-linecap="round"/>
<path d="M894 609.01L685 590.01" stroke="black" stroke-width="10" stroke-linecap="round"/>
<path d="M880 628.01L685 613.01" stroke="black" stroke-width="10" stroke-linecap="round"/>
<path d="M938 567.01L723 550.01" stroke="black" stroke-width="10" stroke-linecap="round"/>
<path d="M708 567.01L723 550.01" stroke="black" stroke-width="10" stroke-linecap="round"/>
<path d="M915 584.01L708 567.01" stroke="black" stroke-width="10" stroke-linecap="round"/>
<path d="M743.5 545.51C749.667 542.176 761 521.21 757 464.01" stroke="black" stroke-width="10" stroke-linecap="round"/>
<path d="M747.5 431.51C766 436.01 761.9 450.31 747.5 461.51C733.1 472.71 690.333 510.01 668.5 530.01C644.5 545.51 643 556.01 515.5 539.51" stroke="black" stroke-width="10" stroke-linecap="round"/>
<path d="M515.5 539.51L61.0001 492.01C44.4999 489.01 23 481.01 40.0001 469.51" stroke="black" stroke-width="10" stroke-linecap="round"/>
<path d="M41 469.01L179.5 394.51C198 386.01 187.9 382.01 225.5 386.01" stroke="black" stroke-width="10" stroke-linecap="round"/>
<path d="M225.5 385.51L746 431.01" stroke="black" stroke-width="10" stroke-linecap="round"/>
<path d="M229 467.01L679 512.51" stroke="black" stroke-width="10" stroke-linecap="round"/>
<path d="M245 386.01C222 383.51 198.5 381.51 212.5 316.51" stroke="black" stroke-width="10" stroke-linecap="round"/>
<path d="M254.5 59.0098L212.5 317.01" stroke="black" stroke-width="10" stroke-linecap="round"/>
<path d="M254 62.0098C263.5 21.0098 254 0.00982654 329 6.00982" stroke="black" stroke-width="10" stroke-linecap="round"/>
<path d="M325.5 6.50983L770 28.5098C807 34.0098 821.1 33.4098 815.5 87.0098C809.9 140.61 787.833 307.676 777.5 384.51C773.264 416.01 763.7 429.71 726.5 428.51" stroke="black" stroke-width="10" stroke-linecap="round"/>
<path d="M819 58.5098C824.5 66.0098 835.5 89.5098 830.5 131.01C824.686 179.265 801.667 335.01 794.5 407.51C793.462 418.01 780 440.51 761 440.51" stroke="black" stroke-width="10" stroke-linecap="round"/>
<path d="M123.5 496.51C172.5 469.01 177.1 459.81 229.5 467.01" stroke="black" stroke-width="10" stroke-linecap="round"/>
<path d="M230.82 248.032C241.477 258.689 258.337 263.423 273.168 259.066C289.003 254.414 303.78 240.594 315.82 230.02C334.856 213.304 353.092 195.69 372.124 178.951" stroke="black" stroke-width="10" stroke-linecap="round"/>
<path d="M788 272.321C777.366 283.013 760.542 287.763 745.744 283.392C729.942 278.723 715.197 264.858 703.182 254.249C684.187 237.478 665.991 219.804 647 203.01" stroke="black" stroke-width="10" stroke-linecap="round"/>
<path d="M454.705 165.001C462.319 156.94 481.657 145.038 498.096 161.914" stroke="black" stroke-width="10" stroke-linecap="round"/>
<path d="M457.546 504.077C465.352 517.088 476.56 527.573 483.443 541.575C493.767 562.575 495.327 590.696 486.016 612.28C480.475 625.126 470.829 640.593 456.321 644.345C442.176 648.003 423.936 641.545 418.987 626.863C413.852 611.629 432.486 596.522 444.802 592.633C465.547 586.082 488.592 604.756 496.759 622.451C512.187 655.878 499.976 696.402 486.629 728.163C467.729 773.135 439.844 811.332 404.609 844.494" stroke="#FFA665" stroke-width="15" stroke-linecap="round"/>
<path d="M419.313 796.703C417.068 817.358 400.166 837.627 390.68 855.809C389.353 858.351 396.327 854.427 398.808 852.99C413.565 844.447 428.5 836.284 443.576 828.319" stroke="#FFA665" stroke-width="15" stroke-linecap="round"/>
<path d="M539 161.689C548.633 156.197 570.6 150.448 581.406 171.383" stroke="black" stroke-width="10" stroke-linecap="round"/>
<path d="M40.3462 565.881C40.3238 566.002 39.834 567.394 36.1293 568.467C32.7457 569.447 27.9185 569.696 22.5414 568.708C17.1643 567.719 12.7417 565.769 9.9279 563.65C6.84699 561.329 6.88437 559.854 6.90669 559.733C6.92901 559.611 7.41885 558.219 11.1236 557.146C14.5071 556.167 19.3343 555.917 24.7114 556.906C30.0885 557.894 34.5111 559.845 37.3249 561.964C40.4059 564.284 40.3685 565.759 40.3462 565.881Z" stroke="black" stroke-width="10"/>
</svg>
