<svg width="230" height="280" viewBox="0 0 230 280" fill="none" xmlns="http://www.w3.org/2000/svg">
<path d="M35 83C38.5 103.833 60 132 99.5 147" stroke="#FFA665" stroke-width="15" stroke-linecap="round"/>
<path d="M99 147.5C87 167.5 64.4001 234.7 76.0001 271.5" stroke="#FFA665" stroke-width="15" stroke-linecap="round"/>
<path d="M8 166.5C28.3333 174.5 63.5 222 74.5 272" stroke="#FFA665" stroke-width="15" stroke-linecap="round"/>
<path d="M36 86.5C38.3333 105.833 40 134.5 8.5 166" stroke="#FFA665" stroke-width="15" stroke-linecap="round"/>
<path d="M177.143 8.3739C176.85 25.2202 189.985 50.5846 219.62 68.4219" stroke="#FFA665" stroke-width="15" stroke-linecap="round"/>
<path d="M219.432 69.4041C206.511 83.3544 177.704 133.021 181.69 163.998" stroke="#FFA665" stroke-width="15" stroke-linecap="round"/>
<path d="M141.967 69.8606C157.274 79.3504 178.652 122.403 180.021 163.679" stroke="#FFA665" stroke-width="15" stroke-linecap="round"/>
<path d="M176.642 11.3323C175.64 26.9868 172.678 49.9161 141.967 69.8607" stroke="#FFA665" stroke-width="15" stroke-linecap="round"/>
</svg>
