<svg width="246" height="233" viewBox="0 0 246 233" fill="none" xmlns="http://www.w3.org/2000/svg">
<path d="M62.3158 31.5837C61.8057 52.7029 77.5804 84.4325 113.523 106.644" stroke="#FFA665" stroke-width="15" stroke-linecap="round"/>
<path d="M112.938 107.04C97.3663 124.404 62.4451 186.106 66.8635 224.437" stroke="#FFA665" stroke-width="15" stroke-linecap="round"/>
<path d="M19.9862 108.457C38.4358 120.164 63.9671 173.466 65.2958 224.644" stroke="#FFA665" stroke-width="15" stroke-linecap="round"/>
<path d="M62.6347 35.2097C61.2632 54.6349 57.469 83.0982 20.572 108.06" stroke="#FFA665" stroke-width="15" stroke-linecap="round"/>
<path d="M196.811 7.78198C192.563 24.0864 199.364 51.8291 223.97 76.1369" stroke="#FFA665" stroke-width="15" stroke-linecap="round"/>
<path d="M223.556 77.0473C207.717 87.5667 168.035 129.063 164.622 160.109" stroke="#FFA665" stroke-width="15" stroke-linecap="round"/>
<path d="M148.158 59.2684C160.803 72.0927 171.454 118.966 163.075 159.406" stroke="#FFA665" stroke-width="15" stroke-linecap="round"/>
<path d="M195.628 10.5394C190.972 25.519 182.699 47.108 148.158 59.2686" stroke="#FFA665" stroke-width="15" stroke-linecap="round"/>
</svg>
