<svg width="358" height="363" viewBox="0 0 358 363" fill="none" xmlns="http://www.w3.org/2000/svg">
<path d="M8.5156 7.71338C6.86993 17.3523 9.31123 28.0849 10.7022 37.5612C12.905 52.5675 14.9113 69.144 25.8448 80.6383C55.2529 111.554 112.739 98.3819 150.265 97.9128C194.128 97.3645 247.576 99.8665 275.287 139.35C293.817 165.751 296.175 199.051 297.591 230.205C299.406 270.141 299.771 310.18 300.762 350.143" stroke="#FFA665" stroke-width="15" stroke-linecap="round"/>
<path d="M269.724 310.756C275.713 319.74 278.967 330.455 283.728 340.101C286.294 345.299 290.03 352.732 296.001 354.683C299.594 355.858 301.949 352.485 303.725 349.919C309.165 342.056 313.128 333.16 317.26 324.58C326.803 304.769 337.807 286.509 349.962 268.201" stroke="#FFA665" stroke-width="15" stroke-linecap="round"/>
</svg>
