<svg width="526" height="166" viewBox="0 0 526 166" fill="none" xmlns="http://www.w3.org/2000/svg">
<path d="M515.47 78.6395C518.23 72.353 509.471 60.5462 506.242 56.1824C497.744 44.6991 482.873 37.8042 470.11 32.7639C440.361 21.0156 407.712 16.2209 376.1 13.1912C298.54 5.75775 215.785 11.0968 140.312 31.459C107.685 40.2616 73.051 49.7451 44.097 67.9261C31.5758 75.7884 14.2328 88.2778 11.3241 104.324C8.00238 122.65 30.9996 133.893 44.2327 139.04C81.8568 153.674 124.977 154.817 164.739 155.694C218.752 156.885 273.033 154.531 326.839 149.788C367.394 146.213 409.732 142.667 448.974 130.971C465.037 126.183 488.898 117.873 495.725 100.307C502.849 81.9748 484.788 62.9943 471.84 53.092C435.994 25.6763 387.803 16.9915 344.074 14.8394C285.981 11.9805 228.52 20.3114 171.049 27.3385" stroke="#FFA665" stroke-width="20" stroke-linecap="round"/>
</svg>
