<svg width="84" height="86" viewBox="0 0 84 86" fill="none" xmlns="http://www.w3.org/2000/svg">
<path d="M68.6893 31.7519C72.7606 32.7792 72.8337 38.6454 71.8654 43.2554C69.3883 55.0486 59.2602 43.9591 58.2242 37.928C56.0245 25.1221 66.8569 26.653 71.4066 33.602C75.0889 39.2263 76.5732 45.5024 75.4912 53.1533C73.6916 65.8779 62.3893 72.6383 54.0944 78.4739" stroke="#FFA665" stroke-width="15" stroke-linecap="round"/>
<path d="M24.5591 15.4309C27.6475 16.659 33.5116 23.6224 32.3174 28.0719C29.1987 39.6924 15.4823 26.9017 12.9449 23.0706C7.31795 14.5746 11.2128 3.99063 20.2794 9.71595C26.1769 13.4401 31.5779 19.8883 33.3788 27.9723C35.9849 39.6709 30.3296 50.3076 26.017 61.0757" stroke="#FFA665" stroke-width="15" stroke-linecap="round"/>
</svg>
