<svg width="256" height="256" viewBox="0 0 256 256" fill="none" xmlns="http://www.w3.org/2000/svg">
<g clip-path="url(#clip0_887_757)">
<path d="M33.44 0H221.67C239.6 0 255.53 15.57 256 33.48V221.72C255.793 230.757 252.107 239.366 245.71 245.752C239.312 252.138 230.697 255.809 221.66 256H33.5C24.6007 255.586 16.1908 251.808 9.97156 245.429C3.75234 239.05 0.188135 230.547 0 221.64V33.56C0.43 15.93 15.81 0.5 33.44 0ZM50.17 91.44C50.04 111.31 50.11 131.19 50.01 151.07C50.088 151.387 50.0911 151.717 50.0191 152.035C49.9471 152.353 49.802 152.65 49.5953 152.903C49.3886 153.155 49.126 153.356 48.8283 153.489C48.5305 153.622 48.2059 153.684 47.88 153.67C45.49 153.81 43.09 153.73 40.69 153.75C42.3 157.75 44.04 161.61 45.84 165.48C50.36 165.33 55.52 166.27 59.38 163.31C62.85 160.73 63.96 156.14 63.89 152.01C63.89 131.82 63.89 111.62 63.8 91.43C59.26 91.41 54.71 91.4 50.17 91.44ZM106.25 90.54C102.863 98.32 99.41 106.067 95.89 113.78C94.89 116.09 93.68 119.15 95.78 121.24C98.47 123.68 102.42 122.74 105.72 122.96C103.43 128.74 100.42 134.23 98.49 140.15C97.42 143.07 100.09 146.04 103.01 146.07C108.3 146.43 113.61 146.07 118.91 146.21C120.64 142.34 122.38 138.48 124.08 134.59C120.99 134.59 117.87 134.81 114.83 134.2C118.12 125.94 122.02 117.95 125.51 109.79C121.24 109.29 116.41 110.68 112.51 109.02C114.41 102.62 117.87 96.75 120.31 90.52C115.61 90.5 110.93 90.47 106.25 90.54ZM179 90.59V95.8C175.94 95.8 172.88 95.8 169.82 95.8C169.82 100.467 169.82 105.11 169.82 109.73C172.89 109.73 175.95 109.73 179.01 109.79C179.09 113.79 179.09 117.817 179.01 121.87C174.41 121.96 169.8 121.87 165.2 121.94C165.14 126.58 165.15 131.21 165.2 135.84C169.81 135.89 174.43 135.84 179.04 135.84C179.04 145.7 179.04 155.57 179.04 165.43C183.66 165.43 188.27 165.43 192.89 165.43C192.89 155.57 192.89 145.713 192.89 135.86C199.63 135.86 206.36 135.76 213.1 135.86C215.47 135.66 218.18 137.32 218.1 139.93C218.285 143.621 218.285 147.319 218.1 151.01C218.136 151.608 217.932 152.196 217.535 152.644C217.137 153.092 216.578 153.364 215.98 153.4C212.13 153.68 208.27 153.4 204.41 153.53C206.11 157.53 207.76 161.53 209.69 165.48C216.04 165.15 223.8 166.75 228.64 161.48C233.24 157.22 231.86 150.48 232.05 144.92C231.76 139.07 233.19 132.46 229.56 127.34C226.47 123 220.9 121.82 215.88 121.73C215.58 114.73 217.25 106.54 212.1 100.85C207.3 95.47 199.57 95.45 192.93 95.71V90.51C188.23 90.56 183.61 90.57 179 90.59ZM129.58 95.81C129.58 100.477 129.58 105.117 129.58 109.73C132.48 109.73 135.37 109.73 138.27 109.73C138.27 123.64 138.27 137.56 138.27 151.47C134.12 151.54 129.96 151.47 125.81 151.52C123.66 156.14 121.56 160.78 119.47 165.42C134.95 165.48 150.47 165.42 165.91 165.42C165.91 160.793 165.91 156.16 165.91 151.52C161.46 151.52 157 151.52 152.55 151.47C152.55 137.55 152.55 123.627 152.55 109.7C155.46 109.7 158.36 109.7 161.27 109.7C161.27 105.06 161.27 100.41 161.27 95.77C150.73 95.79 140.16 95.77 129.58 95.81ZM220.93 97.09C217.05 100.03 218.32 105.41 218.15 109.6C220.74 109.6 223.34 109.74 225.93 109.51C230.09 109.13 233.22 104.28 231.55 100.36C230.24 96.06 224.43 94.19 220.93 97.09ZM27 109.72C26.3 118.84 25.59 127.95 24.93 137.07C24.7768 139.142 24.3324 141.182 23.61 143.13C25.95 148.48 28.29 153.83 30.79 159.13C36.39 151.64 38.47 142.2 39.05 133.03C39.54 125.23 40.41 117.44 40.69 109.63C36.1 109.79 31.54 109.68 27 109.72ZM73.13 109.72C73.7967 118.18 74.4633 126.637 75.13 135.09C75.86 143.57 78.05 152.21 83.23 159.09C85.7 153.8 88.06 148.46 90.4 143.09C89.6416 141.138 89.17 139.087 89 137C88.34 127.91 87.62 118.82 86.92 109.73C82.3067 109.703 77.7 109.7 73.1 109.72H73.13ZM90.29 164.41C97.37 166.5 104.87 165.07 112.14 165.46C114.28 160.83 116.41 156.19 118.49 151.53C111.22 151.25 103.82 152.29 96.69 150.46C94.51 155.093 92.3667 159.743 90.26 164.41H90.29Z" fill="black"/>
<path d="M192.77 109.77C195.77 110.2 199.77 108.55 202.06 110.97C202.44 114.62 202.16 118.29 202.2 121.97C199.09 121.97 195.97 121.97 192.86 121.97C192.8 117.903 192.77 113.837 192.77 109.77Z" fill="black"/>
<path d="M50.17 91.4399C54.71 91.4399 59.26 91.4399 63.8 91.4399C63.93 111.63 63.88 131.83 63.89 152.02C63.96 156.15 62.89 160.74 59.38 163.32C55.52 166.32 50.38 165.32 45.84 165.49C44.04 161.62 42.3 157.72 40.69 153.76C43.09 153.76 45.49 153.82 47.88 153.68C48.2059 153.694 48.5305 153.632 48.8283 153.499C49.126 153.366 49.3886 153.165 49.5953 152.913C49.802 152.66 49.9471 152.363 50.0191 152.045C50.0911 151.727 50.088 151.397 50.01 151.08C50.11 131.19 50 111.31 50.17 91.4399Z" fill="white"/>
<path d="M106.25 90.5399C110.93 90.4699 115.61 90.5399 120.25 90.5399C117.81 96.7699 114.35 102.64 112.45 109.04C116.37 110.7 121.2 109.31 125.45 109.81C121.96 117.97 118.06 125.96 114.77 134.22C117.77 134.83 120.93 134.61 124.02 134.61C122.32 138.5 120.58 142.36 118.85 146.23C113.55 146.14 108.24 146.45 102.95 146.09C100.03 146.09 97.36 143.09 98.43 140.17C100.36 134.25 103.37 128.76 105.66 122.98C102.36 122.76 98.41 123.7 95.72 121.26C93.62 119.17 94.84 116.11 95.83 113.8C99.37 106.067 102.843 98.3132 106.25 90.5399Z" fill="white"/>
<path d="M179 90.5898C183.61 90.5898 188.23 90.5898 192.84 90.5898V95.7899C199.48 95.5299 207.21 95.5498 212.01 100.93C217.16 106.62 215.49 114.83 215.79 121.81C220.79 121.9 226.38 123.08 229.47 127.42C233.1 132.54 231.67 139.15 231.96 145C231.77 150.57 233.15 157.3 228.55 161.56C223.71 166.79 215.95 165.19 209.6 165.56C207.67 161.65 206.02 157.62 204.32 153.61C208.18 153.5 212.04 153.76 215.89 153.48C216.488 153.444 217.047 153.172 217.445 152.724C217.842 152.276 218.046 151.688 218.01 151.09C218.195 147.399 218.195 143.701 218.01 140.01C218.08 137.4 215.37 135.74 213.01 135.94C206.27 135.84 199.54 135.94 192.8 135.94C192.8 145.8 192.8 155.657 192.8 165.51C188.18 165.51 183.57 165.51 178.95 165.51C178.95 155.65 178.95 145.78 178.95 135.92C174.34 135.92 169.72 135.92 165.11 135.92C165.11 131.29 165.11 126.66 165.11 122.02C169.71 122.02 174.32 122.02 178.92 121.95C179.007 117.95 179.007 113.923 178.92 109.87C175.86 109.82 172.8 109.78 169.73 109.81C169.73 105.143 169.73 100.5 169.73 95.8799C172.79 95.8799 175.85 95.8799 178.91 95.8799L179 90.5898ZM192.77 109.77C192.77 113.837 192.8 117.903 192.86 121.97C195.97 121.97 199.09 121.97 202.2 121.97C202.2 118.31 202.44 114.64 202.06 110.97C199.77 108.55 195.77 110.2 192.77 109.77Z" fill="white"/>
<path d="M129.58 95.8101C140.16 95.8101 150.73 95.8101 161.3 95.8101C161.3 100.45 161.3 105.1 161.3 109.74C158.39 109.74 155.49 109.74 152.58 109.74C152.58 123.667 152.58 137.59 152.58 151.51C157.03 151.56 161.49 151.51 165.94 151.56C165.94 156.187 165.94 160.82 165.94 165.46C150.46 165.46 134.94 165.46 119.5 165.46C121.59 160.82 123.69 156.18 125.84 151.56C129.99 151.56 134.15 151.56 138.3 151.51C138.3 137.6 138.3 123.68 138.3 109.77C135.4 109.77 132.51 109.77 129.61 109.77C129.57 105.103 129.56 100.45 129.58 95.8101Z" fill="white"/>
<path d="M220.93 97.0899C224.43 94.1899 230.24 96.0899 231.55 100.36C233.22 104.28 230.09 109.13 225.93 109.51C223.34 109.74 220.74 109.61 218.15 109.6C218.32 105.41 217.05 99.9999 220.93 97.0899Z" fill="white"/>
<path d="M27 109.72C31.57 109.72 36.13 109.79 40.69 109.61C40.41 117.42 39.54 125.21 39.05 133.01C38.47 142.18 36.39 151.62 30.79 159.11C28.29 153.83 25.95 148.48 23.61 143.11C24.3324 141.162 24.7768 139.122 24.93 137.05C25.56 128 26.27 118.84 27 109.72Z" fill="white"/>
<path d="M73.1 109.72C77.7066 109.72 82.3166 109.72 86.93 109.72C87.63 118.81 88.35 127.9 89.01 136.99C89.1485 139.093 89.5932 141.165 90.33 143.14C87.99 148.49 85.63 153.83 83.16 159.14C77.98 152.23 75.79 143.59 75.06 135.14C74.33 126.69 73.77 118.18 73.1 109.72Z" fill="white"/>
<path d="M90.26 164.41C92.3733 159.743 94.5067 155.093 96.66 150.46C103.79 152.29 111.19 151.25 118.46 151.53C116.38 156.19 114.25 160.83 112.11 165.46C104.84 165.07 97.34 166.5 90.26 164.41Z" fill="white"/>
</g>
<defs>
<clipPath id="clip0_887_757">
<rect width="256" height="256" fill="white"/>
</clipPath>
</defs>
</svg>
