<svg width="133" height="196" viewBox="0 0 133 196" fill="none" xmlns="http://www.w3.org/2000/svg">
<path d="M35.939 80.4382L105.455 66.3471" stroke="#0D2610" stroke-width="5" stroke-linecap="round"/>
<path d="M28.1041 14.1975L83.3451 3.00001" stroke="#0D2610" stroke-width="5" stroke-linecap="round"/>
<path d="M34.6857 181.894L104.202 167.803" stroke="#0D2610" stroke-width="5" stroke-linecap="round"/>
<path d="M106.388 65.9403L106.388 166.457" stroke="#0D2610" stroke-width="5" stroke-linecap="round"/>
<path d="M34.0541 181.487L34.0541 80.9707" stroke="#0D2610" stroke-width="5" stroke-linecap="round"/>
<path d="M13.7064 72.6097L83.2225 58.5186" stroke="#0D2610" stroke-width="5" stroke-linecap="round"/>
<path d="M83.6085 68.8292V61.7398" stroke="#0D2610" stroke-width="5" stroke-linecap="round"/>
<path d="M13.0731 175.225L13.0731 74.7082" stroke="#0D2610" stroke-width="5" stroke-linecap="round"/>
<path d="M13.7466 73.932L35.3529 80.5079" stroke="#0D2610" stroke-width="5" stroke-linecap="round"/>
<path d="M13.0731 175.538L34.6794 182.114" stroke="#0D2610" stroke-width="5" stroke-linecap="round"/>
<path d="M84.8279 58.9017L106.434 65.4776" stroke="#0D2610" stroke-width="5" stroke-linecap="round"/>
<path d="M43.4876 77.214L43.4876 14.5847" stroke="#0D2610" stroke-width="5" stroke-linecap="round"/>
<path d="M76.6121 69.3845V8.63615" stroke="#0D2610" stroke-width="5" stroke-linecap="round"/>
<path d="M34.1645 180.861C30.1162 182 26.4032 183.393 24.4375 187.342C22.21 191.818 29.7728 193 32.636 193C35.7006 193 38.5098 192.25 40.8593 190.176C42.0813 189.097 43.255 186.652 42.8394 184.99C41.3816 179.159 32.8327 183.453 29.698 184.97" stroke="#0D2610" stroke-width="5" stroke-linecap="round"/>
<path d="M77.3782 174.911C73.3299 176.05 69.6168 177.444 67.6512 181.393C65.4237 185.868 72.9865 187.05 75.8497 187.05C78.9142 187.05 81.7234 186.301 84.0729 184.227C85.2949 183.148 86.4686 180.703 86.0531 179.041C84.5953 173.209 76.0463 177.504 72.9117 179.021" stroke="#0D2610" stroke-width="5" stroke-linecap="round"/>
<path d="M62.1564 122.305L62.1564 117.295" stroke="#0D2610" stroke-width="5" stroke-linecap="round"/>
<path d="M83.6308 119.486L83.6308 114.476" stroke="#0D2610" stroke-width="5" stroke-linecap="round"/>
<path d="M106.476 116.686C153.771 90.5213 117.448 86.7636 106.476 79.718" stroke="#0D2610" stroke-width="5" stroke-linecap="round"/>
<path d="M20.3823 136.285C18.2024 135.53 15.5866 135.851 13.316 135.376C9.40171 134.557 4.93271 132.64 3.53581 128.546C1.33914 122.109 6.35479 114.601 10.2821 109.991C16.2678 102.965 23.8775 97.5304 32.1338 93.5414" stroke="#0D2610" stroke-width="5" stroke-linecap="round"/>
</svg>
