<svg width="774" height="299" viewBox="0 0 774 299" fill="none" xmlns="http://www.w3.org/2000/svg">
<path d="M55.2621 125.281L156.304 104.799" stroke="#0D2610" stroke-width="15" stroke-linecap="round"/>
<path d="M45.695 31.2754L125.988 14.9998" stroke="#0D2610" stroke-width="15" stroke-linecap="round"/>
<path d="M55.2621 275.022L156.304 254.541" stroke="#0D2610" stroke-width="15" stroke-linecap="round"/>
<path d="M159.481 106.484L159.481 252.585" stroke="#0D2610" stroke-width="15" stroke-linecap="round"/>
<path d="M54.3428 274.431L54.3428 128.33" stroke="#0D2610" stroke-width="15" stroke-linecap="round"/>
<path d="M24.7675 116.178L125.809 95.6968" stroke="#0D2610" stroke-width="15" stroke-linecap="round"/>
<path d="M129.1 95.8267V106.131" stroke="#0D2610" stroke-width="15" stroke-linecap="round"/>
<path d="M23.8481 265.328L23.8481 119.227" stroke="#0D2610" stroke-width="15" stroke-linecap="round"/>
<path d="M24.8246 118.1L56.2294 127.658" stroke="#0D2610" stroke-width="15" stroke-linecap="round"/>
<path d="M23.8481 265.784L55.253 275.342" stroke="#0D2610" stroke-width="15" stroke-linecap="round"/>
<path d="M128.142 96.2529L159.547 105.811" stroke="#0D2610" stroke-width="15" stroke-linecap="round"/>
<path d="M67.9969 111.491V31.8407" stroke="#0D2610" stroke-width="15" stroke-linecap="round"/>
<path d="M116.242 104.663V25.0131" stroke="#0D2610" stroke-width="15" stroke-linecap="round"/>
<path d="M54.5046 273.521C48.6203 275.175 43.2234 277.201 40.3664 282.941C37.1287 289.446 48.1212 291.164 52.2829 291.164C56.7372 291.164 60.8204 290.075 64.2354 287.06C66.0116 285.492 67.7175 281.938 67.1135 279.522C64.9946 271.046 52.5687 277.289 48.0125 279.493" stroke="#0D2610" stroke-width="15" stroke-linecap="round"/>
<path d="M117.314 264.874C111.43 266.528 106.033 268.554 103.176 274.294C99.9384 280.799 110.931 282.517 115.093 282.517C119.547 282.517 123.63 281.428 127.045 278.413C128.821 276.845 130.527 273.291 129.923 270.875C127.804 262.399 115.378 268.642 110.822 270.846" stroke="#0D2610" stroke-width="15" stroke-linecap="round"/>
<path d="M73.7977 184.82C77.363 177.765 87.361 166.25 98.8306 176.628" stroke="#0D2610" stroke-width="15" stroke-linecap="round"/>
<path d="M117.036 174.352C120.602 167.297 130.6 155.782 142.069 166.159" stroke="#0D2610" stroke-width="15" stroke-linecap="round"/>
<path d="M52.9482 212.325C47.2938 208.367 41.9505 202.29 36.8493 197.721C26.8533 188.767 17.2103 179.513 8 169.761" stroke="#0D2610" stroke-width="15" stroke-linecap="round"/>
<path d="M159.87 194.959C159.135 192.333 161.729 187.341 162.443 185.538C167.754 172.143 174.504 159.758 180.982 146.946" stroke="#0D2610" stroke-width="15" stroke-linecap="round"/>
<path d="M249.992 121.575L348.554 101.596" stroke="#0D2610" stroke-width="15" stroke-linecap="round"/>
<path d="M240.659 29.8765L318.982 14.0002" stroke="#0D2610" stroke-width="15" stroke-linecap="round"/>
<path d="M249.992 267.643L348.554 247.664" stroke="#0D2610" stroke-width="15" stroke-linecap="round"/>
<path d="M351.653 103.239L351.653 245.755" stroke="#0D2610" stroke-width="15" stroke-linecap="round"/>
<path d="M249.095 267.066V124.55" stroke="#0D2610" stroke-width="15" stroke-linecap="round"/>
<path d="M220.245 112.695L318.808 92.7164" stroke="#0D2610" stroke-width="15" stroke-linecap="round"/>
<path d="M322.018 92.8438V102.895" stroke="#0D2610" stroke-width="15" stroke-linecap="round"/>
<path d="M219.348 258.187V115.671" stroke="#0D2610" stroke-width="15" stroke-linecap="round"/>
<path d="M220.301 114.57L250.935 123.894" stroke="#0D2610" stroke-width="15" stroke-linecap="round"/>
<path d="M219.348 258.631L249.983 267.954" stroke="#0D2610" stroke-width="15" stroke-linecap="round"/>
<path d="M321.083 93.2593L351.718 102.583" stroke="#0D2610" stroke-width="15" stroke-linecap="round"/>
<path d="M262.414 108.123V30.4273" stroke="#0D2610" stroke-width="15" stroke-linecap="round"/>
<path d="M309.475 101.463V23.7677" stroke="#0D2610" stroke-width="15" stroke-linecap="round"/>
<path d="M249.253 266.178C243.513 267.793 238.248 269.768 235.461 275.368C232.303 281.713 243.026 283.389 247.085 283.389C251.43 283.389 255.413 282.326 258.745 279.386C260.477 277.856 262.141 274.389 261.552 272.032C259.485 263.765 247.364 269.854 242.92 272.004" stroke="#0D2610" stroke-width="15" stroke-linecap="round"/>
<path d="M310.521 257.743C304.781 259.358 299.517 261.333 296.73 266.933C293.572 273.278 304.295 274.954 308.354 274.954C312.699 274.954 316.682 273.891 320.013 270.95C321.746 269.421 323.41 265.954 322.821 263.597C320.754 255.33 308.633 261.419 304.188 263.569" stroke="#0D2610" stroke-width="15" stroke-linecap="round"/>
<path d="M287.291 177.368C287.018 177.385 287.047 177.415 286.898 177.564" stroke="#0D2610" stroke-width="15" stroke-linecap="round"/>
<path d="M305.571 174.222C305.314 174.222 305.282 174.234 305.178 174.026" stroke="#0D2610" stroke-width="15" stroke-linecap="round"/>
<path d="M248.175 196.238C246.108 196.902 244.049 197.52 241.874 197.701C237.231 198.088 235.851 195.492 233.236 192.165C232.423 191.129 231.344 190.579 230.004 190.669C226.278 190.917 222.576 192.466 218.909 193.158C213.098 194.256 206.806 193.131 201 192.503" stroke="#0D2610" stroke-width="15" stroke-linecap="round"/>
<path d="M352.943 170.488C352.943 173.418 362.537 169.621 364.835 170.794C370.87 173.873 377.568 170.879 384 170.684" stroke="#0D2610" stroke-width="15" stroke-linecap="round"/>
<path d="M552.646 85.6597L552.646 239.315" stroke="#0D2610" stroke-width="15" stroke-linecap="round"/>
<path d="M531.335 145.418C528.006 153.036 518.186 165.716 505.531 155.495" stroke="#0D2610" stroke-width="15" stroke-linecap="round"/>
<path d="M486.548 158.956C483.22 166.574 473.399 179.254 460.745 169.033" stroke="#0D2610" stroke-width="15" stroke-linecap="round"/>
<path d="M443.038 105.429L549.304 83.8883" stroke="#0D2610" stroke-width="15" stroke-linecap="round"/>
<path d="M462.176 63.0469L546.62 45.9298" stroke="#0D2610" stroke-width="15" stroke-linecap="round"/>
<path d="M443.038 262.913L549.304 241.373" stroke="#0D2610" stroke-width="15" stroke-linecap="round"/>
<path d="M442.071 262.292V108.636" stroke="#0D2610" stroke-width="15" stroke-linecap="round"/>
<path d="M410.967 95.855L517.233 74.3145" stroke="#0D2610" stroke-width="15" stroke-linecap="round"/>
<path d="M520.694 74.4521V85.2894" stroke="#0D2610" stroke-width="15" stroke-linecap="round"/>
<path d="M410 252.718V99.0631" stroke="#0D2610" stroke-width="15" stroke-linecap="round"/>
<path d="M411.027 97.8765L444.056 107.929" stroke="#0D2610" stroke-width="15" stroke-linecap="round"/>
<path d="M410 253.197L443.029 263.249" stroke="#0D2610" stroke-width="15" stroke-linecap="round"/>
<path d="M519.687 74.9004L552.715 84.9526" stroke="#0D2610" stroke-width="15" stroke-linecap="round"/>
<path d="M442.242 261.334C436.053 263.075 430.377 265.205 427.372 271.242C423.967 278.083 435.528 279.89 439.905 279.89C444.59 279.89 448.884 278.744 452.476 275.574C454.344 273.925 456.138 270.187 455.502 267.646C453.274 258.732 440.206 265.297 435.414 267.615" stroke="#0D2610" stroke-width="15" stroke-linecap="round"/>
<path d="M508.299 252.239C502.11 253.98 496.434 256.11 493.43 262.147C490.025 268.988 501.586 270.795 505.962 270.795C510.647 270.795 514.941 269.649 518.533 266.479C520.401 264.83 522.195 261.092 521.56 258.551C519.331 249.637 506.263 256.202 501.471 258.521" stroke="#0D2610" stroke-width="15" stroke-linecap="round"/>
<path d="M447.921 94.6299C446.964 48.4376 452.086 -25.1829 480.232 49.8736" stroke="#0D2610" stroke-width="15" stroke-linecap="round"/>
<path d="M489.7 84.9419C488.742 38.7496 493.864 -34.8709 522.01 40.1856" stroke="#0D2610" stroke-width="15" stroke-linecap="round"/>
<path d="M431.48 215.527C440.046 210.821 447.901 204.588 455.941 199.059C461.417 195.293 465.919 191.394 470.426 186.534" stroke="#0D2610" stroke-width="15" stroke-linecap="round"/>
<path d="M553.728 178.528C550.502 178.306 546.906 175.49 544.255 174.045C539.798 171.615 535.511 169.214 531.442 166.195" stroke="#0D2610" stroke-width="15" stroke-linecap="round"/>
<path d="M712.898 119.226L616.488 99.6834" stroke="#0D2610" stroke-width="15" stroke-linecap="round"/>
<path d="M722.027 29.5298L645.414 14.0002" stroke="#0D2610" stroke-width="15" stroke-linecap="round"/>
<path d="M712.898 262.104L616.488 242.561" stroke="#0D2610" stroke-width="15" stroke-linecap="round"/>
<path d="M613.457 101.291L613.457 240.695" stroke="#0D2610" stroke-width="15" stroke-linecap="round"/>
<path d="M713.775 261.541V122.136" stroke="#0D2610" stroke-width="15" stroke-linecap="round"/>
<path d="M741.995 110.54L645.585 90.9974" stroke="#0D2610" stroke-width="15" stroke-linecap="round"/>
<path d="M642.445 91.1226V100.955" stroke="#0D2610" stroke-width="15" stroke-linecap="round"/>
<path d="M742.872 252.855V113.451" stroke="#0D2610" stroke-width="15" stroke-linecap="round"/>
<path d="M741.941 112.374L711.975 121.494" stroke="#0D2610" stroke-width="15" stroke-linecap="round"/>
<path d="M742.872 253.289L712.907 262.409" stroke="#0D2610" stroke-width="15" stroke-linecap="round"/>
<path d="M643.359 91.5283L613.393 100.648" stroke="#0D2610" stroke-width="15" stroke-linecap="round"/>
<path d="M675.56 160.23L675.126 183.247" stroke="#0D2610" stroke-width="15" stroke-linecap="round"/>
<path d="M647.766 154.584L647.332 177.601" stroke="#0D2610" stroke-width="15" stroke-linecap="round"/>
<path d="M700.747 106.068V30.0687" stroke="#0D2610" stroke-width="15" stroke-linecap="round"/>
<path d="M654.713 99.5532V23.5541" stroke="#0D2610" stroke-width="15" stroke-linecap="round"/>
<path d="M713.621 260.672C719.236 262.251 724.385 264.184 727.111 269.661C730.201 275.867 719.712 277.507 715.741 277.507C711.491 277.507 707.595 276.467 704.336 273.591C702.641 272.095 701.014 268.704 701.59 266.398C703.612 258.311 715.468 264.267 719.816 266.371" stroke="#0D2610" stroke-width="15" stroke-linecap="round"/>
<path d="M653.69 252.42C659.305 254 664.454 255.932 667.18 261.409C670.27 267.616 659.781 269.256 655.81 269.256C651.56 269.256 647.664 268.216 644.405 265.339C642.711 263.843 641.083 260.452 641.659 258.147C643.681 250.06 655.537 256.016 659.885 258.119" stroke="#0D2610" stroke-width="15" stroke-linecap="round"/>
<path d="M719.713 184.953C724.294 181.899 733.518 185.531 738.162 186.821C747.489 189.41 756.664 192.435 766 194.996" stroke="#0D2610" stroke-width="15" stroke-linecap="round"/>
<path d="M612.292 174.691C609.595 166.248 603.972 158.284 599.349 150.82C594.744 143.384 589.796 136.155 585 128.841" stroke="#0D2610" stroke-width="15" stroke-linecap="round"/>
</svg>
