<svg width="112" height="194" viewBox="0 0 112 194" fill="none" xmlns="http://www.w3.org/2000/svg">
<path d="M60.9173 119.145L60.9173 114.189" stroke="#0D2610" stroke-width="5" stroke-linecap="round"/>
<path d="M40.475 116.357L40.475 111.402" stroke="#0D2610" stroke-width="5" stroke-linecap="round"/>
<path d="M85.3111 79.5933L18.8869 65.6559" stroke="#0D2610" stroke-width="5" stroke-linecap="round"/>
<path d="M92.7963 14.0753L40.0124 2.99996" stroke="#0D2610" stroke-width="5" stroke-linecap="round"/>
<path d="M86.5084 179.943L20.0843 166.005" stroke="#0D2610" stroke-width="5" stroke-linecap="round"/>
<path d="M17.8668 65.2538L17.8668 164.674" stroke="#0D2610" stroke-width="5" stroke-linecap="round"/>
<path d="M87.2438 179.54V80.12" stroke="#0D2610" stroke-width="5" stroke-linecap="round"/>
<path d="M106.554 71.8502L40.1301 57.9128" stroke="#0D2610" stroke-width="5" stroke-linecap="round"/>
<path d="M39.8571 68.041V61.2272" stroke="#0D2610" stroke-width="5" stroke-linecap="round"/>
<path d="M107.066 173.346V73.9257" stroke="#0D2610" stroke-width="5" stroke-linecap="round"/>
<path d="M106.076 73.2148L85.4309 79.719" stroke="#0D2610" stroke-width="5" stroke-linecap="round"/>
<path d="M107.16 173.656L86.5143 180.16" stroke="#0D2610" stroke-width="5" stroke-linecap="round"/>
<path d="M38.5979 58.2915L17.9526 64.7956" stroke="#0D2610" stroke-width="5" stroke-linecap="round"/>
<path d="M77.9514 76.4034L77.9514 14.4594" stroke="#0D2610" stroke-width="5" stroke-linecap="round"/>
<path d="M46.3611 68.6603V8.57452" stroke="#0D2610" stroke-width="5" stroke-linecap="round"/>
<path d="M77.6099 178.921C81.4593 180.054 84.9899 181.441 86.859 185.37C88.9771 189.824 81.7858 191 79.0633 191C76.1493 191 73.4781 190.254 71.244 188.19C70.0821 187.117 68.9661 184.684 69.3612 183.03C70.7474 177.227 78.8763 181.501 81.8569 183.01" stroke="#0D2610" stroke-width="5" stroke-linecap="round"/>
<path d="M36.7272 173.036C40.5766 174.169 44.1072 175.556 45.9763 179.485C48.0944 183.939 40.9032 185.115 38.1806 185.115C35.2666 185.115 32.5954 184.369 30.3614 182.305C29.1994 181.232 28.0834 178.799 28.4785 177.145C29.8647 171.342 37.9936 175.616 40.9742 177.125" stroke="#0D2610" stroke-width="5" stroke-linecap="round"/>
<path d="M97.7742 120.384C101.714 133.177 106.453 145.838 108.614 159.099" stroke="#0D2610" stroke-width="5" stroke-linecap="round"/>
<path d="M16.318 109.234C11.2043 118.942 7.9291 129.466 3.00003 139.277" stroke="#0D2610" stroke-width="5" stroke-linecap="round"/>
</svg>
