<svg width="138" height="198" viewBox="0 0 138 198" fill="none" xmlns="http://www.w3.org/2000/svg">
<path d="M41.7275 79.7393L112.038 65.4871" stroke="#0D2610" stroke-width="5" stroke-linecap="round"/>
<path d="M35.0692 14.3254L90.9413 3" stroke="#0D2610" stroke-width="5" stroke-linecap="round"/>
<path d="M41.7275 183.938L112.038 169.686" stroke="#0D2610" stroke-width="5" stroke-linecap="round"/>
<path d="M114.247 66.6595L114.247 168.325" stroke="#0D2610" stroke-width="5" stroke-linecap="round"/>
<path d="M41.0861 183.527L41.0861 81.8618" stroke="#0D2610" stroke-width="5" stroke-linecap="round"/>
<path d="M20.5072 73.4049L90.8177 59.1528" stroke="#0D2610" stroke-width="5" stroke-linecap="round"/>
<path d="M91.2058 59.2439V66.4143" stroke="#0D2610" stroke-width="5" stroke-linecap="round"/>
<path d="M19.8657 177.193L19.8657 75.5274" stroke="#0D2610" stroke-width="5" stroke-linecap="round"/>
<path d="M20.5468 74.7424L42.4001 81.3934" stroke="#0D2610" stroke-width="5" stroke-linecap="round"/>
<path d="M19.8657 177.509L41.719 184.16" stroke="#0D2610" stroke-width="5" stroke-linecap="round"/>
<path d="M92.4397 59.5404L114.293 66.1914" stroke="#0D2610" stroke-width="5" stroke-linecap="round"/>
<path d="M68.9553 109.643L69.272 126.429" stroke="#0D2610" stroke-width="5" stroke-linecap="round"/>
<path d="M89.2266 105.526L89.5433 122.311" stroke="#0D2610" stroke-width="5" stroke-linecap="round"/>
<path d="M50.5066 75.5273L50.5874 14.7183" stroke="#0D2610" stroke-width="5" stroke-linecap="round"/>
<path d="M82.1796 68.2565L82.1796 8.70083" stroke="#0D2610" stroke-width="5" stroke-linecap="round"/>
<path d="M41.1997 182.893C37.1051 184.045 33.3497 185.454 31.3616 189.449C29.1086 193.975 36.7578 195.171 39.6537 195.171C42.7533 195.171 45.5946 194.413 47.971 192.315C49.2069 191.224 50.3941 188.751 49.9738 187.07C48.4993 181.172 39.8527 185.515 36.6822 187.049" stroke="#0D2610" stroke-width="5" stroke-linecap="round"/>
<path d="M84.9045 176.876C80.8099 178.027 77.0545 179.437 75.0664 183.431C72.8134 187.958 80.4626 189.153 83.3585 189.153C86.4581 189.153 89.2994 188.395 91.6758 186.297C92.9117 185.206 94.0988 182.733 93.6785 181.052C92.2041 175.154 83.5574 179.498 80.387 181.032" stroke="#0D2610" stroke-width="5" stroke-linecap="round"/>
<path d="M36.7564 127.673C33.4157 125.446 26.6884 128.095 23.3016 129.035C16.4997 130.923 9.80844 133.129 3 134.997" stroke="#0D2610" stroke-width="5" stroke-linecap="round"/>
<path d="M115.096 120.189C117.063 114.031 121.164 108.223 124.535 102.78C127.893 97.3572 131.502 92.0852 134.999 86.7512" stroke="#0D2610" stroke-width="5" stroke-linecap="round"/>
</svg>
