<svg width="393" height="213" viewBox="0 0 393 213" fill="none" xmlns="http://www.w3.org/2000/svg">
<rect width="392.259" height="212.834" rx="106.417" fill="#0D2610"/>
<path d="M107.041 98.9406H90.8912V97.2906C93.3245 97.2906 95.0412 97.0739 96.0412 96.6406C96.9745 96.2406 97.4412 95.5406 97.4412 94.5406V69.5406C97.4412 68.7739 97.2412 68.2572 96.8412 67.9906C96.4745 67.6906 95.8078 67.5406 94.8412 67.5406H90.7412V65.9406C91.8078 65.8406 92.7912 65.6906 93.6912 65.4906C94.6245 65.2572 95.4745 64.9906 96.2412 64.6906C97.4078 64.2572 98.8745 63.5072 100.641 62.4406V94.5406C100.641 95.1739 100.808 95.6906 101.141 96.0906C101.508 96.4572 102.175 96.7406 103.141 96.9406C103.608 97.0406 104.158 97.1239 104.791 97.1906C105.458 97.2572 106.208 97.2906 107.041 97.2906V98.9406ZM132.548 87.6906C132.548 90.6572 131.682 93.3072 129.948 95.6406C129.115 96.8406 127.932 97.8072 126.398 98.5406C124.898 99.2739 123.348 99.6406 121.748 99.6406C118.315 99.6406 115.665 98.7572 113.798 96.9906C112.865 96.1906 112.165 95.3239 111.698 94.3906C111.232 93.4239 110.998 92.3072 110.998 91.0406C110.998 89.5072 111.748 88.7406 113.248 88.7406C114.748 88.7406 115.498 89.5406 115.498 91.1406C115.498 91.3072 115.482 91.5239 115.448 91.7906C115.448 92.0572 115.415 92.3072 115.348 92.5406C115.282 92.7072 115.232 92.8406 115.198 92.9406C115.198 93.0406 115.198 93.1406 115.198 93.2406C115.198 94.2406 115.498 95.0906 116.098 95.7906C117.065 97.0572 118.782 97.6906 121.248 97.6906C123.182 97.6906 124.832 96.9906 126.198 95.5906C127.198 94.5239 127.915 93.3572 128.348 92.0906C128.815 90.7906 129.048 89.2906 129.048 87.5906C129.048 86.2572 128.915 85.0406 128.648 83.9406C128.382 82.8072 127.915 81.8239 127.248 80.9906C126.482 80.0239 125.598 79.2739 124.598 78.7406C123.632 78.1739 122.515 77.8906 121.248 77.8906C119.948 77.8906 118.582 78.2906 117.148 79.0906C115.648 79.9572 114.482 81.0406 113.648 82.3406C113.382 82.2406 113.115 82.1406 112.848 82.0406C112.582 81.9406 112.298 81.8406 111.998 81.7406L113.798 63.1406L131.098 63.1406C130.932 63.7072 130.782 64.2739 130.648 64.8406C130.515 65.4072 130.365 65.9739 130.198 66.5406H115.648C115.415 68.5406 115.198 70.5572 114.998 72.5906C114.798 74.6239 114.582 76.6572 114.348 78.6906C116.582 76.8239 119.065 75.8906 121.798 75.8906C125.165 75.8906 127.865 77.1072 129.898 79.5406C131.665 81.6072 132.548 84.3239 132.548 87.6906ZM184.167 98.4906H172.267V96.8906C174.167 96.8906 175.434 96.6239 176.067 96.0906C176.601 95.5906 176.867 94.8572 176.867 93.8906V66.8406C174.767 72.2406 172.701 77.5739 170.667 82.8406C168.667 88.0739 166.651 93.3906 164.617 98.7906H163.067C161.067 93.4906 159.117 88.2406 157.217 83.0406C155.317 77.8072 153.367 72.5239 151.367 67.1906V93.8906C151.367 94.9906 151.651 95.7739 152.217 96.2406C152.884 96.6739 154.034 96.8906 155.667 96.8906V98.4906H145.417V96.8906C147.051 96.8906 148.117 96.7072 148.617 96.3406C149.151 95.9406 149.417 95.3239 149.417 94.4906V67.9906C149.417 67.0239 149.151 66.3406 148.617 65.9406C148.084 65.5072 147.034 65.2906 145.467 65.2906V63.6406H153.767C155.567 68.5739 157.367 73.4406 159.167 78.2406C161.001 83.0406 162.817 87.9239 164.617 92.8906C166.417 87.9239 168.217 83.0406 170.017 78.2406C171.851 73.4406 173.667 68.5739 175.467 63.6406H184.167V65.2906C182.234 65.2906 181.051 65.5072 180.617 65.9406C180.251 66.4072 180.067 67.0406 180.067 67.8406V93.8906C180.067 94.9239 180.284 95.6572 180.717 96.0906C181.351 96.6239 182.501 96.8906 184.167 96.8906V98.4906ZM192.264 65.4406C192.264 66.2406 191.998 66.9072 191.464 67.4406C190.931 67.9739 190.264 68.2406 189.464 68.2406C188.731 68.2406 188.114 67.9739 187.614 67.4406C187.148 66.9072 186.914 66.2406 186.914 65.4406C186.914 64.6406 187.164 63.9739 187.664 63.4406C188.164 62.9072 188.764 62.6406 189.464 62.6406C190.264 62.6406 190.931 62.9072 191.464 63.4406C191.998 63.9739 192.264 64.6406 192.264 65.4406ZM194.614 98.5406H185.264V96.8906C186.631 96.8906 187.514 96.6906 187.914 96.2906C188.248 95.9906 188.414 95.4406 188.414 94.6406V80.2406C188.414 79.5072 188.264 79.0072 187.964 78.7406C187.598 78.4406 186.714 78.2906 185.314 78.2906L185.114 77.1906L191.464 74.7906V94.6406C191.464 95.5739 191.614 96.1572 191.914 96.3906C192.348 96.7239 193.248 96.8906 194.614 96.8906V98.5406ZM218.762 98.4906H209.012V96.8906C210.179 96.8906 210.995 96.7406 211.462 96.4406C212.029 96.0739 212.312 95.3572 212.312 94.2906V81.7406C212.312 78.9406 210.995 77.5406 208.362 77.5406C206.795 77.5406 205.479 77.8072 204.412 78.3406C203.945 78.5739 203.395 78.8906 202.762 79.2906C202.129 79.6572 201.429 80.1072 200.662 80.6406V94.2906C200.662 95.2906 200.879 95.9572 201.312 96.2906C201.579 96.4572 201.945 96.5906 202.412 96.6906C202.879 96.8239 203.445 96.8906 204.112 96.8906V98.4906H194.362V96.8906C195.629 96.8906 196.545 96.6906 197.112 96.2906C197.445 95.9572 197.612 95.2906 197.612 94.2906V80.4906C197.612 79.5906 197.445 79.0239 197.112 78.7906C196.645 78.4239 195.795 78.2406 194.562 78.2406C194.495 78.0739 194.445 77.8906 194.412 77.6906C194.412 77.4906 194.379 77.3072 194.312 77.1406C195.379 76.7739 196.429 76.4072 197.462 76.0406C198.529 75.6739 199.595 75.3072 200.662 74.9406V78.4906C203.495 76.1572 206.379 74.9906 209.312 74.9906C211.345 74.9906 212.862 75.5739 213.862 76.7406C214.862 77.9406 215.362 79.6406 215.362 81.8406V94.2406C215.362 95.2739 215.562 95.9572 215.962 96.2906C216.229 96.4572 216.595 96.5906 217.062 96.6906C217.529 96.8239 218.095 96.8906 218.762 96.8906V98.4906ZM241.88 98.2406C240.847 98.2406 239.83 98.2739 238.83 98.3406C237.83 98.4406 236.83 98.5739 235.83 98.7406C235.797 98.3072 235.764 97.8739 235.73 97.4406C235.73 97.0406 235.714 96.6406 235.68 96.2406C233.514 98.3739 230.764 99.4406 227.43 99.4406C225.697 99.4406 224.314 99.0739 223.28 98.3406C221.747 97.3072 220.98 95.6072 220.98 93.2406V79.9906C220.98 79.2906 220.814 78.8239 220.48 78.5906C219.914 78.2572 219.064 78.0906 217.93 78.0906C217.897 77.9239 217.88 77.7572 217.88 77.5906C217.88 77.3906 217.864 77.2072 217.83 77.0406C218.897 76.6739 219.93 76.3239 220.93 75.9906C221.964 75.6572 222.997 75.3239 224.03 74.9906V92.9906C224.03 95.6239 225.497 96.9406 228.43 96.9406C231.464 96.9406 233.88 96.0906 235.68 94.3906V79.8906C235.68 79.4572 235.514 79.1406 235.18 78.9406C234.647 78.3072 233.814 77.9906 232.68 77.9906C232.647 77.8239 232.63 77.6572 232.63 77.4906C232.63 77.3239 232.614 77.1572 232.58 76.9906C234.58 76.2572 236.63 75.5739 238.73 74.9406V94.1906C238.73 94.5572 238.78 94.8572 238.88 95.0906C238.947 95.2906 239.014 95.4739 239.08 95.6406C239.147 95.7739 239.214 95.8906 239.28 95.9906C239.78 96.5572 240.647 96.8406 241.88 96.8406V98.2406ZM255.271 93.5906C255.438 93.7239 255.588 93.8406 255.721 93.9406C255.888 94.0406 256.054 94.1406 256.221 94.2406C255.621 95.6406 254.804 96.8072 253.771 97.7406C252.604 98.8406 251.338 99.3906 249.971 99.3906C248.171 99.3906 246.804 98.7406 245.871 97.4406C245.604 96.9739 245.388 96.4406 245.221 95.8406C245.054 95.2406 244.971 94.5739 244.971 93.8406V77.2906H241.071V75.6906C242.871 75.6906 244.204 75.0072 245.071 73.6406C246.038 72.0739 246.521 69.8406 246.521 66.9406H248.021V75.3406H254.571V77.2906H248.021V94.1906C248.021 95.9572 248.954 96.8406 250.821 96.8406C252.321 96.8406 253.804 95.7572 255.271 93.5906ZM276.91 92.4906C277.076 92.6239 277.243 92.7572 277.41 92.8906C277.61 93.0239 277.793 93.1572 277.96 93.2906C277.16 94.4906 276.276 95.4906 275.31 96.2906C274.343 97.0906 273.31 97.7572 272.21 98.2906C270.71 99.0239 269.093 99.3906 267.36 99.3906C264.06 99.3906 261.36 98.3406 259.26 96.2406C257.026 94.0072 255.91 90.9906 255.91 87.1906C255.91 83.5239 256.976 80.5739 259.11 78.3406C261.21 76.0406 263.876 74.8906 267.11 74.8906C270.343 74.8906 272.893 75.8239 274.76 77.6906C276.76 79.5906 277.76 82.3406 277.76 85.9406C274.66 86.0406 271.61 86.1572 268.61 86.2906C265.61 86.3906 262.543 86.4906 259.41 86.5906C259.41 86.7239 259.393 86.8572 259.36 86.9906C259.36 87.0906 259.36 87.2072 259.36 87.3406C259.36 88.7406 259.543 90.0072 259.91 91.1406C260.31 92.2739 260.876 93.2906 261.61 94.1906C263.143 96.1906 265.293 97.1906 268.06 97.1906C269.526 97.1906 271.06 96.8072 272.66 96.0406C273.393 95.6072 274.11 95.1072 274.81 94.5406C275.543 93.9406 276.243 93.2572 276.91 92.4906ZM259.51 84.6906C262.01 84.6239 264.476 84.5406 266.91 84.4406C269.343 84.3406 271.81 84.2572 274.31 84.1906C274.276 81.9906 273.593 80.2239 272.26 78.8906C270.893 77.4239 269.176 76.6906 267.11 76.6906C265.11 76.6906 263.36 77.4906 261.86 79.0906C260.46 80.5572 259.676 82.4239 259.51 84.6906ZM297.52 92.7406C297.52 94.1072 297.137 95.3239 296.37 96.3906C296.203 96.5572 296.037 96.7239 295.87 96.8906C295.737 97.0572 295.587 97.2239 295.42 97.3906C293.92 98.6906 291.887 99.3406 289.32 99.3406C287.553 99.3406 286.02 99.0572 284.72 98.4906C284.553 98.4239 284.387 98.3739 284.22 98.3406C284.087 98.3406 283.937 98.3406 283.77 98.3406H283.27C282.903 98.5072 282.553 98.6406 282.22 98.7406C281.887 98.8739 281.537 99.0072 281.17 99.1406C280.703 97.8739 280.22 96.6406 279.72 95.4406C279.22 94.2072 278.737 92.9572 278.27 91.6906C278.403 91.5906 278.52 91.4906 278.62 91.3906C278.753 91.2906 278.903 91.2072 279.07 91.1406C280.503 93.1406 281.87 94.6072 283.17 95.5406C285.237 96.8739 287.27 97.5406 289.27 97.5406C290.837 97.5406 292.153 97.0572 293.22 96.0906C294.087 95.2239 294.52 94.1739 294.52 92.9406C294.52 92.1406 294.203 91.4239 293.57 90.7906C293.437 90.6906 293.27 90.5739 293.07 90.4406C292.87 90.3072 292.637 90.1572 292.37 89.9906C291.937 89.7239 291.37 89.4572 290.67 89.1906C289.97 88.8906 289.12 88.5739 288.12 88.2406C286.553 87.7072 285.253 87.2239 284.22 86.7906C283.187 86.3239 282.403 85.8739 281.87 85.4406C279.87 84.2072 278.87 82.5739 278.87 80.5406C278.87 78.6739 279.753 77.1906 281.52 76.0906C282.853 75.2572 284.52 74.8406 286.52 74.8406C288.253 74.8406 290.037 75.1739 291.87 75.8406C292.137 75.7739 292.42 75.6572 292.72 75.4906C293.02 75.2906 293.353 75.0572 293.72 74.7906C294.187 75.9906 294.653 77.2072 295.12 78.4406C295.587 79.6406 296.053 80.8572 296.52 82.0906C296.353 82.1572 296.187 82.2406 296.02 82.3406C295.887 82.4406 295.737 82.5239 295.57 82.5906C294.737 80.9906 293.62 79.6906 292.22 78.6906C290.153 77.3239 288.253 76.6406 286.52 76.6406C285.253 76.6406 284.253 76.8572 283.52 77.2906C282.42 77.8906 281.87 78.9239 281.87 80.3906C281.87 81.3239 282.353 82.1239 283.32 82.7906C283.453 82.8572 283.587 82.9239 283.72 82.9906C283.853 83.0572 284.003 83.1239 284.17 83.1906C284.637 83.4572 285.22 83.7406 285.92 84.0406C286.62 84.3406 287.403 84.6239 288.27 84.8906C290.07 85.4572 291.553 86.0239 292.72 86.5906C293.92 87.1239 294.837 87.6239 295.47 88.0906C296.837 89.1906 297.52 90.7406 297.52 92.7406ZM106.634 137.141C106.634 140.874 105.567 143.857 103.434 146.091C101.4 148.324 98.8004 149.441 95.6337 149.441C92.4337 149.441 89.8171 148.324 87.7837 146.091C85.6504 143.857 84.5837 140.874 84.5837 137.141C84.5837 133.407 85.6504 130.424 87.7837 128.191C89.8171 125.957 92.4337 124.841 95.6337 124.841C98.8004 124.841 101.4 125.957 103.434 128.191C105.567 130.424 106.634 133.407 106.634 137.141ZM103.234 137.141C103.234 134.074 102.5 131.557 101.034 129.591C99.6671 127.624 97.8671 126.641 95.6337 126.641C93.4337 126.641 91.6004 127.624 90.1337 129.591C88.7004 131.557 87.9837 134.074 87.9837 137.141C87.9837 140.174 88.6837 142.691 90.0837 144.691C91.5171 146.624 93.3671 147.591 95.6337 147.591C97.8004 147.591 99.6004 146.624 101.034 144.691C102.5 142.724 103.234 140.207 103.234 137.141ZM130.94 148.491H121.19V146.891C122.356 146.891 123.173 146.741 123.64 146.441C124.206 146.074 124.49 145.357 124.49 144.291V131.741C124.49 128.941 123.173 127.541 120.54 127.541C118.973 127.541 117.656 127.807 116.59 128.341C116.123 128.574 115.573 128.891 114.94 129.291C114.306 129.657 113.606 130.107 112.84 130.641V144.291C112.84 145.291 113.056 145.957 113.49 146.291C113.756 146.457 114.123 146.591 114.59 146.691C115.056 146.824 115.623 146.891 116.29 146.891V148.491H106.54V146.891C107.806 146.891 108.723 146.691 109.29 146.291C109.623 145.957 109.79 145.291 109.79 144.291V130.491C109.79 129.591 109.623 129.024 109.29 128.791C108.823 128.424 107.973 128.241 106.74 128.241C106.673 128.074 106.623 127.891 106.59 127.691C106.59 127.491 106.556 127.307 106.49 127.141C107.556 126.774 108.606 126.407 109.64 126.041C110.706 125.674 111.773 125.307 112.84 124.941V128.491C115.673 126.157 118.556 124.991 121.49 124.991C123.523 124.991 125.04 125.574 126.04 126.741C127.04 127.941 127.54 129.641 127.54 131.841V144.241C127.54 145.274 127.74 145.957 128.14 146.291C128.406 146.457 128.773 146.591 129.24 146.691C129.706 146.824 130.273 146.891 130.94 146.891V148.491ZM156.072 143.591C156.238 143.724 156.388 143.841 156.522 143.941C156.688 144.041 156.855 144.141 157.022 144.241C156.422 145.641 155.605 146.807 154.572 147.741C153.405 148.841 152.138 149.391 150.772 149.391C148.972 149.391 147.605 148.741 146.672 147.441C146.405 146.974 146.188 146.441 146.022 145.841C145.855 145.241 145.772 144.574 145.772 143.841V127.291H141.872V125.691C143.672 125.691 145.005 125.007 145.872 123.641C146.838 122.074 147.322 119.841 147.322 116.941H148.822V125.341H155.372V127.291H148.822V144.191C148.822 145.957 149.755 146.841 151.622 146.841C153.122 146.841 154.605 145.757 156.072 143.591ZM181.16 148.491H171.26V146.841C172.627 146.841 173.594 146.657 174.16 146.291C174.56 145.957 174.76 145.357 174.76 144.491V132.041C174.76 129.041 173.144 127.541 169.91 127.541C167.61 127.541 165.244 128.507 162.81 130.441V144.491C162.81 145.357 163.027 145.957 163.46 146.291C164.027 146.657 164.96 146.841 166.26 146.841V148.491H156.46V146.841C157.727 146.841 158.644 146.657 159.21 146.291C159.577 145.924 159.76 145.324 159.76 144.491V118.941C159.76 118.007 159.594 117.391 159.26 117.091C158.894 116.757 158.01 116.591 156.61 116.591C156.577 116.424 156.544 116.274 156.51 116.141C156.51 115.974 156.494 115.807 156.46 115.641C157.527 115.207 158.577 114.791 159.61 114.391C160.677 113.957 161.744 113.524 162.81 113.091V128.291C165.677 126.024 168.427 124.891 171.06 124.891C173.26 124.891 174.944 125.457 176.11 126.591C177.244 127.757 177.81 129.407 177.81 131.541V144.491C177.81 145.391 177.994 145.991 178.36 146.291C179.027 146.657 179.96 146.841 181.16 146.841V148.491ZM201.578 142.491C201.744 142.624 201.911 142.757 202.078 142.891C202.278 143.024 202.461 143.157 202.628 143.291C201.828 144.491 200.944 145.491 199.978 146.291C199.011 147.091 197.977 147.757 196.877 148.291C195.378 149.024 193.761 149.391 192.027 149.391C188.727 149.391 186.027 148.341 183.927 146.241C181.694 144.007 180.577 140.991 180.577 137.191C180.577 133.524 181.644 130.574 183.777 128.341C185.877 126.041 188.544 124.891 191.778 124.891C195.011 124.891 197.561 125.824 199.427 127.691C201.427 129.591 202.428 132.341 202.428 135.941C199.328 136.041 196.278 136.157 193.278 136.291C190.277 136.391 187.211 136.491 184.077 136.591C184.077 136.724 184.061 136.857 184.027 136.991C184.027 137.091 184.027 137.207 184.027 137.341C184.027 138.741 184.211 140.007 184.577 141.141C184.977 142.274 185.544 143.291 186.278 144.191C187.811 146.191 189.961 147.191 192.727 147.191C194.194 147.191 195.727 146.807 197.328 146.041C198.061 145.607 198.778 145.107 199.478 144.541C200.211 143.941 200.911 143.257 201.578 142.491ZM184.177 134.691C186.677 134.624 189.144 134.541 191.577 134.441C194.011 134.341 196.478 134.257 198.977 134.191C198.944 131.991 198.261 130.224 196.928 128.891C195.561 127.424 193.844 126.691 191.778 126.691C189.777 126.691 188.027 127.491 186.527 129.091C185.127 130.557 184.344 132.424 184.177 134.691ZM239.952 139.541C239.952 142.607 238.918 144.991 236.852 146.691C234.885 148.457 232.218 149.341 228.852 149.341C227.718 149.341 226.485 149.207 225.152 148.941C223.818 148.674 222.568 148.291 221.402 147.791C220.835 147.957 220.268 148.141 219.702 148.341C219.168 148.541 218.668 148.774 218.202 149.041C217.602 147.441 216.985 145.874 216.352 144.341C215.752 142.807 215.152 141.241 214.552 139.641C214.785 139.507 215.002 139.391 215.202 139.291C215.402 139.157 215.618 139.041 215.852 138.941C217.485 141.574 219.068 143.457 220.602 144.591C221.102 144.991 221.685 145.357 222.352 145.691C223.052 146.024 223.768 146.307 224.502 146.541C225.235 146.807 225.968 147.007 226.702 147.141C227.435 147.274 228.102 147.341 228.702 147.341C229.968 147.341 231.102 147.174 232.102 146.841C233.102 146.507 233.935 146.041 234.602 145.441C236.002 144.141 236.702 142.424 236.702 140.291C236.702 139.491 236.518 138.707 236.152 137.941C235.785 137.141 235.302 136.491 234.702 135.991C233.368 134.924 230.752 133.724 226.852 132.391C223.752 131.291 221.302 130.007 219.502 128.541C217.102 126.707 215.902 124.474 215.902 121.841C215.902 119.141 216.868 116.974 218.802 115.341C220.668 113.707 223.102 112.891 226.102 112.891C227.535 112.891 228.935 113.091 230.302 113.491C230.668 113.624 231.018 113.757 231.352 113.891C231.718 114.024 232.052 114.157 232.352 114.291L235.352 113.291C235.952 114.824 236.552 116.341 237.152 117.841C237.752 119.341 238.352 120.857 238.952 122.391C238.585 122.557 238.218 122.741 237.852 122.941C236.452 120.541 234.852 118.641 233.052 117.241C230.885 115.641 228.552 114.841 226.052 114.841C225.185 114.841 224.385 114.974 223.652 115.241C222.918 115.474 222.252 115.791 221.652 116.191C220.818 116.757 220.168 117.474 219.702 118.341C219.235 119.207 219.002 120.224 219.002 121.391C219.002 123.291 219.985 124.874 221.952 126.141C222.952 126.741 223.918 127.257 224.852 127.691C225.785 128.091 226.985 128.524 228.452 128.991C230.485 129.657 232.202 130.341 233.602 131.041C235.002 131.741 236.118 132.424 236.952 133.091C238.952 134.691 239.952 136.841 239.952 139.541ZM263.507 136.941C263.507 140.674 262.457 143.641 260.357 145.841C258.39 147.841 255.99 148.841 253.157 148.841C250.323 148.841 248.14 148.174 246.607 146.841V151.841C246.607 152.707 246.84 153.341 247.307 153.741C247.873 154.174 248.707 154.391 249.807 154.391V156.041H240.307V154.391C241.64 154.391 242.54 154.174 243.007 153.741C243.34 153.407 243.507 152.774 243.507 151.841V130.291C243.507 130.124 243.473 129.874 243.407 129.541C243.373 129.274 243.273 129.057 243.107 128.891C242.773 128.557 241.907 128.391 240.507 128.391C240.473 128.224 240.44 128.041 240.407 127.841C240.407 127.641 240.39 127.457 240.357 127.291C241.423 126.924 242.473 126.557 243.507 126.191C244.54 125.791 245.573 125.407 246.607 125.041V127.041C248.34 125.707 250.573 125.041 253.307 125.041C256.273 125.041 258.69 126.074 260.557 128.141C262.523 130.407 263.507 133.341 263.507 136.941ZM260.157 136.991C260.157 134.091 259.407 131.741 257.907 129.941C256.44 128.074 254.54 127.141 252.207 127.141C249.873 127.141 248.007 127.891 246.607 129.391V144.341C248.007 145.941 249.873 146.741 252.207 146.741C254.407 146.741 256.257 145.841 257.757 144.041C259.357 142.141 260.157 139.791 260.157 136.991ZM285.745 137.141C285.745 140.874 284.678 143.857 282.545 146.091C280.512 148.324 277.912 149.441 274.745 149.441C271.545 149.441 268.928 148.324 266.895 146.091C264.762 143.857 263.695 140.874 263.695 137.141C263.695 133.407 264.762 130.424 266.895 128.191C268.928 125.957 271.545 124.841 274.745 124.841C277.912 124.841 280.512 125.957 282.545 128.191C284.678 130.424 285.745 133.407 285.745 137.141ZM282.345 137.141C282.345 134.074 281.612 131.557 280.145 129.591C278.778 127.624 276.978 126.641 274.745 126.641C272.545 126.641 270.712 127.624 269.245 129.591C267.812 131.557 267.095 134.074 267.095 137.141C267.095 140.174 267.795 142.691 269.195 144.691C270.628 146.624 272.478 147.591 274.745 147.591C276.912 147.591 278.712 146.624 280.145 144.691C281.612 142.724 282.345 140.207 282.345 137.141ZM299.851 143.591C300.018 143.724 300.168 143.841 300.301 143.941C300.468 144.041 300.634 144.141 300.801 144.241C300.201 145.641 299.384 146.807 298.351 147.741C297.184 148.841 295.918 149.391 294.551 149.391C292.751 149.391 291.384 148.741 290.451 147.441C290.184 146.974 289.968 146.441 289.801 145.841C289.634 145.241 289.551 144.574 289.551 143.841V127.291H285.651V125.691C287.451 125.691 288.784 125.007 289.651 123.641C290.618 122.074 291.101 119.841 291.101 116.941H292.601V125.341H299.151V127.291H292.601V144.191C292.601 145.957 293.534 146.841 295.401 146.841C296.901 146.841 298.384 145.757 299.851 143.591Z" fill="#FAF5EE"/>
</svg>
