<svg width="100" height="100" viewBox="0 0 100 100" fill="none" xmlns="http://www.w3.org/2000/svg">
<circle cx="50" cy="50" r="50" fill="#0D2610"/>
<path d="M60.2514 54.7C59.8514 56.2 59.4514 57.7 59.0514 59.2C58.6847 60.7 58.3014 62.2 57.9014 63.7H38.4514C38.4514 63.5333 38.4347 63.4 38.4014 63.3C38.4014 63.2 38.4014 63.0833 38.4014 62.95C38.4014 61.0833 39.5514 58.6833 41.8514 55.75C42.5514 54.8833 43.218 54.0833 43.8514 53.35C44.518 52.5833 45.1847 51.85 45.8514 51.15C46.5514 50.45 47.268 49.75 48.0014 49.05C48.7347 48.35 49.5514 47.6 50.4514 46.8C51.1847 46.1333 51.868 45.3833 52.5014 44.55C53.1347 43.7167 53.6847 42.85 54.1514 41.95C54.618 41.0167 54.9847 40.0833 55.2514 39.15C55.5514 38.1833 55.7014 37.2667 55.7014 36.4C55.7014 35.4333 55.5847 34.55 55.3514 33.75C55.118 32.9167 54.718 32.2 54.1514 31.6C53.4847 30.8667 52.7347 30.3167 51.9014 29.95C51.068 29.55 50.068 29.35 48.9014 29.35C47.168 29.35 45.5847 29.8667 44.1514 30.9C43.418 31.4333 42.8347 32.0167 42.4014 32.65C42.0014 33.2833 41.8014 33.9667 41.8014 34.7C41.8014 35.3 42.0347 35.8833 42.5014 36.45C42.7347 36.7167 42.9014 37.0333 43.0014 37.4C43.1347 37.7333 43.2014 38.2 43.2014 38.8C43.2014 39.3333 42.9847 39.7833 42.5514 40.15C42.1514 40.5167 41.6347 40.7 41.0014 40.7C40.0347 40.7 39.3847 40.35 39.0514 39.65C38.718 38.95 38.5514 37.9667 38.5514 36.7C38.5514 34.8667 39.1514 33.1833 40.3514 31.65C40.9514 30.8833 41.618 30.2 42.3514 29.6C43.0847 29 43.9014 28.55 44.8014 28.25C46.2014 27.75 47.6847 27.5 49.2514 27.5C52.1847 27.5 54.5347 28.3 56.3014 29.9C58.168 31.5667 59.1014 33.8667 59.1014 36.8C59.1014 37.9 58.918 39 58.5514 40.1C58.218 41.2 57.668 42.2833 56.9014 43.35C56.1014 44.5167 55.168 45.6833 54.1014 46.85C53.0347 48.0167 51.868 49.1833 50.6014 50.35C49.968 50.9167 49.2347 51.55 48.4014 52.25C47.568 52.95 46.618 53.8 45.5514 54.8C43.8847 56.3667 42.518 58.25 41.4514 60.45H52.0014C53.668 60.45 54.9847 60.05 55.9514 59.25C56.8847 58.55 57.8847 56.9167 58.9514 54.35L60.2514 54.7ZM61.1068 62.95C61.1068 62.1833 61.3568 61.5333 61.8568 61C62.3902 60.5 63.0068 60.25 63.7068 60.25C64.4735 60.25 65.1068 60.5 65.6068 61C66.1402 61.5333 66.4068 62.1833 66.4068 62.95C66.4068 63.65 66.1402 64.25 65.6068 64.75C65.1068 65.2833 64.4735 65.55 63.7068 65.55C63.0068 65.55 62.3902 65.2833 61.8568 64.75C61.3568 64.25 61.1068 63.65 61.1068 62.95Z" fill="#FAF5EE"/>
</svg>
