<svg width="893" height="44" viewBox="0 0 893 44" fill="none" xmlns="http://www.w3.org/2000/svg">
<path d="M7.84839 29.8709C28.7149 19.4377 48.3959 10.344 72.0829 8.49753C90.7572 7.04185 110.238 8.98373 128.202 14.2695C146.849 19.756 164.783 27.1214 183.865 31.1853C226.143 40.1898 268.303 24.0946 309.876 18.1556C352.167 12.1141 391.728 26.9189 433.716 27.6993C456.986 28.1318 479.557 25.0206 502.237 19.9843C526.532 14.5894 550.819 8.06663 575.958 9.35475C596.014 10.3824 608.528 11.1302 625 22C638.13 30.6642 655.962 36.175 672.5 35.5C693.192 34.6554 713.214 29.9319 732 22C751.922 13.5886 772.46 10.1414 794.378 8.21179C825.73 5.45173 855.24 19.0079 885.301 25.7563" stroke="#FFA665" stroke-width="15" stroke-linecap="round"/>
</svg>
