<svg width="530" height="178" viewBox="0 0 530 178" fill="none" xmlns="http://www.w3.org/2000/svg">
<path d="M522.338 49.0543C449.349 49.0543 376.608 46.9732 303.635 50.4481C235.394 53.6977 168.164 61.6081 100.391 69.5814" stroke="#FFA665" stroke-width="15" stroke-linecap="round"/>
<path d="M192.763 8C188.518 9.99762 185.836 13.0319 181.93 15.9194C162.09 30.5836 141.765 43.6734 122.439 59.0011C121.54 59.714 108.693 70.0735 109.768 71.6088C111.746 74.435 129.141 74.6126 130.168 74.7132C177.855 79.3835 225.095 86.0093 272.591 92.3893" stroke="#FFA665" stroke-width="15" stroke-linecap="round"/>
<circle cx="50" cy="128" r="50" fill="#0D2610"/>
<path d="M19.5771 109.579V112.08H17.7173V109.579H15.2227V107.725H17.7173V105.224H19.5771V107.725H22.0718V109.579H19.5771ZM23.5508 113V111.438C24.6849 110.918 25.6688 110.452 26.5024 110.042C27.3403 109.632 28.0322 109.259 28.5781 108.925C29.1283 108.59 29.5366 108.286 29.8032 108.011C30.0698 107.731 30.2031 107.463 30.2031 107.205C30.2031 107.133 30.1947 107.052 30.1777 106.963C30.165 106.87 30.1312 106.777 30.0762 106.684C30.0254 106.587 29.9492 106.492 29.8477 106.398C29.7461 106.305 29.6064 106.225 29.4287 106.157C29.251 106.085 29.0309 106.028 28.7686 105.986C28.5062 105.939 28.1888 105.916 27.8164 105.916C27.4736 105.916 27.116 105.939 26.7437 105.986C26.3713 106.028 26.0031 106.09 25.6392 106.17C25.2752 106.25 24.924 106.348 24.5854 106.462C24.2469 106.576 23.9359 106.705 23.6523 106.849V104.773C24.2363 104.57 24.8838 104.401 25.5947 104.266C26.3099 104.126 27.0632 104.056 27.8545 104.056C28.5951 104.056 29.2573 104.122 29.8413 104.253C30.4253 104.384 30.9183 104.575 31.3203 104.824C31.7266 105.07 32.0355 105.37 32.2471 105.726C32.4629 106.077 32.5708 106.475 32.5708 106.919C32.5708 107.164 32.5433 107.395 32.4883 107.611C32.4375 107.822 32.3444 108.03 32.209 108.233C32.0736 108.436 31.8895 108.641 31.6567 108.849C31.4282 109.052 31.1362 109.268 30.7808 109.496C30.4295 109.725 30.0085 109.972 29.5176 110.239C29.0267 110.501 28.4554 110.793 27.8037 111.115H32.7549V113H23.5508ZM50.4521 108.633C50.4521 109.191 50.3908 109.689 50.2681 110.125C50.1453 110.556 49.9718 110.933 49.7476 111.254C49.5275 111.576 49.2609 111.849 48.9478 112.073C48.6388 112.298 48.2939 112.477 47.9131 112.613C47.5322 112.748 47.1217 112.848 46.6816 112.911C46.2415 112.97 45.7824 113 45.3042 113H39.769V104.278H45.2915C45.7697 104.278 46.2288 104.31 46.6689 104.374C47.109 104.433 47.5195 104.53 47.9004 104.666C48.2855 104.801 48.6346 104.981 48.9478 105.205C49.2609 105.425 49.5275 105.698 49.7476 106.024C49.9718 106.346 50.1453 106.722 50.2681 107.154C50.3908 107.585 50.4521 108.078 50.4521 108.633ZM48.0781 108.633C48.0781 108.214 48.0231 107.85 47.9131 107.541C47.8073 107.232 47.6338 106.978 47.3926 106.779C47.1556 106.576 46.8446 106.426 46.4595 106.329C46.0744 106.227 45.6047 106.176 45.0503 106.176H42.124V111.102H45.0503C45.6047 111.102 46.0744 111.053 46.4595 110.956C46.8446 110.854 47.1556 110.702 47.3926 110.499C47.6338 110.292 47.8073 110.034 47.9131 109.725C48.0231 109.416 48.0781 109.052 48.0781 108.633ZM59.6118 111.35H54.7495L53.9307 113H51.3027L55.8667 104.278H58.4946L63.0586 113H60.4307L59.6118 111.35ZM55.5938 109.648H58.7803L57.1934 106.437L55.5938 109.648ZM69.2603 109.439V113H66.9116V109.439L62.6841 104.278H65.3247L68.0923 107.789L70.8472 104.278H73.4878L69.2603 109.439ZM83.1489 106.735C82.9839 106.654 82.766 106.563 82.4951 106.462C82.2243 106.36 81.9175 106.265 81.5747 106.176C81.2319 106.083 80.8595 106.007 80.4575 105.948C80.0555 105.884 79.6429 105.853 79.2197 105.853C78.8812 105.853 78.5913 105.863 78.3501 105.884C78.1131 105.905 77.9121 105.933 77.7471 105.967C77.5863 106.001 77.4572 106.041 77.3599 106.087C77.2668 106.13 77.1948 106.174 77.144 106.221C77.0933 106.267 77.0594 106.314 77.0425 106.36C77.0298 106.407 77.0234 106.449 77.0234 106.487C77.0234 106.614 77.0869 106.726 77.2139 106.824C77.3408 106.917 77.5143 107.001 77.7344 107.078C77.9544 107.15 78.2104 107.219 78.5024 107.287C78.7944 107.351 79.1034 107.418 79.4292 107.49C79.7593 107.558 80.0978 107.634 80.4448 107.719C80.7961 107.799 81.1346 107.894 81.4604 108.004C81.7905 108.114 82.1016 108.243 82.3936 108.392C82.6855 108.535 82.9416 108.705 83.1616 108.899C83.3817 109.094 83.5552 109.318 83.6821 109.572C83.8091 109.826 83.8726 110.116 83.8726 110.442C83.8726 110.861 83.7985 111.221 83.6504 111.521C83.5023 111.821 83.3034 112.075 83.0537 112.283C82.8083 112.49 82.5226 112.657 82.1968 112.784C81.8709 112.907 81.5282 113.002 81.1685 113.07C80.813 113.138 80.4512 113.182 80.083 113.203C79.7191 113.224 79.3721 113.235 79.042 113.235C78.1787 113.235 77.3789 113.163 76.6426 113.019C75.9105 112.879 75.263 112.704 74.7002 112.492V110.41C75.2799 110.732 75.9401 110.984 76.6807 111.166C77.4255 111.347 78.221 111.438 79.0674 111.438C79.5667 111.438 79.973 111.413 80.2861 111.362C80.6035 111.307 80.8511 111.24 81.0288 111.159C81.2065 111.075 81.3271 110.984 81.3906 110.886C81.4541 110.789 81.4858 110.696 81.4858 110.607C81.4858 110.467 81.4224 110.347 81.2954 110.245C81.1685 110.139 80.995 110.048 80.7749 109.972C80.5549 109.892 80.2988 109.82 80.0068 109.756C79.7148 109.689 79.4038 109.623 79.0737 109.56C78.7479 109.492 78.4115 109.42 78.0645 109.344C77.7174 109.268 77.3789 109.179 77.0488 109.077C76.723 108.971 76.4141 108.851 76.1221 108.715C75.8301 108.576 75.5741 108.413 75.354 108.227C75.134 108.036 74.9604 107.818 74.8335 107.573C74.7065 107.323 74.6431 107.035 74.6431 106.709C74.6431 106.324 74.7108 105.992 74.8462 105.713C74.9816 105.434 75.1636 105.197 75.3921 105.002C75.6248 104.803 75.8914 104.642 76.1919 104.52C76.4966 104.397 76.8161 104.302 77.1504 104.234C77.4847 104.166 77.8232 104.12 78.166 104.094C78.5088 104.069 78.8346 104.056 79.1436 104.056C79.4821 104.056 79.8291 104.073 80.1846 104.107C80.5443 104.141 80.8976 104.189 81.2446 104.253C81.5916 104.312 81.9259 104.382 82.2476 104.462C82.5734 104.543 82.8739 104.627 83.1489 104.716V106.735ZM30.0762 125.35H25.2139L24.395 127H21.7671L26.3311 118.278H28.959L33.5229 127H30.895L30.0762 125.35ZM26.0581 123.648H29.2446L27.6577 120.437L26.0581 123.648ZM37.3062 120.138V121.655H42.9746V123.515H37.3062V127H34.9512V118.278H43.2856V120.138H37.3062ZM50.1855 120.176V127H47.8306V120.176H44.1299V118.278H53.8926V120.176H50.1855ZM55.4541 127V118.278H64.2837V120.138H57.8726V121.579H63.9536V123.439H57.8726V125.14H64.3726V127H55.4541ZM69.0063 127H66.6514V118.278H72.5547C73.1895 118.278 73.7269 118.344 74.167 118.475C74.6113 118.606 74.971 118.792 75.2461 119.034C75.5254 119.275 75.7264 119.567 75.8491 119.91C75.9761 120.248 76.0396 120.627 76.0396 121.046C76.0396 121.414 75.9867 121.736 75.8809 122.011C75.7793 122.286 75.6396 122.523 75.4619 122.722C75.2884 122.916 75.0853 123.081 74.8525 123.217C74.6198 123.352 74.3743 123.464 74.1162 123.553L76.9727 127H74.2178L71.5771 123.788H69.0063V127ZM73.6592 121.033C73.6592 120.864 73.6359 120.72 73.5894 120.602C73.547 120.483 73.4709 120.388 73.3608 120.316C73.2508 120.24 73.1027 120.185 72.9165 120.151C72.7345 120.117 72.506 120.1 72.231 120.1H69.0063V121.966H72.231C72.506 121.966 72.7345 121.949 72.9165 121.916C73.1027 121.882 73.2508 121.829 73.3608 121.757C73.4709 121.681 73.547 121.583 73.5894 121.465C73.6359 121.346 73.6592 121.202 73.6592 121.033ZM32.0884 141V132.278H40.918V134.138H34.5068V135.579H40.5879V137.439H34.5068V139.14H41.0068V141H32.0884ZM51.5249 141L45.6406 135.008V141H43.2856V132.278H45.8438L51.7344 138.296V132.278H54.0767V141H51.5249ZM67.4893 136.633C67.4893 137.191 67.4279 137.689 67.3052 138.125C67.1825 138.556 67.009 138.933 66.7847 139.254C66.5646 139.576 66.298 139.849 65.9849 140.073C65.6759 140.298 65.3311 140.477 64.9502 140.613C64.5693 140.748 64.1589 140.848 63.7188 140.911C63.2786 140.97 62.8195 141 62.3413 141H56.8062V132.278H62.3286C62.8068 132.278 63.266 132.31 63.7061 132.374C64.1462 132.433 64.5566 132.53 64.9375 132.666C65.3226 132.801 65.6717 132.981 65.9849 133.205C66.298 133.425 66.5646 133.698 66.7847 134.024C67.009 134.346 67.1825 134.722 67.3052 135.154C67.4279 135.585 67.4893 136.078 67.4893 136.633ZM65.1152 136.633C65.1152 136.214 65.0602 135.85 64.9502 135.541C64.8444 135.232 64.6709 134.978 64.4297 134.779C64.1927 134.576 63.8817 134.426 63.4966 134.329C63.1115 134.227 62.6418 134.176 62.0874 134.176H59.1611V139.102H62.0874C62.6418 139.102 63.1115 139.053 63.4966 138.956C63.8817 138.854 64.1927 138.702 64.4297 138.499C64.6709 138.292 64.8444 138.034 64.9502 137.725C65.0602 137.416 65.1152 137.052 65.1152 136.633ZM38.7661 150.633C38.7661 151.191 38.7048 151.689 38.582 152.125C38.4593 152.556 38.2858 152.933 38.0615 153.254C37.8415 153.576 37.5749 153.849 37.2617 154.073C36.9528 154.298 36.6079 154.477 36.2271 154.613C35.8462 154.748 35.4357 154.848 34.9956 154.911C34.5555 154.97 34.0964 155 33.6182 155H28.083V146.278H33.6055C34.0837 146.278 34.5428 146.31 34.9829 146.374C35.423 146.433 35.8335 146.53 36.2144 146.666C36.5994 146.801 36.9486 146.981 37.2617 147.205C37.5749 147.425 37.8415 147.698 38.0615 148.024C38.2858 148.346 38.4593 148.722 38.582 149.154C38.7048 149.585 38.7661 150.078 38.7661 150.633ZM36.3921 150.633C36.3921 150.214 36.3371 149.85 36.2271 149.541C36.1213 149.232 35.9478 148.978 35.7065 148.779C35.4696 148.576 35.1585 148.426 34.7734 148.329C34.3883 148.227 33.9186 148.176 33.3643 148.176H30.438V153.102H33.3643C33.9186 153.102 34.3883 153.053 34.7734 152.956C35.1585 152.854 35.4696 152.702 35.7065 152.499C35.9478 152.292 36.1213 152.034 36.2271 151.725C36.3371 151.416 36.3921 151.052 36.3921 150.633ZM47.9258 153.35H43.0635L42.2446 155H39.6167L44.1807 146.278H46.8086L51.3726 155H48.7446L47.9258 153.35ZM43.9077 151.648H47.0942L45.5073 148.437L43.9077 151.648ZM57.1807 148.176V155H54.8257V148.176H51.125V146.278H60.8877V148.176H57.1807ZM62.4492 155V146.278H71.2788V148.138H64.8677V149.579H70.9487V151.439H64.8677V153.14H71.3677V155H62.4492Z" fill="#FAF5EE"/>
</svg>
