<svg width="850" height="757" viewBox="0 0 850 757" fill="none" xmlns="http://www.w3.org/2000/svg">
<path d="M656.5 38.5C708.5 72.5 818.5 209.5 805 402.5" stroke="#0D2610" stroke-width="15" stroke-linecap="round"/>
<path d="M636.5 679.5C550.333 748.5 314.5 801 149.5 658" stroke="#0D2610" stroke-width="15" stroke-linecap="round"/>
<path d="M28.4998 473.5C-13.0002 372.333 -6.49959 126 191 22" stroke="#0D2610" stroke-width="15" stroke-linecap="round"/>
<path d="M142 15.2503C150.275 14.498 158.538 12.6434 166.735 11.3122C175.92 9.82072 187.68 6.47178 196.946 8.79938C201.722 9.99926 203.322 13.4285 203.322 18.082C203.322 23.8225 201.866 29.5833 200.565 35.1283C197.991 46.0998 195.098 56.9943 192.295 67.9081" stroke="#0D2610" stroke-width="15" stroke-linecap="round"/>
<path d="M783 358C783.171 359.628 783.861 361.265 784.379 362.787C786.012 367.585 787.736 372.348 789.274 377.177C790.952 382.443 792.738 387.673 794.623 392.868C796.13 397.023 797.545 401.423 800.099 405.082C801.02 406.4 802.343 408.145 803.921 408.746C806.411 409.694 809.089 405.871 810.303 404.372C815.68 397.735 820.053 390.296 824.999 383.343C830.395 375.758 836.305 368.74 842.394 361.723" stroke="#0D2610" stroke-width="15" stroke-linecap="round"/>
<path d="M158.971 712.956C154.543 706.973 152.683 698.803 150.646 691.754C147.329 680.27 144.733 668.462 142.518 656.715C141.368 650.612 141.603 646.953 148.85 648.266C165.15 651.22 180.906 657.981 196.749 662.691" stroke="#0D2610" stroke-width="15" stroke-linecap="round"/>
</svg>
