<svg width="1009" height="369" viewBox="0 0 1009 369" fill="none" xmlns="http://www.w3.org/2000/svg">
<rect width="1009" height="369" fill="#FFFCF8"/>
<path d="M329.118 84.2031C329.118 85.3766 328.947 86.459 328.605 87.4502C328.263 88.43 327.711 89.2788 326.948 89.9966C326.196 90.703 325.216 91.2555 324.008 91.6543C322.8 92.0531 321.331 92.2524 319.599 92.2524H309.072V99.6694H302.731V76.188H319.599C321.331 76.188 322.8 76.3874 324.008 76.7861C325.216 77.1735 326.196 77.7261 326.948 78.4438C327.711 79.1502 328.263 79.9933 328.605 80.9731C328.947 81.953 329.118 83.0296 329.118 84.2031ZM322.709 84.3057C322.709 83.7588 322.63 83.2917 322.47 82.9043C322.322 82.5055 322.071 82.1808 321.718 81.9302C321.365 81.6795 320.903 81.4972 320.334 81.3833C319.764 81.258 319.063 81.1953 318.232 81.1953H309.072V87.2451H318.232C319.063 87.2451 319.764 87.1995 320.334 87.1084C320.903 87.0059 321.365 86.8407 321.718 86.6128C322.071 86.3735 322.322 86.0659 322.47 85.6899C322.63 85.314 322.709 84.8525 322.709 84.3057ZM362.101 91.7568C362.101 92.9303 361.811 94.0355 361.23 95.0723C360.649 96.109 359.777 97.0148 358.615 97.7896C357.453 98.5643 356 99.1795 354.257 99.6353C352.525 100.08 350.497 100.302 348.173 100.302C345.849 100.302 343.81 100.08 342.055 99.6353C340.312 99.1795 338.859 98.5643 337.697 97.7896C336.535 97.0148 335.663 96.109 335.082 95.0723C334.501 94.0355 334.211 92.9303 334.211 91.7568V76.188H340.534V89.4839C340.534 90.27 340.631 91.0163 340.825 91.7227C341.03 92.4176 341.406 93.0272 341.952 93.5513C342.511 94.0754 343.285 94.4912 344.277 94.7988C345.279 95.1064 346.578 95.2603 348.173 95.2603C349.757 95.2603 351.044 95.1064 352.035 94.7988C353.027 94.4912 353.796 94.0754 354.343 93.5513C354.901 93.0272 355.277 92.4176 355.471 91.7227C355.664 91.0163 355.761 90.27 355.761 89.4839V76.188H362.101V91.7568ZM375.619 99.6694H369.279V76.188H385.173C386.882 76.188 388.329 76.3646 389.513 76.7178C390.71 77.071 391.678 77.5723 392.419 78.2217C393.171 78.8711 393.712 79.6572 394.042 80.5801C394.384 81.4915 394.555 82.5112 394.555 83.6392C394.555 84.6304 394.413 85.4963 394.128 86.2368C393.854 86.9774 393.478 87.6154 393 88.1509C392.533 88.675 391.986 89.1193 391.359 89.4839C390.733 89.8485 390.072 90.1504 389.377 90.3896L397.067 99.6694H389.65L382.541 91.022H375.619V99.6694ZM388.146 83.605C388.146 83.1493 388.084 82.7619 387.958 82.4429C387.844 82.1239 387.639 81.8675 387.343 81.6738C387.047 81.4688 386.648 81.3206 386.147 81.2295C385.657 81.1383 385.042 81.0928 384.301 81.0928H375.619V86.1172H384.301C385.042 86.1172 385.657 86.0716 386.147 85.9805C386.648 85.8893 387.047 85.7469 387.343 85.5532C387.639 85.3481 387.844 85.0861 387.958 84.7671C388.084 84.4481 388.146 84.0607 388.146 83.605ZM427.316 98.063C426.496 98.4048 425.67 98.7124 424.838 98.9858C424.006 99.2593 423.146 99.4928 422.258 99.6865C421.369 99.8916 420.429 100.045 419.438 100.148C418.458 100.25 417.404 100.302 416.276 100.302C413.884 100.302 411.679 100.045 409.662 99.5327C407.657 99.02 405.925 98.251 404.467 97.2256C403.02 96.1888 401.892 94.9014 401.083 93.3633C400.274 91.8138 399.87 90.008 399.87 87.9458C399.87 85.8836 400.274 84.0835 401.083 82.5454C401.892 80.9959 403.02 79.7085 404.467 78.6831C405.925 77.6463 407.657 76.8716 409.662 76.3589C411.679 75.8462 413.884 75.5898 416.276 75.5898C417.404 75.5898 418.458 75.6411 419.438 75.7437C420.429 75.8462 421.369 76 422.258 76.2051C423.146 76.3988 424.006 76.6323 424.838 76.9058C425.67 77.1792 426.496 77.4868 427.316 77.8286V83.5366C426.667 83.1834 425.983 82.8359 425.265 82.4941C424.548 82.141 423.756 81.8276 422.89 81.5542C422.024 81.2694 421.073 81.0415 420.036 80.8706C418.999 80.6883 417.831 80.5972 416.533 80.5972C414.539 80.5972 412.881 80.8022 411.559 81.2124C410.249 81.6226 409.201 82.1694 408.415 82.853C407.629 83.5366 407.076 84.3228 406.757 85.2114C406.438 86.0887 406.279 87.0002 406.279 87.9458C406.279 88.5724 406.347 89.1934 406.484 89.8086C406.62 90.4124 406.848 90.9878 407.167 91.5347C407.486 92.0701 407.902 92.5658 408.415 93.0215C408.928 93.4772 409.566 93.8703 410.329 94.2007C411.092 94.5311 411.981 94.7931 412.995 94.9868C414.02 95.1691 415.2 95.2603 416.533 95.2603C417.831 95.2603 418.999 95.1805 420.036 95.021C421.073 94.8501 422.024 94.6279 422.89 94.3545C423.756 94.0811 424.548 93.7734 425.265 93.4316C425.983 93.0785 426.667 92.7196 427.316 92.355V98.063ZM455.702 99.6694V89.877H439.57V99.6694H433.229V76.188H439.57V84.7329H455.702V76.188H462.043V99.6694H455.702ZM488.259 95.2261H475.168L472.963 99.6694H465.888L478.176 76.188H485.251L497.538 99.6694H490.463L488.259 95.2261ZM477.441 90.646H486.02L481.747 81.9985L477.441 90.646ZM523.019 82.8018C522.575 82.5853 521.988 82.3403 521.259 82.0669C520.53 81.7935 519.704 81.5371 518.781 81.2979C517.858 81.0472 516.856 80.8421 515.773 80.6826C514.691 80.5117 513.58 80.4263 512.441 80.4263C511.529 80.4263 510.749 80.4548 510.099 80.5117C509.461 80.5687 508.92 80.6427 508.476 80.7339C508.043 80.825 507.695 80.9333 507.433 81.0586C507.183 81.1725 506.989 81.2922 506.852 81.4175C506.716 81.5428 506.624 81.6681 506.579 81.7935C506.545 81.9188 506.528 82.0327 506.528 82.1353C506.528 82.4771 506.699 82.779 507.04 83.041C507.382 83.2917 507.849 83.5195 508.442 83.7246C509.034 83.9183 509.723 84.1063 510.51 84.2886C511.296 84.4595 512.127 84.6418 513.005 84.8354C513.893 85.0177 514.805 85.2228 515.739 85.4507C516.685 85.6672 517.596 85.9235 518.473 86.2197C519.362 86.516 520.2 86.8634 520.986 87.2622C521.772 87.6496 522.461 88.1053 523.054 88.6294C523.646 89.1535 524.113 89.7573 524.455 90.4409C524.797 91.1245 524.968 91.9049 524.968 92.7822C524.968 93.9102 524.768 94.8786 524.369 95.6875C523.971 96.4964 523.435 97.18 522.763 97.7383C522.102 98.2965 521.333 98.7466 520.456 99.0884C519.579 99.4188 518.656 99.6751 517.687 99.8574C516.73 100.04 515.756 100.159 514.765 100.216C513.785 100.273 512.851 100.302 511.962 100.302C509.638 100.302 507.485 100.108 505.502 99.7207C503.531 99.3447 501.788 98.8719 500.273 98.3022V92.6968C501.834 93.5627 503.611 94.2406 505.605 94.7305C507.61 95.2204 509.752 95.4653 512.031 95.4653C513.375 95.4653 514.469 95.397 515.312 95.2603C516.166 95.1121 516.833 94.9299 517.311 94.7134C517.79 94.4855 518.115 94.2406 518.285 93.9785C518.456 93.7165 518.542 93.4658 518.542 93.2266C518.542 92.8506 518.371 92.5259 518.029 92.2524C517.687 91.9676 517.22 91.7227 516.628 91.5176C516.035 91.3011 515.346 91.1074 514.56 90.9365C513.774 90.7542 512.936 90.5776 512.048 90.4067C511.17 90.2244 510.265 90.0308 509.33 89.8257C508.396 89.6206 507.485 89.3813 506.596 89.1079C505.719 88.8231 504.887 88.4984 504.101 88.1338C503.315 87.7578 502.625 87.3192 502.033 86.8179C501.441 86.3052 500.973 85.7184 500.632 85.0576C500.29 84.3854 500.119 83.6107 500.119 82.7334C500.119 81.6966 500.301 80.8022 500.666 80.0503C501.03 79.2983 501.52 78.6603 502.136 78.1362C502.762 77.6007 503.48 77.1678 504.289 76.8374C505.109 76.507 505.969 76.2507 506.869 76.0684C507.77 75.8861 508.681 75.7607 509.604 75.6924C510.527 75.624 511.404 75.5898 512.236 75.5898C513.147 75.5898 514.081 75.6354 515.038 75.7266C516.007 75.8177 516.958 75.9487 517.892 76.1196C518.827 76.2791 519.727 76.4671 520.593 76.6836C521.47 76.9001 522.279 77.1279 523.019 77.3672V82.8018ZM530.983 99.6694V76.188H554.755V81.1953H537.494V85.0747H553.867V90.082H537.494V94.6621H554.994V99.6694H530.983ZM604.145 99.6694V83.1777L595.429 99.6694H589.345L580.629 83.1777V99.6694H574.289V76.188H582.902L592.387 93.9614L601.872 76.188H610.451V99.6694H604.145ZM636.667 95.2261H623.576L621.371 99.6694H614.296L626.584 76.188H633.659L645.947 99.6694H638.871L636.667 95.2261ZM625.849 90.646H634.428L630.156 81.9985L625.849 90.646ZM678.554 87.9116C678.554 89.4155 678.389 90.7542 678.058 91.9277C677.728 93.0898 677.261 94.1038 676.657 94.9697C676.065 95.8356 675.347 96.5705 674.504 97.1743C673.672 97.7782 672.743 98.2624 671.718 98.627C670.693 98.9915 669.588 99.2593 668.403 99.4302C667.218 99.5897 665.982 99.6694 664.694 99.6694H649.792V76.188H664.66C665.947 76.188 667.184 76.2734 668.368 76.4443C669.553 76.6038 670.659 76.8659 671.684 77.2305C672.721 77.5951 673.661 78.0793 674.504 78.6831C675.347 79.2756 676.065 80.0104 676.657 80.8877C677.261 81.7536 677.728 82.7676 678.058 83.9297C678.389 85.0918 678.554 86.4191 678.554 87.9116ZM672.162 87.9116C672.162 86.7837 672.014 85.8039 671.718 84.9722C671.433 84.1405 670.966 83.4569 670.317 82.9214C669.679 82.3745 668.841 81.9701 667.805 81.708C666.768 81.4346 665.503 81.2979 664.011 81.2979H656.132V94.5596H664.011C665.503 94.5596 666.768 94.4285 667.805 94.1665C668.841 93.8931 669.679 93.4829 670.317 92.936C670.966 92.3778 671.433 91.6828 671.718 90.8511C672.014 90.0194 672.162 89.0396 672.162 87.9116ZM684.347 99.6694V76.188H708.119V81.1953H690.859V85.0747H707.231V90.082H690.859V94.6621H708.359V99.6694H684.347ZM341.149 118.802C340.705 118.585 340.118 118.34 339.389 118.067C338.66 117.793 337.834 117.537 336.911 117.298C335.988 117.047 334.985 116.842 333.903 116.683C332.821 116.512 331.71 116.426 330.571 116.426C329.659 116.426 328.879 116.455 328.229 116.512C327.591 116.569 327.05 116.643 326.606 116.734C326.173 116.825 325.825 116.933 325.563 117.059C325.313 117.173 325.119 117.292 324.982 117.417C324.846 117.543 324.754 117.668 324.709 117.793C324.675 117.919 324.658 118.033 324.658 118.135C324.658 118.477 324.828 118.779 325.17 119.041C325.512 119.292 325.979 119.52 326.572 119.725C327.164 119.918 327.853 120.106 328.639 120.289C329.426 120.459 330.257 120.642 331.135 120.835C332.023 121.018 332.935 121.223 333.869 121.451C334.815 121.667 335.726 121.924 336.603 122.22C337.492 122.516 338.329 122.863 339.116 123.262C339.902 123.65 340.591 124.105 341.183 124.629C341.776 125.153 342.243 125.757 342.585 126.441C342.927 127.125 343.097 127.905 343.097 128.782C343.097 129.91 342.898 130.879 342.499 131.688C342.101 132.496 341.565 133.18 340.893 133.738C340.232 134.297 339.463 134.747 338.586 135.088C337.708 135.419 336.786 135.675 335.817 135.857C334.86 136.04 333.886 136.159 332.895 136.216C331.915 136.273 330.981 136.302 330.092 136.302C327.768 136.302 325.615 136.108 323.632 135.721C321.661 135.345 319.918 134.872 318.403 134.302V128.697C319.964 129.563 321.741 130.241 323.735 130.73C325.74 131.22 327.882 131.465 330.16 131.465C331.505 131.465 332.599 131.397 333.442 131.26C334.296 131.112 334.963 130.93 335.441 130.713C335.92 130.486 336.244 130.241 336.415 129.979C336.586 129.716 336.672 129.466 336.672 129.227C336.672 128.851 336.501 128.526 336.159 128.252C335.817 127.968 335.35 127.723 334.758 127.518C334.165 127.301 333.476 127.107 332.69 126.937C331.904 126.754 331.066 126.578 330.178 126.407C329.3 126.224 328.395 126.031 327.46 125.826C326.526 125.621 325.615 125.381 324.726 125.108C323.849 124.823 323.017 124.498 322.231 124.134C321.445 123.758 320.755 123.319 320.163 122.818C319.57 122.305 319.103 121.718 318.762 121.058C318.42 120.385 318.249 119.611 318.249 118.733C318.249 117.697 318.431 116.802 318.796 116.05C319.16 115.298 319.65 114.66 320.265 114.136C320.892 113.601 321.61 113.168 322.419 112.837C323.239 112.507 324.099 112.251 324.999 112.068C325.899 111.886 326.811 111.761 327.734 111.692C328.657 111.624 329.534 111.59 330.366 111.59C331.277 111.59 332.211 111.635 333.168 111.727C334.137 111.818 335.088 111.949 336.022 112.12C336.957 112.279 337.857 112.467 338.722 112.684C339.6 112.9 340.409 113.128 341.149 113.367V118.802ZM376.833 127.757C376.833 128.93 376.542 130.035 375.961 131.072C375.38 132.109 374.509 133.015 373.346 133.79C372.184 134.564 370.732 135.18 368.989 135.635C367.257 136.08 365.229 136.302 362.905 136.302C360.58 136.302 358.541 136.08 356.786 135.635C355.043 135.18 353.591 134.564 352.429 133.79C351.266 133.015 350.395 132.109 349.814 131.072C349.233 130.035 348.942 128.93 348.942 127.757V112.188H355.265V125.484C355.265 126.27 355.362 127.016 355.556 127.723C355.761 128.418 356.137 129.027 356.684 129.551C357.242 130.075 358.017 130.491 359.008 130.799C360.011 131.106 361.31 131.26 362.905 131.26C364.488 131.26 365.776 131.106 366.767 130.799C367.758 130.491 368.527 130.075 369.074 129.551C369.632 129.027 370.008 128.418 370.202 127.723C370.396 127.016 370.492 126.27 370.492 125.484V112.188H376.833V127.757ZM409.885 134.063C409.064 134.405 408.238 134.712 407.407 134.986C406.575 135.259 405.715 135.493 404.826 135.687C403.937 135.892 402.997 136.045 402.006 136.148C401.026 136.25 399.972 136.302 398.845 136.302C396.452 136.302 394.247 136.045 392.231 135.533C390.226 135.02 388.494 134.251 387.035 133.226C385.589 132.189 384.461 130.901 383.652 129.363C382.843 127.814 382.438 126.008 382.438 123.946C382.438 121.884 382.843 120.083 383.652 118.545C384.461 116.996 385.589 115.708 387.035 114.683C388.494 113.646 390.226 112.872 392.231 112.359C394.247 111.846 396.452 111.59 398.845 111.59C399.972 111.59 401.026 111.641 402.006 111.744C402.997 111.846 403.937 112 404.826 112.205C405.715 112.399 406.575 112.632 407.407 112.906C408.238 113.179 409.064 113.487 409.885 113.829V119.537C409.235 119.183 408.552 118.836 407.834 118.494C407.116 118.141 406.324 117.828 405.458 117.554C404.592 117.269 403.641 117.042 402.604 116.871C401.568 116.688 400.4 116.597 399.101 116.597C397.107 116.597 395.449 116.802 394.128 117.212C392.818 117.623 391.769 118.169 390.983 118.853C390.197 119.537 389.645 120.323 389.326 121.211C389.006 122.089 388.847 123 388.847 123.946C388.847 124.572 388.915 125.193 389.052 125.809C389.189 126.412 389.417 126.988 389.736 127.535C390.055 128.07 390.471 128.566 390.983 129.021C391.496 129.477 392.134 129.87 392.897 130.201C393.661 130.531 394.549 130.793 395.563 130.987C396.589 131.169 397.768 131.26 399.101 131.26C400.4 131.26 401.568 131.181 402.604 131.021C403.641 130.85 404.592 130.628 405.458 130.354C406.324 130.081 407.116 129.773 407.834 129.432C408.552 129.078 409.235 128.72 409.885 128.355V134.063ZM441.672 134.063C440.851 134.405 440.025 134.712 439.194 134.986C438.362 135.259 437.502 135.493 436.613 135.687C435.724 135.892 434.784 136.045 433.793 136.148C432.813 136.25 431.76 136.302 430.632 136.302C428.239 136.302 426.034 136.045 424.018 135.533C422.013 135.02 420.281 134.251 418.823 133.226C417.376 132.189 416.248 130.901 415.439 129.363C414.63 127.814 414.225 126.008 414.225 123.946C414.225 121.884 414.63 120.083 415.439 118.545C416.248 116.996 417.376 115.708 418.823 114.683C420.281 113.646 422.013 112.872 424.018 112.359C426.034 111.846 428.239 111.59 430.632 111.59C431.76 111.59 432.813 111.641 433.793 111.744C434.784 111.846 435.724 112 436.613 112.205C437.502 112.399 438.362 112.632 439.194 112.906C440.025 113.179 440.851 113.487 441.672 113.829V119.537C441.022 119.183 440.339 118.836 439.621 118.494C438.903 118.141 438.111 117.828 437.245 117.554C436.38 117.269 435.428 117.042 434.391 116.871C433.355 116.688 432.187 116.597 430.888 116.597C428.894 116.597 427.236 116.802 425.915 117.212C424.605 117.623 423.556 118.169 422.77 118.853C421.984 119.537 421.432 120.323 421.113 121.211C420.794 122.089 420.634 123 420.634 123.946C420.634 124.572 420.702 125.193 420.839 125.809C420.976 126.412 421.204 126.988 421.523 127.535C421.842 128.07 422.258 128.566 422.77 129.021C423.283 129.477 423.921 129.87 424.684 130.201C425.448 130.531 426.336 130.793 427.35 130.987C428.376 131.169 429.555 131.26 430.888 131.26C432.187 131.26 433.355 131.181 434.391 131.021C435.428 130.85 436.38 130.628 437.245 130.354C438.111 130.081 438.903 129.773 439.621 129.432C440.339 129.078 441.022 128.72 441.672 128.355V134.063ZM447.585 135.669V112.188H471.357V117.195H454.096V121.075H470.468V126.082H454.096V130.662H471.596V135.669H447.585ZM499.367 118.802C498.923 118.585 498.336 118.34 497.607 118.067C496.878 117.793 496.052 117.537 495.129 117.298C494.206 117.047 493.203 116.842 492.121 116.683C491.039 116.512 489.928 116.426 488.788 116.426C487.877 116.426 487.096 116.455 486.447 116.512C485.809 116.569 485.268 116.643 484.824 116.734C484.391 116.825 484.043 116.933 483.781 117.059C483.53 117.173 483.337 117.292 483.2 117.417C483.063 117.543 482.972 117.668 482.927 117.793C482.892 117.919 482.875 118.033 482.875 118.135C482.875 118.477 483.046 118.779 483.388 119.041C483.73 119.292 484.197 119.52 484.789 119.725C485.382 119.918 486.071 120.106 486.857 120.289C487.643 120.459 488.475 120.642 489.352 120.835C490.241 121.018 491.152 121.223 492.087 121.451C493.032 121.667 493.944 121.924 494.821 122.22C495.71 122.516 496.547 122.863 497.333 123.262C498.119 123.65 498.809 124.105 499.401 124.629C499.994 125.153 500.461 125.757 500.803 126.441C501.144 127.125 501.315 127.905 501.315 128.782C501.315 129.91 501.116 130.879 500.717 131.688C500.318 132.496 499.783 133.18 499.111 133.738C498.45 134.297 497.681 134.747 496.804 135.088C495.926 135.419 495.003 135.675 494.035 135.857C493.078 136.04 492.104 136.159 491.113 136.216C490.133 136.273 489.199 136.302 488.31 136.302C485.986 136.302 483.832 136.108 481.85 135.721C479.879 135.345 478.136 134.872 476.62 134.302V128.697C478.181 129.563 479.959 130.241 481.952 130.73C483.958 131.22 486.1 131.465 488.378 131.465C489.723 131.465 490.816 131.397 491.659 131.26C492.514 131.112 493.18 130.93 493.659 130.713C494.138 130.486 494.462 130.241 494.633 129.979C494.804 129.716 494.889 129.466 494.889 129.227C494.889 128.851 494.719 128.526 494.377 128.252C494.035 127.968 493.568 127.723 492.975 127.518C492.383 127.301 491.694 127.107 490.908 126.937C490.121 126.754 489.284 126.578 488.395 126.407C487.518 126.224 486.612 126.031 485.678 125.826C484.744 125.621 483.832 125.381 482.944 125.108C482.066 124.823 481.235 124.498 480.449 124.134C479.662 123.758 478.973 123.319 478.381 122.818C477.788 122.305 477.321 121.718 476.979 121.058C476.638 120.385 476.467 119.611 476.467 118.733C476.467 117.697 476.649 116.802 477.013 116.05C477.378 115.298 477.868 114.66 478.483 114.136C479.11 113.601 479.828 113.168 480.637 112.837C481.457 112.507 482.317 112.251 483.217 112.068C484.117 111.886 485.029 111.761 485.951 111.692C486.874 111.624 487.752 111.59 488.583 111.59C489.495 111.59 490.429 111.635 491.386 111.727C492.354 111.818 493.306 111.949 494.24 112.12C495.174 112.279 496.074 112.467 496.94 112.684C497.818 112.9 498.626 113.128 499.367 113.367V118.802ZM528.967 118.802C528.522 118.585 527.936 118.34 527.206 118.067C526.477 117.793 525.651 117.537 524.728 117.298C523.805 117.047 522.803 116.842 521.721 116.683C520.638 116.512 519.527 116.426 518.388 116.426C517.477 116.426 516.696 116.455 516.047 116.512C515.409 116.569 514.867 116.643 514.423 116.734C513.99 116.825 513.643 116.933 513.381 117.059C513.13 117.173 512.936 117.292 512.8 117.417C512.663 117.543 512.572 117.668 512.526 117.793C512.492 117.919 512.475 118.033 512.475 118.135C512.475 118.477 512.646 118.779 512.988 119.041C513.329 119.292 513.797 119.52 514.389 119.725C514.981 119.918 515.671 120.106 516.457 120.289C517.243 120.459 518.075 120.642 518.952 120.835C519.841 121.018 520.752 121.223 521.686 121.451C522.632 121.667 523.543 121.924 524.421 122.22C525.309 122.516 526.147 122.863 526.933 123.262C527.719 123.65 528.408 124.105 529.001 124.629C529.593 125.153 530.06 125.757 530.402 126.441C530.744 127.125 530.915 127.905 530.915 128.782C530.915 129.91 530.715 130.879 530.317 131.688C529.918 132.496 529.382 133.18 528.71 133.738C528.049 134.297 527.28 134.747 526.403 135.088C525.526 135.419 524.603 135.675 523.635 135.857C522.678 136.04 521.703 136.159 520.712 136.216C519.732 136.273 518.798 136.302 517.909 136.302C515.585 136.302 513.432 136.108 511.45 135.721C509.478 135.345 507.735 134.872 506.22 134.302V128.697C507.781 129.563 509.558 130.241 511.552 130.73C513.557 131.22 515.699 131.465 517.978 131.465C519.322 131.465 520.416 131.397 521.259 131.26C522.114 131.112 522.78 130.93 523.259 130.713C523.737 130.486 524.062 130.241 524.233 129.979C524.404 129.716 524.489 129.466 524.489 129.227C524.489 128.851 524.318 128.526 523.976 128.252C523.635 127.968 523.167 127.723 522.575 127.518C521.983 127.301 521.293 127.107 520.507 126.937C519.721 126.754 518.884 126.578 517.995 126.407C517.118 126.224 516.212 126.031 515.278 125.826C514.343 125.621 513.432 125.381 512.543 125.108C511.666 124.823 510.834 124.498 510.048 124.134C509.262 123.758 508.573 123.319 507.98 122.818C507.388 122.305 506.921 121.718 506.579 121.058C506.237 120.385 506.066 119.611 506.066 118.733C506.066 117.697 506.249 116.802 506.613 116.05C506.978 115.298 507.468 114.66 508.083 114.136C508.709 113.601 509.427 113.168 510.236 112.837C511.056 112.507 511.917 112.251 512.817 112.068C513.717 111.886 514.628 111.761 515.551 111.692C516.474 111.624 517.351 111.59 518.183 111.59C519.094 111.59 520.029 111.635 520.986 111.727C521.954 111.818 522.905 111.949 523.84 112.12C524.774 112.279 525.674 112.467 526.54 112.684C527.417 112.9 528.226 113.128 528.967 113.367V118.802ZM543.271 117.195V121.28H558.532V126.287H543.271V135.669H536.93V112.188H559.369V117.195H543.271ZM592.507 127.757C592.507 128.93 592.216 130.035 591.635 131.072C591.054 132.109 590.182 133.015 589.02 133.79C587.858 134.564 586.406 135.18 584.662 135.635C582.931 136.08 580.903 136.302 578.578 136.302C576.254 136.302 574.215 136.08 572.46 135.635C570.717 135.18 569.264 134.564 568.102 133.79C566.94 133.015 566.069 132.109 565.488 131.072C564.907 130.035 564.616 128.93 564.616 127.757V112.188H570.939V125.484C570.939 126.27 571.036 127.016 571.23 127.723C571.435 128.418 571.811 129.027 572.358 129.551C572.916 130.075 573.691 130.491 574.682 130.799C575.685 131.106 576.983 131.26 578.578 131.26C580.162 131.26 581.45 131.106 582.441 130.799C583.432 130.491 584.201 130.075 584.748 129.551C585.306 129.027 585.682 128.418 585.876 127.723C586.069 127.016 586.166 126.27 586.166 125.484V112.188H592.507V127.757ZM599.684 135.669V112.188H606.025V130.525H623.166V135.669H599.684ZM628.259 135.669V112.188H634.599V130.525H651.74V135.669H628.259ZM668.83 126.082V135.669H662.507V126.082L651.125 112.188H658.234L665.685 121.639L673.102 112.188H680.212L668.83 126.082ZM689.594 127.62H685.356L684.057 117.298V112.188H690.893V117.298L689.594 127.62ZM684.416 135.669V130.218H690.534V135.669H684.416Z" fill="#0D2610"/>
<path d="M338.863 161.88C338.863 164.04 338.263 165.76 337.063 167.04C335.863 168.253 334.283 168.86 332.323 168.86H326.763V168.2C327.416 168.2 327.876 168.1 328.143 167.9C328.369 167.7 328.483 167.387 328.483 166.96V156.74C328.483 156.34 328.363 156.047 328.123 155.86C327.856 155.673 327.403 155.58 326.763 155.58V154.92H332.323C334.376 154.92 335.976 155.533 337.123 156.76C338.283 158 338.863 159.707 338.863 161.88ZM337.463 161.88C337.463 159.933 336.996 158.393 336.063 157.26C335.156 156.22 333.963 155.68 332.483 155.64C332.429 155.627 332.376 155.62 332.323 155.62C332.269 155.62 332.209 155.62 332.143 155.62H331.443C331.389 155.62 331.336 155.62 331.283 155.62C331.229 155.62 331.176 155.627 331.123 155.64C330.603 155.64 330.243 155.727 330.043 155.9C329.856 156.06 329.763 156.273 329.763 156.54V166.94C329.763 167.34 329.856 167.653 330.043 167.88C330.096 167.933 330.156 167.973 330.223 168C330.303 168.013 330.389 168.033 330.483 168.06C330.576 168.087 330.676 168.107 330.783 168.12C330.889 168.133 331.003 168.147 331.123 168.16H332.143C332.209 168.16 332.269 168.16 332.323 168.16C332.376 168.16 332.429 168.153 332.483 168.14C333.963 168.113 335.149 167.573 336.043 166.52C336.989 165.373 337.463 163.827 337.463 161.88ZM348.1 164.32C348.1 165.813 347.674 167.007 346.82 167.9C346.007 168.793 344.967 169.24 343.7 169.24C342.42 169.24 341.374 168.793 340.56 167.9C339.707 167.007 339.28 165.813 339.28 164.32C339.28 162.827 339.707 161.633 340.56 160.74C341.374 159.847 342.42 159.4 343.7 159.4C344.967 159.4 346.007 159.847 346.82 160.74C347.674 161.633 348.1 162.827 348.1 164.32ZM346.74 164.32C346.74 163.093 346.447 162.087 345.86 161.3C345.314 160.513 344.594 160.12 343.7 160.12C342.82 160.12 342.087 160.513 341.5 161.3C340.927 162.087 340.64 163.093 340.64 164.32C340.64 165.533 340.92 166.54 341.48 167.34C342.054 168.113 342.794 168.5 343.7 168.5C344.567 168.5 345.287 168.113 345.86 167.34C346.447 166.553 346.74 165.547 346.74 164.32ZM360.728 166.46C360.795 166.513 360.861 166.56 360.928 166.6C360.995 166.64 361.061 166.687 361.128 166.74C360.155 168.393 358.848 169.22 357.208 169.22C356.035 169.22 355.035 168.807 354.208 167.98C353.381 167.073 352.968 165.933 352.968 164.56C352.968 163.133 353.421 161.907 354.328 160.88C355.208 159.92 356.308 159.44 357.628 159.44C358.415 159.44 359.101 159.593 359.688 159.9C359.901 160.007 360.095 160.133 360.268 160.28C360.455 160.427 360.608 160.6 360.728 160.8C360.861 161.027 360.928 161.253 360.928 161.48C360.928 161.72 360.861 161.947 360.728 162.16C360.595 162.373 360.395 162.48 360.128 162.48C359.648 162.48 359.328 162.107 359.168 161.36C359.128 161.16 359.048 160.993 358.928 160.86C358.808 160.727 358.661 160.607 358.488 160.5C358.141 160.287 357.715 160.18 357.208 160.18C356.448 160.18 355.775 160.573 355.188 161.36C354.601 162.187 354.308 163.16 354.308 164.28C354.308 164.88 354.381 165.427 354.528 165.92C354.688 166.413 354.921 166.84 355.228 167.2C355.855 167.947 356.635 168.32 357.568 168.32C358.715 168.32 359.768 167.7 360.728 166.46ZM371.001 168.86H367.041V168.2C367.587 168.2 367.974 168.127 368.201 167.98C368.361 167.847 368.441 167.607 368.441 167.26V162.28C368.441 161.08 367.794 160.48 366.501 160.48C365.581 160.48 364.634 160.867 363.661 161.64V167.26C363.661 167.607 363.747 167.847 363.921 167.98C364.147 168.127 364.521 168.2 365.041 168.2V168.86H361.121V168.2C361.627 168.2 361.994 168.127 362.221 167.98C362.367 167.833 362.441 167.593 362.441 167.26V157.04C362.441 156.667 362.374 156.42 362.241 156.3C362.094 156.167 361.741 156.1 361.181 156.1C361.167 156.033 361.154 155.973 361.141 155.92C361.141 155.853 361.134 155.787 361.121 155.72C361.547 155.547 361.967 155.38 362.381 155.22C362.807 155.047 363.234 154.873 363.661 154.7V160.78C364.807 159.873 365.907 159.42 366.961 159.42C367.841 159.42 368.514 159.647 368.981 160.1C369.434 160.567 369.661 161.227 369.661 162.08V167.26C369.661 167.62 369.734 167.86 369.881 167.98C370.147 168.127 370.521 168.2 371.001 168.2V168.86ZM379.168 166.46C379.234 166.513 379.301 166.567 379.368 166.62C379.448 166.673 379.521 166.727 379.588 166.78C379.268 167.26 378.914 167.66 378.528 167.98C378.141 168.3 377.728 168.567 377.288 168.78C376.688 169.073 376.041 169.22 375.348 169.22C374.028 169.22 372.948 168.8 372.108 167.96C371.214 167.067 370.768 165.86 370.768 164.34C370.768 162.873 371.194 161.693 372.048 160.8C372.888 159.88 373.954 159.42 375.248 159.42C376.541 159.42 377.561 159.793 378.308 160.54C379.108 161.3 379.508 162.4 379.508 163.84C378.268 163.88 377.048 163.927 375.848 163.98C374.648 164.02 373.421 164.06 372.168 164.1C372.168 164.153 372.161 164.207 372.148 164.26C372.148 164.3 372.148 164.347 372.148 164.4C372.148 164.96 372.221 165.467 372.368 165.92C372.528 166.373 372.754 166.78 373.048 167.14C373.661 167.94 374.521 168.34 375.628 168.34C376.214 168.34 376.828 168.187 377.468 167.88C377.761 167.707 378.048 167.507 378.328 167.28C378.621 167.04 378.901 166.767 379.168 166.46ZM372.208 163.34C373.208 163.313 374.194 163.28 375.168 163.24C376.141 163.2 377.128 163.167 378.128 163.14C378.114 162.26 377.841 161.553 377.308 161.02C376.761 160.433 376.074 160.14 375.248 160.14C374.448 160.14 373.748 160.46 373.148 161.1C372.588 161.687 372.274 162.433 372.208 163.34ZM387.572 166.46C387.638 166.513 387.705 166.56 387.772 166.6C387.838 166.64 387.905 166.687 387.972 166.74C386.998 168.393 385.692 169.22 384.052 169.22C382.878 169.22 381.878 168.807 381.052 167.98C380.225 167.073 379.812 165.933 379.812 164.56C379.812 163.133 380.265 161.907 381.172 160.88C382.052 159.92 383.152 159.44 384.472 159.44C385.258 159.44 385.945 159.593 386.532 159.9C386.745 160.007 386.938 160.133 387.112 160.28C387.298 160.427 387.452 160.6 387.572 160.8C387.705 161.027 387.772 161.253 387.772 161.48C387.772 161.72 387.705 161.947 387.572 162.16C387.438 162.373 387.238 162.48 386.972 162.48C386.492 162.48 386.172 162.107 386.012 161.36C385.972 161.16 385.892 160.993 385.772 160.86C385.652 160.727 385.505 160.607 385.332 160.5C384.985 160.287 384.558 160.18 384.052 160.18C383.292 160.18 382.618 160.573 382.032 161.36C381.445 162.187 381.152 163.16 381.152 164.28C381.152 164.88 381.225 165.427 381.372 165.92C381.532 166.413 381.765 166.84 382.072 167.2C382.698 167.947 383.478 168.32 384.412 168.32C385.558 168.32 386.612 167.7 387.572 166.46ZM398.104 168.86H393.784V168.22C394.398 168.22 394.798 168.147 394.984 168C395.064 167.96 395.104 167.9 395.104 167.82C395.104 167.713 395.058 167.613 394.964 167.52C394.898 167.453 394.831 167.387 394.764 167.32C394.711 167.253 394.658 167.187 394.604 167.12C394.204 166.587 393.811 166.053 393.424 165.52C393.038 164.973 392.651 164.433 392.264 163.9C391.984 164.127 391.698 164.347 391.404 164.56C391.124 164.773 390.838 164.993 390.544 165.22V167.18C390.544 167.58 390.631 167.847 390.804 167.98C390.924 168.047 391.078 168.1 391.264 168.14C391.451 168.193 391.671 168.22 391.924 168.22V168.86H388.024V168.22C388.264 168.22 388.471 168.193 388.644 168.14C388.831 168.1 388.978 168.047 389.084 167.98C389.244 167.86 389.324 167.593 389.324 167.18V156.84C389.324 156.387 389.124 156.127 388.724 156.06C388.658 156.047 388.578 156.04 388.484 156.04C388.391 156.027 388.278 156.02 388.144 156.02C388.131 155.953 388.118 155.893 388.104 155.84C388.091 155.773 388.078 155.707 388.064 155.64C388.491 155.48 388.904 155.327 389.304 155.18C389.718 155.02 390.131 154.86 390.544 154.7V164.26C391.224 163.7 391.898 163.153 392.564 162.62C393.244 162.073 393.924 161.52 394.604 160.96C394.738 160.867 394.804 160.773 394.804 160.68C394.804 160.613 394.778 160.553 394.724 160.5C394.578 160.313 394.151 160.22 393.444 160.22V159.6H397.484V160.22C397.111 160.22 396.804 160.267 396.564 160.36C396.458 160.413 396.238 160.587 395.904 160.88L395.364 161.24C394.991 161.547 394.618 161.853 394.244 162.16C393.884 162.467 393.511 162.773 393.124 163.08C393.658 163.8 394.184 164.527 394.704 165.26C395.238 165.98 395.771 166.7 396.304 167.42C396.504 167.687 396.724 167.867 396.964 167.96C397.298 168.133 397.678 168.22 398.104 168.22V168.86ZM406.909 168.16L403.529 160.9C403.396 160.647 403.256 160.48 403.109 160.4C403.029 160.36 402.923 160.327 402.789 160.3C402.656 160.273 402.449 160.26 402.169 160.26V159.6H405.989V160.26C405.643 160.26 405.389 160.267 405.229 160.28C405.069 160.293 404.963 160.34 404.909 160.42C404.843 160.513 404.836 160.647 404.889 160.82C404.943 160.98 405.009 161.147 405.089 161.32L407.529 166.54L409.689 161.54C409.836 161.193 409.909 160.947 409.909 160.8C409.909 160.653 409.876 160.54 409.809 160.46C409.743 160.393 409.649 160.347 409.529 160.32C409.409 160.28 409.196 160.26 408.889 160.26V159.6H412.349V160.26C411.803 160.26 411.416 160.333 411.189 160.48C410.909 160.653 410.663 161 410.449 161.52L407.029 169.56C406.643 170.44 406.249 171.04 405.849 171.36C405.489 171.64 405.029 171.78 404.469 171.78C404.296 171.78 404.129 171.753 403.969 171.7C403.809 171.66 403.656 171.587 403.509 171.48C403.189 171.24 403.029 170.933 403.029 170.56C403.029 169.907 403.309 169.58 403.869 169.58C404.469 169.58 404.769 169.84 404.769 170.36C404.769 170.56 404.829 170.687 404.949 170.74C405.029 170.78 405.109 170.8 405.189 170.8C405.296 170.8 405.403 170.76 405.509 170.68C405.789 170.467 406.136 169.907 406.549 169L406.909 168.16ZM420.819 164.32C420.819 165.813 420.392 167.007 419.539 167.9C418.726 168.793 417.686 169.24 416.419 169.24C415.139 169.24 414.092 168.793 413.279 167.9C412.426 167.007 411.999 165.813 411.999 164.32C411.999 162.827 412.426 161.633 413.279 160.74C414.092 159.847 415.139 159.4 416.419 159.4C417.686 159.4 418.726 159.847 419.539 160.74C420.392 161.633 420.819 162.827 420.819 164.32ZM419.459 164.32C419.459 163.093 419.166 162.087 418.579 161.3C418.032 160.513 417.312 160.12 416.419 160.12C415.539 160.12 414.806 160.513 414.219 161.3C413.646 162.087 413.359 163.093 413.359 164.32C413.359 165.533 413.639 166.54 414.199 167.34C414.772 168.113 415.512 168.5 416.419 168.5C417.286 168.5 418.006 168.113 418.579 167.34C419.166 166.553 419.459 165.547 419.459 164.32ZM430.261 168.76C429.848 168.76 429.441 168.773 429.041 168.8C428.641 168.84 428.241 168.893 427.841 168.96C427.828 168.787 427.815 168.613 427.801 168.44C427.801 168.28 427.795 168.12 427.781 167.96C426.915 168.813 425.815 169.24 424.481 169.24C423.788 169.24 423.235 169.093 422.821 168.8C422.208 168.387 421.901 167.707 421.901 166.76V161.46C421.901 161.18 421.835 160.993 421.701 160.9C421.475 160.767 421.135 160.7 420.681 160.7C420.668 160.633 420.661 160.567 420.661 160.5C420.661 160.42 420.655 160.347 420.641 160.28C421.068 160.133 421.481 159.993 421.881 159.86C422.295 159.727 422.708 159.593 423.121 159.46V166.66C423.121 167.713 423.708 168.24 424.881 168.24C426.095 168.24 427.061 167.9 427.781 167.22V161.42C427.781 161.247 427.715 161.12 427.581 161.04C427.368 160.787 427.035 160.66 426.581 160.66C426.568 160.593 426.561 160.527 426.561 160.46C426.561 160.393 426.555 160.327 426.541 160.26C427.341 159.967 428.161 159.693 429.001 159.44V167.14C429.001 167.287 429.021 167.407 429.061 167.5C429.088 167.58 429.115 167.653 429.141 167.72C429.168 167.773 429.195 167.82 429.221 167.86C429.421 168.087 429.768 168.2 430.261 168.2V168.76ZM437.478 160.32C437.478 161.013 437.171 161.36 436.558 161.36C436.304 161.36 436.024 161.247 435.718 161.02C435.491 160.833 435.244 160.74 434.978 160.74C434.631 160.74 434.198 160.94 433.678 161.34C433.264 161.66 432.864 162.027 432.478 162.44V167.28C432.478 167.653 432.544 167.9 432.678 168.02C432.824 168.153 433.191 168.22 433.778 168.22V168.86H429.978V168.22C430.324 168.22 430.591 168.193 430.778 168.14C430.964 168.087 431.091 168.007 431.158 167.9C431.224 167.793 431.258 167.627 431.258 167.4V161.56C431.258 161.293 431.211 161.113 431.118 161.02C431.064 160.967 430.951 160.907 430.778 160.84C430.591 160.8 430.364 160.78 430.098 160.78C430.071 160.713 430.051 160.647 430.038 160.58C430.024 160.513 430.004 160.447 429.978 160.38C430.404 160.207 430.824 160.04 431.238 159.88C431.651 159.707 432.064 159.533 432.478 159.36V161.42C432.798 161.113 433.118 160.833 433.438 160.58C433.758 160.327 434.071 160.113 434.378 159.94C435.044 159.553 435.691 159.36 436.318 159.36C437.091 159.36 437.478 159.68 437.478 160.32ZM450.324 166.46C450.39 166.513 450.457 166.567 450.524 166.62C450.604 166.673 450.677 166.727 450.744 166.78C450.424 167.26 450.07 167.66 449.684 167.98C449.297 168.3 448.884 168.567 448.444 168.78C447.844 169.073 447.197 169.22 446.504 169.22C445.184 169.22 444.104 168.8 443.264 167.96C442.37 167.067 441.924 165.86 441.924 164.34C441.924 162.873 442.35 161.693 443.204 160.8C444.044 159.88 445.11 159.42 446.404 159.42C447.697 159.42 448.717 159.793 449.464 160.54C450.264 161.3 450.664 162.4 450.664 163.84C449.424 163.88 448.204 163.927 447.004 163.98C445.804 164.02 444.577 164.06 443.324 164.1C443.324 164.153 443.317 164.207 443.304 164.26C443.304 164.3 443.304 164.347 443.304 164.4C443.304 164.96 443.377 165.467 443.524 165.92C443.684 166.373 443.91 166.78 444.204 167.14C444.817 167.94 445.677 168.34 446.784 168.34C447.37 168.34 447.984 168.187 448.624 167.88C448.917 167.707 449.204 167.507 449.484 167.28C449.777 167.04 450.057 166.767 450.324 166.46ZM443.364 163.34C444.364 163.313 445.35 163.28 446.324 163.24C447.297 163.2 448.284 163.167 449.284 163.14C449.27 162.26 448.997 161.553 448.464 161.02C447.917 160.433 447.23 160.14 446.404 160.14C445.604 160.14 444.904 160.46 444.304 161.1C443.744 161.687 443.43 162.433 443.364 163.34ZM466.028 168.86H462.048V168.22C462.541 168.22 462.901 168.147 463.128 168C463.288 167.84 463.368 167.587 463.368 167.24V161.96C463.368 160.96 462.815 160.46 461.708 160.46C460.868 160.46 459.961 160.86 458.988 161.66V167.24C458.988 167.6 459.075 167.847 459.248 167.98C459.381 168.047 459.535 168.1 459.708 168.14C459.881 168.193 460.081 168.22 460.308 168.22V168.86H456.448V168.22C456.928 168.22 457.281 168.147 457.508 168C457.668 167.867 457.748 167.613 457.748 167.24V161.76C457.748 160.907 457.221 160.48 456.168 160.48C455.221 160.48 454.281 160.9 453.348 161.74V167.24C453.348 167.627 453.435 167.88 453.608 168C453.875 168.147 454.255 168.22 454.748 168.22V168.86H450.708V168.22C451.321 168.22 451.741 168.107 451.968 167.88C452.075 167.733 452.128 167.567 452.128 167.38V161.64C452.128 161.427 452.095 161.26 452.028 161.14C451.975 161.02 451.848 160.927 451.648 160.86C451.541 160.833 451.421 160.813 451.288 160.8C451.155 160.773 450.995 160.76 450.808 160.76C450.795 160.693 450.781 160.627 450.768 160.56C450.755 160.48 450.741 160.407 450.728 160.34C451.168 160.193 451.608 160.047 452.048 159.9C452.488 159.753 452.921 159.607 453.348 159.46V160.88C454.495 159.933 455.641 159.46 456.788 159.46C457.908 159.46 458.621 159.953 458.928 160.94C460.075 159.953 461.221 159.46 462.368 159.46C463.248 159.46 463.868 159.72 464.228 160.24C464.481 160.613 464.608 161.113 464.608 161.74V167.24C464.608 167.6 464.695 167.847 464.868 167.98C464.975 168.047 465.128 168.1 465.328 168.14C465.528 168.193 465.761 168.22 466.028 168.22V168.86ZM467.502 160.02C468.302 159.647 469.222 159.46 470.262 159.46C471.102 159.46 471.782 159.68 472.302 160.12C472.862 160.627 473.142 161.333 473.142 162.24V167.42C473.142 167.487 473.142 167.567 473.142 167.66C473.156 167.753 473.169 167.847 473.182 167.94C473.209 168.033 473.242 168.113 473.282 168.18C473.336 168.247 473.396 168.28 473.462 168.28C473.662 168.28 473.949 168.133 474.322 167.84L474.562 168.14C473.976 168.847 473.456 169.2 473.002 169.2C472.416 169.2 472.062 168.827 471.942 168.08C471.116 168.827 470.062 169.2 468.782 169.2C468.342 169.2 467.942 169.153 467.582 169.06C467.236 168.967 466.942 168.82 466.702 168.62C466.209 168.207 465.962 167.627 465.962 166.88C465.962 166.32 466.149 165.82 466.522 165.38C466.909 164.927 467.402 164.553 468.002 164.26C469.029 163.727 470.336 163.36 471.922 163.16V161.92C471.922 161.4 471.762 160.98 471.442 160.66C471.256 160.473 471.036 160.34 470.782 160.26C470.542 160.18 470.282 160.14 470.002 160.14C469.469 160.14 469.016 160.247 468.642 160.46C468.416 160.607 468.236 160.753 468.102 160.9C467.969 161.033 467.902 161.187 467.902 161.36V161.46C467.902 162.113 467.616 162.44 467.042 162.44C466.522 162.44 466.262 162.14 466.262 161.54C466.262 160.913 466.676 160.407 467.502 160.02ZM471.922 163.92C470.749 164.04 469.662 164.373 468.662 164.92C467.756 165.427 467.302 166.073 467.302 166.86C467.302 167.287 467.476 167.633 467.822 167.9C468.169 168.153 468.602 168.28 469.122 168.28C469.602 168.28 470.102 168.187 470.622 168C471.049 167.853 471.482 167.6 471.922 167.24V163.92ZM477.434 155.64C477.434 155.96 477.328 156.227 477.114 156.44C476.901 156.653 476.634 156.76 476.314 156.76C476.021 156.76 475.774 156.653 475.574 156.44C475.388 156.227 475.294 155.96 475.294 155.64C475.294 155.32 475.394 155.053 475.594 154.84C475.794 154.627 476.034 154.52 476.314 154.52C476.634 154.52 476.901 154.627 477.114 154.84C477.328 155.053 477.434 155.32 477.434 155.64ZM478.374 168.88H474.634V168.22C475.181 168.22 475.534 168.14 475.694 167.98C475.828 167.86 475.894 167.64 475.894 167.32V161.56C475.894 161.267 475.834 161.067 475.714 160.96C475.568 160.84 475.214 160.78 474.654 160.78L474.574 160.34L477.114 159.38V167.32C477.114 167.693 477.174 167.927 477.294 168.02C477.468 168.153 477.828 168.22 478.374 168.22V168.88ZM482.374 168.86H478.534V168.22C479.054 168.22 479.407 168.147 479.594 168C479.754 167.867 479.834 167.58 479.834 167.14V156.72C479.834 156.493 479.754 156.333 479.594 156.24C479.434 156.133 479.094 156.08 478.574 156.08L478.454 155.6C478.88 155.44 479.314 155.287 479.754 155.14C480.194 154.98 480.627 154.82 481.054 154.66V167.14C481.054 167.553 481.127 167.833 481.274 167.98C481.38 168.047 481.52 168.1 481.694 168.14C481.88 168.193 482.107 168.22 482.374 168.22V168.86ZM490.177 155.64C490.177 155.96 490.07 156.227 489.857 156.44C489.643 156.653 489.377 156.76 489.057 156.76C488.763 156.76 488.517 156.653 488.317 156.44C488.13 156.227 488.037 155.96 488.037 155.64C488.037 155.32 488.137 155.053 488.337 154.84C488.537 154.627 488.777 154.52 489.057 154.52C489.377 154.52 489.643 154.627 489.857 154.84C490.07 155.053 490.177 155.32 490.177 155.64ZM491.117 168.88H487.377V168.22C487.923 168.22 488.277 168.14 488.437 167.98C488.57 167.86 488.637 167.64 488.637 167.32V161.56C488.637 161.267 488.577 161.067 488.457 160.96C488.31 160.84 487.957 160.78 487.397 160.78L487.317 160.34L489.857 159.38V167.32C489.857 167.693 489.917 167.927 490.037 168.02C490.21 168.153 490.57 168.22 491.117 168.22V168.88ZM500.776 168.86H496.876V168.22C497.342 168.22 497.669 168.16 497.856 168.04C498.082 167.893 498.196 167.607 498.196 167.18V162.16C498.196 161.04 497.669 160.48 496.616 160.48C495.989 160.48 495.462 160.587 495.036 160.8C494.849 160.893 494.629 161.02 494.376 161.18C494.122 161.327 493.842 161.507 493.536 161.72V167.18C493.536 167.58 493.622 167.847 493.796 167.98C493.902 168.047 494.049 168.1 494.236 168.14C494.422 168.193 494.649 168.22 494.916 168.22V168.86H491.016V168.22C491.522 168.22 491.889 168.14 492.116 167.98C492.249 167.847 492.316 167.58 492.316 167.18V161.66C492.316 161.3 492.249 161.073 492.116 160.98C491.929 160.833 491.589 160.76 491.096 160.76C491.069 160.693 491.049 160.62 491.036 160.54C491.036 160.46 491.022 160.387 490.996 160.32C491.422 160.173 491.842 160.027 492.256 159.88C492.682 159.733 493.109 159.587 493.536 159.44V160.86C494.669 159.927 495.822 159.46 496.996 159.46C497.809 159.46 498.416 159.693 498.816 160.16C499.216 160.64 499.416 161.32 499.416 162.2V167.16C499.416 167.573 499.496 167.847 499.656 167.98C499.762 168.047 499.909 168.1 500.096 168.14C500.282 168.193 500.509 168.22 500.776 168.22V168.86ZM509.683 164.28C509.683 165.733 509.27 166.913 508.443 167.82C508.056 168.247 507.63 168.58 507.163 168.82C506.71 169.073 506.183 169.2 505.583 169.2C504.423 169.2 503.476 168.853 502.743 168.16C502.636 168.293 502.536 168.42 502.443 168.54C502.363 168.673 502.27 168.807 502.163 168.94H501.703V156.92C501.703 156.627 501.636 156.42 501.503 156.3C501.37 156.167 501.05 156.1 500.543 156.1C500.53 156.033 500.516 155.96 500.503 155.88C500.49 155.8 500.476 155.727 500.463 155.66C500.89 155.5 501.303 155.34 501.703 155.18C502.103 155.02 502.51 154.86 502.923 154.7V160.2C503.576 159.667 504.463 159.4 505.583 159.4C506.81 159.4 507.796 159.833 508.543 160.7C509.303 161.58 509.683 162.773 509.683 164.28ZM508.343 164.3C508.343 163.087 508.056 162.107 507.483 161.36C507.203 161 506.863 160.72 506.463 160.52C506.076 160.32 505.636 160.22 505.143 160.22C504.29 160.22 503.55 160.527 502.923 161.14V167.38C503.536 168.033 504.276 168.36 505.143 168.36C506.036 168.36 506.796 167.967 507.423 167.18C508.036 166.447 508.343 165.487 508.343 164.3ZM518.561 164.32C518.561 165.813 518.135 167.007 517.281 167.9C516.468 168.793 515.428 169.24 514.161 169.24C512.881 169.24 511.835 168.793 511.021 167.9C510.168 167.007 509.741 165.813 509.741 164.32C509.741 162.827 510.168 161.633 511.021 160.74C511.835 159.847 512.881 159.4 514.161 159.4C515.428 159.4 516.468 159.847 517.281 160.74C518.135 161.633 518.561 162.827 518.561 164.32ZM517.201 164.32C517.201 163.093 516.908 162.087 516.321 161.3C515.775 160.513 515.055 160.12 514.161 160.12C513.281 160.12 512.548 160.513 511.961 161.3C511.388 162.087 511.101 163.093 511.101 164.32C511.101 165.533 511.381 166.54 511.941 167.34C512.515 168.113 513.255 168.5 514.161 168.5C515.028 168.5 515.748 168.113 516.321 167.34C516.908 166.553 517.201 165.547 517.201 164.32ZM528.564 160.24C528.07 160.24 527.644 160.307 527.284 160.44C527.217 160.467 527.15 160.5 527.084 160.54C527.03 160.58 526.97 160.62 526.904 160.66C526.797 160.727 526.69 160.827 526.584 160.96L526.384 161.2C526.357 161.24 526.324 161.28 526.284 161.32C526.244 161.36 526.21 161.407 526.184 161.46C525.85 161.86 525.517 162.26 525.184 162.66C524.85 163.047 524.517 163.44 524.184 163.84C524.637 164.4 525.09 164.947 525.544 165.48C525.997 166 526.45 166.54 526.904 167.1C526.97 167.193 527.03 167.287 527.084 167.38C527.15 167.46 527.217 167.533 527.284 167.6C527.47 167.787 527.65 167.92 527.824 168C528.09 168.147 528.457 168.22 528.924 168.22V168.86H524.744V168.22C525.437 168.22 525.824 168.167 525.904 168.06C525.944 168.02 525.964 167.973 525.964 167.92C525.964 167.853 525.93 167.767 525.864 167.66L525.464 167.26C525.117 166.847 524.777 166.44 524.444 166.04C524.11 165.64 523.777 165.233 523.444 164.82C523.137 165.193 522.83 165.567 522.524 165.94C522.217 166.3 521.91 166.667 521.604 167.04C521.537 167.12 521.477 167.193 521.424 167.26C521.37 167.327 521.317 167.4 521.264 167.48C521.104 167.667 521.024 167.807 521.024 167.9C521.024 167.94 521.037 167.973 521.064 168C521.144 168.147 521.497 168.22 522.124 168.22V168.86H518.324V168.22C518.87 168.22 519.277 168.147 519.544 168C519.917 167.8 520.277 167.487 520.624 167.06L523.024 164.26C522.584 163.727 522.144 163.207 521.704 162.7C521.277 162.18 520.844 161.66 520.404 161.14C520.124 160.78 519.91 160.553 519.764 160.46C519.55 160.327 519.177 160.26 518.644 160.26V159.6H522.684V160.26C522.35 160.26 522.097 160.267 521.924 160.28C521.75 160.293 521.637 160.34 521.584 160.42C521.544 160.487 521.537 160.56 521.564 160.64C521.59 160.707 521.63 160.78 521.684 160.86C521.737 160.927 521.797 160.993 521.864 161.06C521.944 161.127 522.01 161.187 522.064 161.24C522.344 161.573 522.624 161.913 522.904 162.26C523.197 162.593 523.484 162.927 523.764 163.26C524.044 162.94 524.317 162.613 524.584 162.28C524.864 161.947 525.144 161.613 525.424 161.28C525.49 161.187 525.557 161.1 525.624 161.02C525.704 160.94 525.777 160.86 525.844 160.78C525.91 160.713 525.944 160.64 525.944 160.56C525.944 160.493 525.924 160.44 525.884 160.4C525.83 160.307 525.504 160.26 524.904 160.26V159.6H528.564V160.24ZM538.564 156.38C538.271 156.38 537.991 156.287 537.724 156.1C537.537 155.967 537.397 155.893 537.304 155.88C537.211 155.853 537.111 155.84 537.004 155.84C536.751 155.84 536.531 156.093 536.344 156.6C536.277 156.773 536.237 156.953 536.224 157.14C536.211 157.327 536.204 157.527 536.204 157.74V159.76H538.384V160.52H536.204V167.16C536.204 167.68 536.411 168 536.824 168.12C537.091 168.187 537.537 168.22 538.164 168.22V168.86H533.324V168.22C533.671 168.22 533.951 168.2 534.164 168.16C534.377 168.12 534.544 168.067 534.664 168C534.784 167.933 534.864 167.833 534.904 167.7C534.944 167.553 534.964 167.373 534.964 167.16V160.52H533.344V159.76H534.964V158.52C534.964 157.48 535.237 156.587 535.784 155.84C536.397 155 537.177 154.58 538.124 154.58C538.471 154.58 538.757 154.66 538.984 154.82C539.237 154.993 539.364 155.247 539.364 155.58C539.364 155.807 539.277 156 539.104 156.16C538.931 156.307 538.751 156.38 538.564 156.38ZM547.921 164.32C547.921 165.813 547.494 167.007 546.641 167.9C545.827 168.793 544.787 169.24 543.521 169.24C542.241 169.24 541.194 168.793 540.381 167.9C539.527 167.007 539.101 165.813 539.101 164.32C539.101 162.827 539.527 161.633 540.381 160.74C541.194 159.847 542.241 159.4 543.521 159.4C544.787 159.4 545.827 159.847 546.641 160.74C547.494 161.633 547.921 162.827 547.921 164.32ZM546.561 164.32C546.561 163.093 546.267 162.087 545.681 161.3C545.134 160.513 544.414 160.12 543.521 160.12C542.641 160.12 541.907 160.513 541.321 161.3C540.747 162.087 540.461 163.093 540.461 164.32C540.461 165.533 540.741 166.54 541.301 167.34C541.874 168.113 542.614 168.5 543.521 168.5C544.387 168.5 545.107 168.113 545.681 167.34C546.267 166.553 546.561 165.547 546.561 164.32ZM555.423 160.32C555.423 161.013 555.116 161.36 554.503 161.36C554.25 161.36 553.97 161.247 553.663 161.02C553.436 160.833 553.19 160.74 552.923 160.74C552.576 160.74 552.143 160.94 551.623 161.34C551.21 161.66 550.81 162.027 550.423 162.44V167.28C550.423 167.653 550.49 167.9 550.623 168.02C550.77 168.153 551.136 168.22 551.723 168.22V168.86H547.923V168.22C548.27 168.22 548.536 168.193 548.723 168.14C548.91 168.087 549.036 168.007 549.103 167.9C549.17 167.793 549.203 167.627 549.203 167.4V161.56C549.203 161.293 549.156 161.113 549.063 161.02C549.01 160.967 548.896 160.907 548.723 160.84C548.536 160.8 548.31 160.78 548.043 160.78C548.016 160.713 547.996 160.647 547.983 160.58C547.97 160.513 547.95 160.447 547.923 160.38C548.35 160.207 548.77 160.04 549.183 159.88C549.596 159.707 550.01 159.533 550.423 159.36V161.42C550.743 161.113 551.063 160.833 551.383 160.58C551.703 160.327 552.016 160.113 552.323 159.94C552.99 159.553 553.636 159.36 554.263 159.36C555.036 159.36 555.423 159.68 555.423 160.32ZM561.549 160.02C562.349 159.647 563.269 159.46 564.309 159.46C565.149 159.46 565.829 159.68 566.349 160.12C566.909 160.627 567.189 161.333 567.189 162.24V167.42C567.189 167.487 567.189 167.567 567.189 167.66C567.202 167.753 567.216 167.847 567.229 167.94C567.256 168.033 567.289 168.113 567.329 168.18C567.382 168.247 567.442 168.28 567.509 168.28C567.709 168.28 567.996 168.133 568.369 167.84L568.609 168.14C568.022 168.847 567.502 169.2 567.049 169.2C566.462 169.2 566.109 168.827 565.989 168.08C565.162 168.827 564.109 169.2 562.829 169.2C562.389 169.2 561.989 169.153 561.629 169.06C561.282 168.967 560.989 168.82 560.749 168.62C560.256 168.207 560.009 167.627 560.009 166.88C560.009 166.32 560.196 165.82 560.569 165.38C560.956 164.927 561.449 164.553 562.049 164.26C563.076 163.727 564.382 163.36 565.969 163.16V161.92C565.969 161.4 565.809 160.98 565.489 160.66C565.302 160.473 565.082 160.34 564.829 160.26C564.589 160.18 564.329 160.14 564.049 160.14C563.516 160.14 563.062 160.247 562.689 160.46C562.462 160.607 562.282 160.753 562.149 160.9C562.016 161.033 561.949 161.187 561.949 161.36V161.46C561.949 162.113 561.662 162.44 561.089 162.44C560.569 162.44 560.309 162.14 560.309 161.54C560.309 160.913 560.722 160.407 561.549 160.02ZM565.969 163.92C564.796 164.04 563.709 164.373 562.709 164.92C561.802 165.427 561.349 166.073 561.349 166.86C561.349 167.287 561.522 167.633 561.869 167.9C562.216 168.153 562.649 168.28 563.169 168.28C563.649 168.28 564.149 168.187 564.669 168C565.096 167.853 565.529 167.6 565.969 167.24V163.92ZM580.427 160.32C580.427 161.013 580.12 161.36 579.507 161.36C579.253 161.36 578.973 161.247 578.667 161.02C578.44 160.833 578.193 160.74 577.927 160.74C577.58 160.74 577.147 160.94 576.627 161.34C576.213 161.66 575.813 162.027 575.427 162.44V167.28C575.427 167.653 575.493 167.9 575.627 168.02C575.773 168.153 576.14 168.22 576.727 168.22V168.86H572.927V168.22C573.273 168.22 573.54 168.193 573.727 168.14C573.913 168.087 574.04 168.007 574.107 167.9C574.173 167.793 574.207 167.627 574.207 167.4V161.56C574.207 161.293 574.16 161.113 574.067 161.02C574.013 160.967 573.9 160.907 573.727 160.84C573.54 160.8 573.313 160.78 573.047 160.78C573.02 160.713 573 160.647 572.987 160.58C572.973 160.513 572.953 160.447 572.927 160.38C573.353 160.207 573.773 160.04 574.187 159.88C574.6 159.707 575.013 159.533 575.427 159.36V161.42C575.747 161.113 576.067 160.833 576.387 160.58C576.707 160.327 577.02 160.113 577.327 159.94C577.993 159.553 578.64 159.36 579.267 159.36C580.04 159.36 580.427 159.68 580.427 160.32ZM588.668 166.46C588.734 166.513 588.801 166.567 588.868 166.62C588.948 166.673 589.021 166.727 589.088 166.78C588.768 167.26 588.414 167.66 588.028 167.98C587.641 168.3 587.228 168.567 586.788 168.78C586.188 169.073 585.541 169.22 584.848 169.22C583.528 169.22 582.448 168.8 581.608 167.96C580.714 167.067 580.268 165.86 580.268 164.34C580.268 162.873 580.694 161.693 581.548 160.8C582.388 159.88 583.454 159.42 584.748 159.42C586.041 159.42 587.061 159.793 587.808 160.54C588.608 161.3 589.008 162.4 589.008 163.84C587.768 163.88 586.548 163.927 585.348 163.98C584.148 164.02 582.921 164.06 581.668 164.1C581.668 164.153 581.661 164.207 581.648 164.26C581.648 164.3 581.648 164.347 581.648 164.4C581.648 164.96 581.721 165.467 581.868 165.92C582.028 166.373 582.254 166.78 582.548 167.14C583.161 167.94 584.021 168.34 585.128 168.34C585.714 168.34 586.328 168.187 586.968 167.88C587.261 167.707 587.548 167.507 587.828 167.28C588.121 167.04 588.401 166.767 588.668 166.46ZM581.708 163.34C582.708 163.313 583.694 163.28 584.668 163.24C585.641 163.2 586.628 163.167 587.628 163.14C587.614 162.26 587.341 161.553 586.808 161.02C586.261 160.433 585.574 160.14 584.748 160.14C583.948 160.14 583.248 160.46 582.648 161.1C582.088 161.687 581.774 162.433 581.708 163.34ZM597.072 166.46C597.138 166.513 597.205 166.56 597.272 166.6C597.338 166.64 597.405 166.687 597.472 166.74C596.498 168.393 595.192 169.22 593.552 169.22C592.378 169.22 591.378 168.807 590.552 167.98C589.725 167.073 589.312 165.933 589.312 164.56C589.312 163.133 589.765 161.907 590.672 160.88C591.552 159.92 592.652 159.44 593.972 159.44C594.758 159.44 595.445 159.593 596.032 159.9C596.245 160.007 596.438 160.133 596.612 160.28C596.798 160.427 596.952 160.6 597.072 160.8C597.205 161.027 597.272 161.253 597.272 161.48C597.272 161.72 597.205 161.947 597.072 162.16C596.938 162.373 596.738 162.48 596.472 162.48C595.992 162.48 595.672 162.107 595.512 161.36C595.472 161.16 595.392 160.993 595.272 160.86C595.152 160.727 595.005 160.607 594.832 160.5C594.485 160.287 594.058 160.18 593.552 160.18C592.792 160.18 592.118 160.573 591.532 161.36C590.945 162.187 590.652 163.16 590.652 164.28C590.652 164.88 590.725 165.427 590.872 165.92C591.032 166.413 591.265 166.84 591.572 167.2C592.198 167.947 592.978 168.32 593.912 168.32C595.058 168.32 596.112 167.7 597.072 166.46ZM605.964 166.46C606.031 166.513 606.098 166.567 606.164 166.62C606.244 166.673 606.318 166.727 606.384 166.78C606.064 167.26 605.711 167.66 605.324 167.98C604.938 168.3 604.524 168.567 604.084 168.78C603.484 169.073 602.838 169.22 602.144 169.22C600.824 169.22 599.744 168.8 598.904 167.96C598.011 167.067 597.564 165.86 597.564 164.34C597.564 162.873 597.991 161.693 598.844 160.8C599.684 159.88 600.751 159.42 602.044 159.42C603.338 159.42 604.358 159.793 605.104 160.54C605.904 161.3 606.304 162.4 606.304 163.84C605.064 163.88 603.844 163.927 602.644 163.98C601.444 164.02 600.218 164.06 598.964 164.1C598.964 164.153 598.958 164.207 598.944 164.26C598.944 164.3 598.944 164.347 598.944 164.4C598.944 164.96 599.018 165.467 599.164 165.92C599.324 166.373 599.551 166.78 599.844 167.14C600.458 167.94 601.318 168.34 602.424 168.34C603.011 168.34 603.624 168.187 604.264 167.88C604.558 167.707 604.844 167.507 605.124 167.28C605.418 167.04 605.698 166.767 605.964 166.46ZM599.004 163.34C600.004 163.313 600.991 163.28 601.964 163.24C602.938 163.2 603.924 163.167 604.924 163.14C604.911 162.26 604.638 161.553 604.104 161.02C603.558 160.433 602.871 160.14 602.044 160.14C601.244 160.14 600.544 160.46 599.944 161.1C599.384 161.687 599.071 162.433 599.004 163.34ZM609.509 155.64C609.509 155.96 609.402 156.227 609.189 156.44C608.975 156.653 608.709 156.76 608.389 156.76C608.095 156.76 607.849 156.653 607.649 156.44C607.462 156.227 607.369 155.96 607.369 155.64C607.369 155.32 607.469 155.053 607.669 154.84C607.869 154.627 608.109 154.52 608.389 154.52C608.709 154.52 608.975 154.627 609.189 154.84C609.402 155.053 609.509 155.32 609.509 155.64ZM610.449 168.88H606.709V168.22C607.255 168.22 607.609 168.14 607.769 167.98C607.902 167.86 607.969 167.64 607.969 167.32V161.56C607.969 161.267 607.909 161.067 607.789 160.96C607.642 160.84 607.289 160.78 606.729 160.78L606.649 160.34L609.189 159.38V167.32C609.189 167.693 609.249 167.927 609.369 168.02C609.542 168.153 609.902 168.22 610.449 168.22V168.88ZM619.588 164.24C619.588 165.733 619.168 166.92 618.328 167.8C617.541 168.6 616.581 169 615.448 169C614.314 169 613.441 168.733 612.828 168.2V170.2C612.828 170.547 612.921 170.8 613.108 170.96C613.334 171.133 613.668 171.22 614.108 171.22V171.88H610.308V171.22C610.841 171.22 611.201 171.133 611.388 170.96C611.521 170.827 611.588 170.573 611.588 170.2V161.58C611.588 161.513 611.574 161.413 611.548 161.28C611.534 161.173 611.494 161.087 611.428 161.02C611.294 160.887 610.948 160.82 610.388 160.82C610.374 160.753 610.361 160.68 610.348 160.6C610.348 160.52 610.341 160.447 610.328 160.38C610.754 160.233 611.174 160.087 611.588 159.94C612.001 159.78 612.414 159.627 612.828 159.48V160.28C613.521 159.747 614.414 159.48 615.508 159.48C616.694 159.48 617.661 159.893 618.408 160.72C619.194 161.627 619.588 162.8 619.588 164.24ZM618.248 164.26C618.248 163.1 617.948 162.16 617.348 161.44C616.761 160.693 616.001 160.32 615.068 160.32C614.134 160.32 613.388 160.62 612.828 161.22V167.2C613.388 167.84 614.134 168.16 615.068 168.16C615.948 168.16 616.688 167.8 617.288 167.08C617.928 166.32 618.248 165.38 618.248 164.26ZM625.223 166.9C625.29 166.953 625.35 167 625.403 167.04C625.47 167.08 625.536 167.12 625.603 167.16C625.363 167.72 625.036 168.187 624.623 168.56C624.156 169 623.65 169.22 623.103 169.22C622.383 169.22 621.836 168.96 621.463 168.44C621.356 168.253 621.27 168.04 621.203 167.8C621.136 167.56 621.103 167.293 621.103 167V160.38H619.543V159.74C620.263 159.74 620.796 159.467 621.143 158.92C621.53 158.293 621.723 157.4 621.723 156.24H622.323V159.6H624.943V160.38H622.323V167.14C622.323 167.847 622.696 168.2 623.443 168.2C624.043 168.2 624.636 167.767 625.223 166.9ZM638.944 164.32C638.944 165.813 638.517 167.007 637.664 167.9C636.851 168.793 635.811 169.24 634.544 169.24C633.264 169.24 632.217 168.793 631.404 167.9C630.551 167.007 630.124 165.813 630.124 164.32C630.124 162.827 630.551 161.633 631.404 160.74C632.217 159.847 633.264 159.4 634.544 159.4C635.811 159.4 636.851 159.847 637.664 160.74C638.517 161.633 638.944 162.827 638.944 164.32ZM637.584 164.32C637.584 163.093 637.291 162.087 636.704 161.3C636.157 160.513 635.437 160.12 634.544 160.12C633.664 160.12 632.931 160.513 632.344 161.3C631.771 162.087 631.484 163.093 631.484 164.32C631.484 165.533 631.764 166.54 632.324 167.34C632.897 168.113 633.637 168.5 634.544 168.5C635.411 168.5 636.131 168.113 636.704 167.34C637.291 166.553 637.584 165.547 637.584 164.32ZM644.306 156.38C644.013 156.38 643.733 156.287 643.466 156.1C643.28 155.967 643.14 155.893 643.046 155.88C642.953 155.853 642.853 155.84 642.746 155.84C642.493 155.84 642.273 156.093 642.086 156.6C642.02 156.773 641.98 156.953 641.966 157.14C641.953 157.327 641.946 157.527 641.946 157.74V159.76H644.126V160.52H641.946V167.16C641.946 167.68 642.153 168 642.566 168.12C642.833 168.187 643.28 168.22 643.906 168.22V168.86H639.066V168.22C639.413 168.22 639.693 168.2 639.906 168.16C640.12 168.12 640.286 168.067 640.406 168C640.526 167.933 640.606 167.833 640.646 167.7C640.686 167.553 640.706 167.373 640.706 167.16V160.52H639.086V159.76H640.706V158.52C640.706 157.48 640.98 156.587 641.526 155.84C642.14 155 642.92 154.58 643.866 154.58C644.213 154.58 644.5 154.66 644.726 154.82C644.98 154.993 645.106 155.247 645.106 155.58C645.106 155.807 645.02 156 644.846 156.16C644.673 156.307 644.493 156.38 644.306 156.38ZM653.788 168.16L650.408 160.9C650.275 160.647 650.135 160.48 649.988 160.4C649.908 160.36 649.802 160.327 649.668 160.3C649.535 160.273 649.328 160.26 649.048 160.26V159.6H652.868V160.26C652.522 160.26 652.268 160.267 652.108 160.28C651.948 160.293 651.842 160.34 651.788 160.42C651.722 160.513 651.715 160.647 651.768 160.82C651.822 160.98 651.888 161.147 651.968 161.32L654.408 166.54L656.568 161.54C656.715 161.193 656.788 160.947 656.788 160.8C656.788 160.653 656.755 160.54 656.688 160.46C656.622 160.393 656.528 160.347 656.408 160.32C656.288 160.28 656.075 160.26 655.768 160.26V159.6H659.228V160.26C658.682 160.26 658.295 160.333 658.068 160.48C657.788 160.653 657.542 161 657.328 161.52L653.908 169.56C653.522 170.44 653.128 171.04 652.728 171.36C652.368 171.64 651.908 171.78 651.348 171.78C651.175 171.78 651.008 171.753 650.848 171.7C650.688 171.66 650.535 171.587 650.388 171.48C650.068 171.24 649.908 170.933 649.908 170.56C649.908 169.907 650.188 169.58 650.748 169.58C651.348 169.58 651.648 169.84 651.648 170.36C651.648 170.56 651.708 170.687 651.828 170.74C651.908 170.78 651.988 170.8 652.068 170.8C652.175 170.8 652.282 170.76 652.388 170.68C652.668 170.467 653.015 169.907 653.428 169L653.788 168.16ZM667.698 164.32C667.698 165.813 667.271 167.007 666.418 167.9C665.605 168.793 664.565 169.24 663.298 169.24C662.018 169.24 660.971 168.793 660.158 167.9C659.305 167.007 658.878 165.813 658.878 164.32C658.878 162.827 659.305 161.633 660.158 160.74C660.971 159.847 662.018 159.4 663.298 159.4C664.565 159.4 665.605 159.847 666.418 160.74C667.271 161.633 667.698 162.827 667.698 164.32ZM666.338 164.32C666.338 163.093 666.045 162.087 665.458 161.3C664.911 160.513 664.191 160.12 663.298 160.12C662.418 160.12 661.685 160.513 661.098 161.3C660.525 162.087 660.238 163.093 660.238 164.32C660.238 165.533 660.518 166.54 661.078 167.34C661.651 168.113 662.391 168.5 663.298 168.5C664.165 168.5 664.885 168.113 665.458 167.34C666.045 166.553 666.338 165.547 666.338 164.32ZM677.14 168.76C676.727 168.76 676.32 168.773 675.92 168.8C675.52 168.84 675.12 168.893 674.72 168.96C674.707 168.787 674.694 168.613 674.68 168.44C674.68 168.28 674.674 168.12 674.66 167.96C673.794 168.813 672.694 169.24 671.36 169.24C670.667 169.24 670.114 169.093 669.7 168.8C669.087 168.387 668.78 167.707 668.78 166.76V161.46C668.78 161.18 668.714 160.993 668.58 160.9C668.354 160.767 668.014 160.7 667.56 160.7C667.547 160.633 667.54 160.567 667.54 160.5C667.54 160.42 667.534 160.347 667.52 160.28C667.947 160.133 668.36 159.993 668.76 159.86C669.174 159.727 669.587 159.593 670 159.46V166.66C670 167.713 670.587 168.24 671.76 168.24C672.974 168.24 673.94 167.9 674.66 167.22V161.42C674.66 161.247 674.594 161.12 674.46 161.04C674.247 160.787 673.914 160.66 673.46 160.66C673.447 160.593 673.44 160.527 673.44 160.46C673.44 160.393 673.434 160.327 673.42 160.26C674.22 159.967 675.04 159.693 675.88 159.44V167.14C675.88 167.287 675.9 167.407 675.94 167.5C675.967 167.58 675.994 167.653 676.02 167.72C676.047 167.773 676.074 167.82 676.1 167.86C676.3 168.087 676.647 168.2 677.14 168.2V168.76ZM684.356 160.32C684.356 161.013 684.05 161.36 683.436 161.36C683.183 161.36 682.903 161.247 682.596 161.02C682.37 160.833 682.123 160.74 681.856 160.74C681.51 160.74 681.076 160.94 680.556 161.34C680.143 161.66 679.743 162.027 679.356 162.44V167.28C679.356 167.653 679.423 167.9 679.556 168.02C679.703 168.153 680.07 168.22 680.656 168.22V168.86H676.856V168.22C677.203 168.22 677.47 168.193 677.656 168.14C677.843 168.087 677.97 168.007 678.036 167.9C678.103 167.793 678.136 167.627 678.136 167.4V161.56C678.136 161.293 678.09 161.113 677.996 161.02C677.943 160.967 677.83 160.907 677.656 160.84C677.47 160.8 677.243 160.78 676.976 160.78C676.95 160.713 676.93 160.647 676.916 160.58C676.903 160.513 676.883 160.447 676.856 160.38C677.283 160.207 677.703 160.04 678.116 159.88C678.53 159.707 678.943 159.533 679.356 159.36V161.42C679.676 161.113 679.996 160.833 680.316 160.58C680.636 160.327 680.95 160.113 681.256 159.94C681.923 159.553 682.57 159.36 683.196 159.36C683.97 159.36 684.356 159.68 684.356 160.32ZM470.984 184.24C470.984 185.733 470.564 186.92 469.724 187.8C468.938 188.6 467.978 189 466.844 189C465.711 189 464.838 188.733 464.224 188.2V190.2C464.224 190.547 464.318 190.8 464.504 190.96C464.731 191.133 465.064 191.22 465.504 191.22V191.88H461.704V191.22C462.238 191.22 462.598 191.133 462.784 190.96C462.918 190.827 462.984 190.573 462.984 190.2V181.58C462.984 181.513 462.971 181.413 462.944 181.28C462.931 181.173 462.891 181.087 462.824 181.02C462.691 180.887 462.344 180.82 461.784 180.82C461.771 180.753 461.758 180.68 461.744 180.6C461.744 180.52 461.738 180.447 461.724 180.38C462.151 180.233 462.571 180.087 462.984 179.94C463.398 179.78 463.811 179.627 464.224 179.48V180.28C464.918 179.747 465.811 179.48 466.904 179.48C468.091 179.48 469.058 179.893 469.804 180.72C470.591 181.627 470.984 182.8 470.984 184.24ZM469.644 184.26C469.644 183.1 469.344 182.16 468.744 181.44C468.158 180.693 467.398 180.32 466.464 180.32C465.531 180.32 464.784 180.62 464.224 181.22V187.2C464.784 187.84 465.531 188.16 466.464 188.16C467.344 188.16 468.084 187.8 468.684 187.08C469.324 186.32 469.644 185.38 469.644 184.26ZM480.42 188.76C480.006 188.76 479.6 188.773 479.2 188.8C478.8 188.84 478.4 188.893 478 188.96C477.986 188.787 477.973 188.613 477.96 188.44C477.96 188.28 477.953 188.12 477.94 187.96C477.073 188.813 475.973 189.24 474.64 189.24C473.946 189.24 473.393 189.093 472.98 188.8C472.366 188.387 472.06 187.707 472.06 186.76V181.46C472.06 181.18 471.993 180.993 471.86 180.9C471.633 180.767 471.293 180.7 470.84 180.7C470.826 180.633 470.82 180.567 470.82 180.5C470.82 180.42 470.813 180.347 470.8 180.28C471.226 180.133 471.64 179.993 472.04 179.86C472.453 179.727 472.866 179.593 473.28 179.46V186.66C473.28 187.713 473.866 188.24 475.04 188.24C476.253 188.24 477.22 187.9 477.94 187.22V181.42C477.94 181.247 477.873 181.12 477.74 181.04C477.526 180.787 477.193 180.66 476.74 180.66C476.726 180.593 476.72 180.527 476.72 180.46C476.72 180.393 476.713 180.327 476.7 180.26C477.5 179.967 478.32 179.693 479.16 179.44V187.14C479.16 187.287 479.18 187.407 479.22 187.5C479.246 187.58 479.273 187.653 479.3 187.72C479.326 187.773 479.353 187.82 479.38 187.86C479.58 188.087 479.926 188.2 480.42 188.2V188.76ZM487.636 180.32C487.636 181.013 487.329 181.36 486.716 181.36C486.462 181.36 486.182 181.247 485.876 181.02C485.649 180.833 485.402 180.74 485.136 180.74C484.789 180.74 484.356 180.94 483.836 181.34C483.422 181.66 483.022 182.027 482.636 182.44V187.28C482.636 187.653 482.702 187.9 482.836 188.02C482.982 188.153 483.349 188.22 483.936 188.22V188.86H480.136V188.22C480.482 188.22 480.749 188.193 480.936 188.14C481.122 188.087 481.249 188.007 481.316 187.9C481.382 187.793 481.416 187.627 481.416 187.4V181.56C481.416 181.293 481.369 181.113 481.276 181.02C481.222 180.967 481.109 180.907 480.936 180.84C480.749 180.8 480.522 180.78 480.256 180.78C480.229 180.713 480.209 180.647 480.196 180.58C480.182 180.513 480.162 180.447 480.136 180.38C480.562 180.207 480.982 180.04 481.396 179.88C481.809 179.707 482.222 179.533 482.636 179.36V181.42C482.956 181.113 483.276 180.833 483.596 180.58C483.916 180.327 484.229 180.113 484.536 179.94C485.202 179.553 485.849 179.36 486.476 179.36C487.249 179.36 487.636 179.68 487.636 180.32ZM495.457 186.46C495.523 186.513 495.59 186.56 495.657 186.6C495.723 186.64 495.79 186.687 495.857 186.74C494.883 188.393 493.577 189.22 491.937 189.22C490.763 189.22 489.763 188.807 488.937 187.98C488.11 187.073 487.697 185.933 487.697 184.56C487.697 183.133 488.15 181.907 489.057 180.88C489.937 179.92 491.037 179.44 492.357 179.44C493.143 179.44 493.83 179.593 494.417 179.9C494.63 180.007 494.823 180.133 494.997 180.28C495.183 180.427 495.337 180.6 495.457 180.8C495.59 181.027 495.657 181.253 495.657 181.48C495.657 181.72 495.59 181.947 495.457 182.16C495.323 182.373 495.123 182.48 494.857 182.48C494.377 182.48 494.057 182.107 493.897 181.36C493.857 181.16 493.777 180.993 493.657 180.86C493.537 180.727 493.39 180.607 493.217 180.5C492.87 180.287 492.443 180.18 491.937 180.18C491.177 180.18 490.503 180.573 489.917 181.36C489.33 182.187 489.037 183.16 489.037 184.28C489.037 184.88 489.11 185.427 489.257 185.92C489.417 186.413 489.65 186.84 489.957 187.2C490.583 187.947 491.363 188.32 492.297 188.32C493.443 188.32 494.497 187.7 495.457 186.46ZM505.729 188.86H501.769V188.2C502.316 188.2 502.703 188.127 502.929 187.98C503.089 187.847 503.169 187.607 503.169 187.26V182.28C503.169 181.08 502.523 180.48 501.229 180.48C500.309 180.48 499.363 180.867 498.389 181.64V187.26C498.389 187.607 498.476 187.847 498.649 187.98C498.876 188.127 499.249 188.2 499.769 188.2V188.86H495.849V188.2C496.356 188.2 496.723 188.127 496.949 187.98C497.096 187.833 497.169 187.593 497.169 187.26V177.04C497.169 176.667 497.103 176.42 496.969 176.3C496.823 176.167 496.469 176.1 495.909 176.1C495.896 176.033 495.883 175.973 495.869 175.92C495.869 175.853 495.863 175.787 495.849 175.72C496.276 175.547 496.696 175.38 497.109 175.22C497.536 175.047 497.963 174.873 498.389 174.7V180.78C499.536 179.873 500.636 179.42 501.689 179.42C502.569 179.42 503.243 179.647 503.709 180.1C504.163 180.567 504.389 181.227 504.389 182.08V187.26C504.389 187.62 504.463 187.86 504.609 187.98C504.876 188.127 505.249 188.2 505.729 188.2V188.86ZM507.176 180.02C507.976 179.647 508.896 179.46 509.936 179.46C510.776 179.46 511.456 179.68 511.976 180.12C512.536 180.627 512.816 181.333 512.816 182.24V187.42C512.816 187.487 512.816 187.567 512.816 187.66C512.829 187.753 512.843 187.847 512.856 187.94C512.883 188.033 512.916 188.113 512.956 188.18C513.009 188.247 513.069 188.28 513.136 188.28C513.336 188.28 513.623 188.133 513.996 187.84L514.236 188.14C513.649 188.847 513.129 189.2 512.676 189.2C512.089 189.2 511.736 188.827 511.616 188.08C510.789 188.827 509.736 189.2 508.456 189.2C508.016 189.2 507.616 189.153 507.256 189.06C506.909 188.967 506.616 188.82 506.376 188.62C505.883 188.207 505.636 187.627 505.636 186.88C505.636 186.32 505.823 185.82 506.196 185.38C506.583 184.927 507.076 184.553 507.676 184.26C508.703 183.727 510.009 183.36 511.596 183.16V181.92C511.596 181.4 511.436 180.98 511.116 180.66C510.929 180.473 510.709 180.34 510.456 180.26C510.216 180.18 509.956 180.14 509.676 180.14C509.143 180.14 508.689 180.247 508.316 180.46C508.089 180.607 507.909 180.753 507.776 180.9C507.643 181.033 507.576 181.187 507.576 181.36V181.46C507.576 182.113 507.289 182.44 506.716 182.44C506.196 182.44 505.936 182.14 505.936 181.54C505.936 180.913 506.349 180.407 507.176 180.02ZM511.596 183.92C510.423 184.04 509.336 184.373 508.336 184.92C507.429 185.427 506.976 186.073 506.976 186.86C506.976 187.287 507.149 187.633 507.496 187.9C507.843 188.153 508.276 188.28 508.796 188.28C509.276 188.28 509.776 188.187 510.296 188C510.723 187.853 511.156 187.6 511.596 187.24V183.92ZM521.808 186.56C521.808 187.107 521.655 187.593 521.348 188.02C521.282 188.087 521.215 188.153 521.148 188.22C521.095 188.287 521.035 188.353 520.968 188.42C520.368 188.94 519.555 189.2 518.528 189.2C517.822 189.2 517.208 189.087 516.688 188.86C516.622 188.833 516.555 188.813 516.488 188.8C516.435 188.8 516.375 188.8 516.308 188.8H516.108C515.962 188.867 515.822 188.92 515.688 188.96C515.555 189.013 515.415 189.067 515.268 189.12C515.082 188.613 514.888 188.12 514.688 187.64C514.488 187.147 514.295 186.647 514.108 186.14C514.162 186.1 514.208 186.06 514.248 186.02C514.302 185.98 514.362 185.947 514.428 185.92C515.002 186.72 515.548 187.307 516.068 187.68C516.895 188.213 517.708 188.48 518.508 188.48C519.135 188.48 519.662 188.287 520.088 187.9C520.435 187.553 520.608 187.133 520.608 186.64C520.608 186.32 520.482 186.033 520.228 185.78C520.175 185.74 520.108 185.693 520.028 185.64C519.948 185.587 519.855 185.527 519.748 185.46C519.575 185.353 519.348 185.247 519.068 185.14C518.788 185.02 518.448 184.893 518.048 184.76C517.422 184.547 516.902 184.353 516.488 184.18C516.075 183.993 515.762 183.813 515.548 183.64C514.748 183.147 514.348 182.493 514.348 181.68C514.348 180.933 514.702 180.34 515.408 179.9C515.942 179.567 516.608 179.4 517.408 179.4C518.102 179.4 518.815 179.533 519.548 179.8C519.655 179.773 519.768 179.727 519.888 179.66C520.008 179.58 520.142 179.487 520.288 179.38C520.475 179.86 520.662 180.347 520.848 180.84C521.035 181.32 521.222 181.807 521.408 182.3C521.342 182.327 521.275 182.36 521.208 182.4C521.155 182.44 521.095 182.473 521.028 182.5C520.695 181.86 520.248 181.34 519.688 180.94C518.862 180.393 518.102 180.12 517.408 180.12C516.902 180.12 516.502 180.207 516.208 180.38C515.768 180.62 515.548 181.033 515.548 181.62C515.548 181.993 515.742 182.313 516.128 182.58C516.182 182.607 516.235 182.633 516.288 182.66C516.342 182.687 516.402 182.713 516.468 182.74C516.655 182.847 516.888 182.96 517.168 183.08C517.448 183.2 517.762 183.313 518.108 183.42C518.828 183.647 519.422 183.873 519.888 184.1C520.368 184.313 520.735 184.513 520.988 184.7C521.535 185.14 521.808 185.76 521.808 186.56ZM530.353 186.46C530.42 186.513 530.486 186.567 530.553 186.62C530.633 186.673 530.706 186.727 530.773 186.78C530.453 187.26 530.1 187.66 529.713 187.98C529.326 188.3 528.913 188.567 528.473 188.78C527.873 189.073 527.226 189.22 526.533 189.22C525.213 189.22 524.133 188.8 523.293 187.96C522.4 187.067 521.953 185.86 521.953 184.34C521.953 182.873 522.38 181.693 523.233 180.8C524.073 179.88 525.14 179.42 526.433 179.42C527.726 179.42 528.746 179.793 529.493 180.54C530.293 181.3 530.693 182.4 530.693 183.84C529.453 183.88 528.233 183.927 527.033 183.98C525.833 184.02 524.606 184.06 523.353 184.1C523.353 184.153 523.346 184.207 523.333 184.26C523.333 184.3 523.333 184.347 523.333 184.4C523.333 184.96 523.406 185.467 523.553 185.92C523.713 186.373 523.94 186.78 524.233 187.14C524.846 187.94 525.706 188.34 526.813 188.34C527.4 188.34 528.013 188.187 528.653 187.88C528.946 187.707 529.233 187.507 529.513 187.28C529.806 187.04 530.086 186.767 530.353 186.46ZM523.393 183.34C524.393 183.313 525.38 183.28 526.353 183.24C527.326 183.2 528.313 183.167 529.313 183.14C529.3 182.26 529.026 181.553 528.493 181.02C527.946 180.433 527.26 180.14 526.433 180.14C525.633 180.14 524.933 180.46 524.333 181.1C523.773 181.687 523.46 182.433 523.393 183.34ZM534.317 176.62C534.317 177.06 534.277 177.633 534.197 178.34C534.131 179.033 534.057 179.773 533.977 180.56C533.897 181.347 533.817 182.133 533.737 182.92C533.671 183.707 533.637 184.407 533.637 185.02H533.137C533.137 184.3 533.104 183.547 533.037 182.76C532.971 181.973 532.891 181.207 532.797 180.46C532.717 179.7 532.644 178.987 532.577 178.32C532.511 177.653 532.477 177.087 532.477 176.62C532.477 175.967 532.551 175.467 532.697 175.12C532.857 174.773 533.091 174.6 533.397 174.6C533.717 174.6 533.951 174.8 534.097 175.2C534.244 175.587 534.317 176.06 534.317 176.62ZM534.377 188.14C534.377 188.42 534.277 188.66 534.077 188.86C533.891 189.06 533.671 189.16 533.417 189.16C533.137 189.16 532.904 189.06 532.717 188.86C532.531 188.66 532.437 188.42 532.437 188.14C532.437 187.86 532.531 187.627 532.717 187.44C532.904 187.24 533.137 187.14 533.417 187.14C533.684 187.14 533.911 187.24 534.097 187.44C534.284 187.627 534.377 187.86 534.377 188.14Z" fill="#8A947F"/>
</svg>
