<svg width="100" height="100" viewBox="0 0 100 100" fill="none" xmlns="http://www.w3.org/2000/svg">
<circle cx="50" cy="50" r="50" fill="#0D2610"/>
<path d="M58.1756 63.6H42.0256V61.95C44.4589 61.95 46.1756 61.7333 47.1756 61.3C48.1089 60.9 48.5756 60.2 48.5756 59.2V34.2C48.5756 33.4333 48.3756 32.9167 47.9756 32.65C47.6089 32.35 46.9423 32.2 45.9756 32.2H41.8756V30.6C42.9423 30.5 43.9256 30.35 44.8256 30.15C45.7589 29.9167 46.6089 29.65 47.3756 29.35C48.5423 28.9167 50.0089 28.1667 51.7756 27.1V59.2C51.7756 59.8333 51.9423 60.35 52.2756 60.75C52.6423 61.1167 53.3089 61.4 54.2756 61.6C54.7423 61.7 55.2923 61.7833 55.9256 61.85C56.5923 61.9167 57.3423 61.95 58.1756 61.95V63.6ZM60.0326 62.95C60.0326 62.1833 60.2826 61.5333 60.7826 61C61.316 60.5 61.9326 60.25 62.6326 60.25C63.3993 60.25 64.0326 60.5 64.5326 61C65.066 61.5333 65.3326 62.1833 65.3326 62.95C65.3326 63.65 65.066 64.25 64.5326 64.75C64.0326 65.2833 63.3993 65.55 62.6326 65.55C61.9326 65.55 61.316 65.2833 60.7826 64.75C60.2826 64.25 60.0326 63.65 60.0326 62.95Z" fill="#FAF5EE"/>
</svg>
