<svg width="556" height="226" viewBox="0 0 556 226" fill="none" xmlns="http://www.w3.org/2000/svg">
<path d="M127.19 162.472C89.3144 147.651 46.3496 149.089 15.0506 119.2C-8.59117 96.6235 33.4318 70.8961 50.0228 61.6737C120.347 22.583 206.808 8.48432 286.338 8.01173C346.219 7.6559 412.072 15.3204 466.774 41.5901C476.458 46.2403 492.331 54.4095 492.243 67.5024C492.083 91.2966 447.866 103.306 432.182 108.62C316.116 147.948 199.464 142.143 79.293 137.383" stroke="#FFA665" stroke-width="15" stroke-linecap="round"/>
<circle cx="506" cy="176" r="50" fill="#0D2610"/>
<path d="M472.042 157.687V155.604H477.247V157.687H472.042ZM478.675 161V159.438C479.809 158.918 480.793 158.452 481.626 158.042C482.464 157.632 483.156 157.259 483.702 156.925C484.252 156.59 484.661 156.286 484.927 156.011C485.194 155.731 485.327 155.463 485.327 155.205C485.327 155.133 485.319 155.052 485.302 154.963C485.289 154.87 485.255 154.777 485.2 154.684C485.149 154.587 485.073 154.492 484.972 154.398C484.87 154.305 484.73 154.225 484.553 154.157C484.375 154.085 484.155 154.028 483.893 153.986C483.63 153.939 483.313 153.916 482.94 153.916C482.598 153.916 482.24 153.939 481.868 153.986C481.495 154.028 481.127 154.09 480.763 154.17C480.399 154.25 480.048 154.348 479.709 154.462C479.371 154.576 479.06 154.705 478.776 154.849V152.773C479.36 152.57 480.008 152.401 480.719 152.266C481.434 152.126 482.187 152.056 482.979 152.056C483.719 152.056 484.381 152.122 484.965 152.253C485.549 152.384 486.042 152.575 486.444 152.824C486.851 153.07 487.16 153.37 487.371 153.726C487.587 154.077 487.695 154.475 487.695 154.919C487.695 155.164 487.667 155.395 487.612 155.611C487.562 155.822 487.468 156.03 487.333 156.233C487.198 156.436 487.014 156.641 486.781 156.849C486.552 157.052 486.26 157.268 485.905 157.496C485.554 157.725 485.132 157.972 484.642 158.239C484.151 158.501 483.579 158.793 482.928 159.115H487.879V161H478.675ZM505.576 156.633C505.576 157.191 505.515 157.689 505.392 158.125C505.269 158.556 505.096 158.933 504.872 159.254C504.652 159.576 504.385 159.849 504.072 160.073C503.763 160.298 503.418 160.477 503.037 160.613C502.656 160.748 502.246 160.848 501.806 160.911C501.366 160.97 500.906 161 500.428 161H494.893V152.278H500.416C500.894 152.278 501.353 152.31 501.793 152.374C502.233 152.433 502.644 152.53 503.024 152.666C503.41 152.801 503.759 152.981 504.072 153.205C504.385 153.425 504.652 153.698 504.872 154.024C505.096 154.346 505.269 154.722 505.392 155.154C505.515 155.585 505.576 156.078 505.576 156.633ZM503.202 156.633C503.202 156.214 503.147 155.85 503.037 155.541C502.931 155.232 502.758 154.978 502.517 154.779C502.28 154.576 501.969 154.426 501.583 154.329C501.198 154.227 500.729 154.176 500.174 154.176H497.248V159.102H500.174C500.729 159.102 501.198 159.053 501.583 158.956C501.969 158.854 502.28 158.702 502.517 158.499C502.758 158.292 502.931 158.034 503.037 157.725C503.147 157.416 503.202 157.052 503.202 156.633ZM514.736 159.35H509.874L509.055 161H506.427L510.991 152.278H513.619L518.183 161H515.555L514.736 159.35ZM510.718 157.648H513.904L512.317 154.437L510.718 157.648ZM524.384 157.439V161H522.036V157.439L517.808 152.278H520.449L523.216 155.789L525.971 152.278H528.612L524.384 157.439ZM538.273 154.735C538.108 154.654 537.89 154.563 537.619 154.462C537.348 154.36 537.042 154.265 536.699 154.176C536.356 154.083 535.984 154.007 535.582 153.948C535.18 153.884 534.767 153.853 534.344 153.853C534.005 153.853 533.715 153.863 533.474 153.884C533.237 153.905 533.036 153.933 532.871 153.967C532.71 154.001 532.581 154.041 532.484 154.087C532.391 154.13 532.319 154.174 532.268 154.221C532.217 154.267 532.183 154.314 532.167 154.36C532.154 154.407 532.147 154.449 532.147 154.487C532.147 154.614 532.211 154.726 532.338 154.824C532.465 154.917 532.638 155.001 532.858 155.078C533.078 155.15 533.334 155.219 533.626 155.287C533.918 155.351 534.227 155.418 534.553 155.49C534.883 155.558 535.222 155.634 535.569 155.719C535.92 155.799 536.259 155.894 536.584 156.004C536.915 156.114 537.226 156.243 537.518 156.392C537.81 156.535 538.066 156.705 538.286 156.899C538.506 157.094 538.679 157.318 538.806 157.572C538.933 157.826 538.997 158.116 538.997 158.442C538.997 158.861 538.923 159.221 538.774 159.521C538.626 159.821 538.427 160.075 538.178 160.283C537.932 160.49 537.647 160.657 537.321 160.784C536.995 160.907 536.652 161.002 536.292 161.07C535.937 161.138 535.575 161.182 535.207 161.203C534.843 161.224 534.496 161.235 534.166 161.235C533.303 161.235 532.503 161.163 531.767 161.019C531.035 160.879 530.387 160.704 529.824 160.492V158.41C530.404 158.732 531.064 158.984 531.805 159.166C532.549 159.347 533.345 159.438 534.191 159.438C534.691 159.438 535.097 159.413 535.41 159.362C535.728 159.307 535.975 159.24 536.153 159.159C536.331 159.075 536.451 158.984 536.515 158.886C536.578 158.789 536.61 158.696 536.61 158.607C536.61 158.467 536.546 158.347 536.419 158.245C536.292 158.139 536.119 158.048 535.899 157.972C535.679 157.892 535.423 157.82 535.131 157.756C534.839 157.689 534.528 157.623 534.198 157.56C533.872 157.492 533.535 157.42 533.188 157.344C532.841 157.268 532.503 157.179 532.173 157.077C531.847 156.971 531.538 156.851 531.246 156.715C530.954 156.576 530.698 156.413 530.478 156.227C530.258 156.036 530.084 155.818 529.958 155.573C529.831 155.323 529.767 155.035 529.767 154.709C529.767 154.324 529.835 153.992 529.97 153.713C530.106 153.434 530.288 153.197 530.516 153.002C530.749 152.803 531.015 152.642 531.316 152.52C531.621 152.397 531.94 152.302 532.274 152.234C532.609 152.166 532.947 152.12 533.29 152.094C533.633 152.069 533.959 152.056 534.268 152.056C534.606 152.056 534.953 152.073 535.309 152.107C535.668 152.141 536.022 152.189 536.369 152.253C536.716 152.312 537.05 152.382 537.372 152.462C537.697 152.543 537.998 152.627 538.273 152.716V154.735ZM481.671 172.594C481.671 172.933 481.626 173.227 481.538 173.477C481.449 173.726 481.324 173.942 481.163 174.124C481.007 174.302 480.816 174.448 480.592 174.562C480.372 174.672 480.126 174.761 479.855 174.829C479.589 174.892 479.303 174.937 478.999 174.962C478.694 174.987 478.379 175 478.053 175H471.724V166.278H477.938C478.188 166.278 478.438 166.289 478.688 166.31C478.941 166.331 479.183 166.371 479.411 166.431C479.64 166.486 479.851 166.564 480.046 166.666C480.245 166.767 480.416 166.9 480.56 167.065C480.708 167.23 480.822 167.429 480.903 167.662C480.987 167.895 481.03 168.17 481.03 168.487C481.03 169.054 480.89 169.505 480.611 169.839C480.332 170.169 479.891 170.389 479.291 170.5C479.714 170.529 480.076 170.595 480.376 170.696C480.681 170.794 480.928 170.929 481.119 171.103C481.309 171.272 481.449 171.481 481.538 171.731C481.626 171.976 481.671 172.264 481.671 172.594ZM478.732 168.862C478.732 168.752 478.715 168.648 478.681 168.551C478.647 168.449 478.586 168.36 478.497 168.284C478.408 168.208 478.288 168.147 478.135 168.1C477.983 168.054 477.788 168.03 477.551 168.03H474.079V169.668H477.551C477.788 169.668 477.983 169.647 478.135 169.604C478.288 169.562 478.408 169.505 478.497 169.433C478.586 169.361 478.647 169.277 478.681 169.179C478.715 169.078 478.732 168.972 478.732 168.862ZM479.278 172.321C479.278 172.122 479.244 171.964 479.176 171.845C479.109 171.722 479.003 171.629 478.859 171.566C478.715 171.498 478.529 171.454 478.3 171.433C478.072 171.411 477.799 171.401 477.481 171.401H474.079V173.248H477.481C477.799 173.248 478.072 173.237 478.3 173.216C478.529 173.195 478.715 173.151 478.859 173.083C479.003 173.015 479.109 172.922 479.176 172.804C479.244 172.681 479.278 172.52 479.278 172.321ZM483.823 175V166.278H492.652V168.138H486.241V169.579H492.322V171.439H486.241V173.14H492.741V175H483.823ZM497.375 168.138V169.655H503.043V171.515H497.375V175H495.02V166.278H503.354V168.138H497.375ZM516.653 170.646C516.653 171.395 516.515 172.057 516.24 172.632C515.965 173.204 515.572 173.682 515.06 174.067C514.548 174.452 513.925 174.744 513.193 174.943C512.465 175.138 511.647 175.235 510.737 175.235C509.827 175.235 509.004 175.138 508.268 174.943C507.535 174.744 506.911 174.452 506.395 174.067C505.879 173.682 505.481 173.204 505.202 172.632C504.922 172.057 504.783 171.395 504.783 170.646C504.783 169.896 504.922 169.236 505.202 168.665C505.481 168.09 505.879 167.609 506.395 167.224C506.911 166.839 507.535 166.549 508.268 166.354C509.004 166.156 509.827 166.056 510.737 166.056C511.647 166.056 512.465 166.156 513.193 166.354C513.925 166.549 514.548 166.839 515.06 167.224C515.572 167.609 515.965 168.09 516.24 168.665C516.515 169.236 516.653 169.896 516.653 170.646ZM514.272 170.646C514.272 170.32 514.22 169.996 514.114 169.674C514.012 169.348 513.828 169.056 513.562 168.798C513.299 168.54 512.939 168.331 512.482 168.17C512.025 168.009 511.444 167.929 510.737 167.929C510.263 167.929 509.846 167.967 509.486 168.043C509.127 168.115 508.816 168.216 508.553 168.348C508.291 168.479 508.071 168.633 507.893 168.811C507.715 168.985 507.574 169.173 507.468 169.376C507.362 169.575 507.286 169.784 507.239 170.004C507.197 170.22 507.176 170.434 507.176 170.646C507.176 170.861 507.197 171.079 507.239 171.299C507.286 171.519 507.362 171.731 507.468 171.934C507.574 172.133 507.715 172.319 507.893 172.493C508.071 172.666 508.291 172.819 508.553 172.95C508.816 173.077 509.127 173.178 509.486 173.254C509.846 173.326 510.263 173.362 510.737 173.362C511.444 173.362 512.025 173.282 512.482 173.121C512.939 172.96 513.299 172.751 513.562 172.493C513.828 172.235 514.012 171.945 514.114 171.623C514.22 171.297 514.272 170.971 514.272 170.646ZM521.153 175H518.798V166.278H524.702C525.336 166.278 525.874 166.344 526.314 166.475C526.758 166.606 527.118 166.792 527.393 167.034C527.672 167.275 527.873 167.567 527.996 167.91C528.123 168.248 528.187 168.627 528.187 169.046C528.187 169.414 528.134 169.736 528.028 170.011C527.926 170.286 527.787 170.523 527.609 170.722C527.435 170.916 527.232 171.081 527 171.217C526.767 171.352 526.521 171.464 526.263 171.553L529.12 175H526.365L523.724 171.788H521.153V175ZM525.806 169.033C525.806 168.864 525.783 168.72 525.736 168.602C525.694 168.483 525.618 168.388 525.508 168.316C525.398 168.24 525.25 168.185 525.063 168.151C524.882 168.117 524.653 168.1 524.378 168.1H521.153V169.966H524.378C524.653 169.966 524.882 169.949 525.063 169.916C525.25 169.882 525.398 169.829 525.508 169.757C525.618 169.681 525.694 169.583 525.736 169.465C525.783 169.346 525.806 169.202 525.806 169.033ZM530.808 175V166.278H539.638V168.138H533.227V169.579H539.308V171.439H533.227V173.14H539.727V175H530.808ZM487.555 182.735C487.39 182.654 487.172 182.563 486.901 182.462C486.631 182.36 486.324 182.265 485.981 182.176C485.638 182.083 485.266 182.007 484.864 181.948C484.462 181.884 484.049 181.853 483.626 181.853C483.287 181.853 482.998 181.863 482.756 181.884C482.519 181.905 482.318 181.933 482.153 181.967C481.993 182.001 481.863 182.041 481.766 182.087C481.673 182.13 481.601 182.174 481.55 182.221C481.5 182.267 481.466 182.314 481.449 182.36C481.436 182.407 481.43 182.449 481.43 182.487C481.43 182.614 481.493 182.726 481.62 182.824C481.747 182.917 481.921 183.001 482.141 183.078C482.361 183.15 482.617 183.219 482.909 183.287C483.201 183.351 483.51 183.418 483.835 183.49C484.166 183.558 484.504 183.634 484.851 183.719C485.202 183.799 485.541 183.894 485.867 184.004C486.197 184.114 486.508 184.243 486.8 184.392C487.092 184.535 487.348 184.705 487.568 184.899C487.788 185.094 487.961 185.318 488.088 185.572C488.215 185.826 488.279 186.116 488.279 186.442C488.279 186.861 488.205 187.221 488.057 187.521C487.909 187.821 487.71 188.075 487.46 188.283C487.215 188.49 486.929 188.657 486.603 188.784C486.277 188.907 485.934 189.002 485.575 189.07C485.219 189.138 484.857 189.182 484.489 189.203C484.125 189.224 483.778 189.235 483.448 189.235C482.585 189.235 481.785 189.163 481.049 189.019C480.317 188.879 479.669 188.704 479.106 188.492V186.41C479.686 186.732 480.346 186.984 481.087 187.166C481.832 187.347 482.627 187.438 483.474 187.438C483.973 187.438 484.379 187.413 484.692 187.362C485.01 187.307 485.257 187.24 485.435 187.159C485.613 187.075 485.733 186.984 485.797 186.886C485.86 186.789 485.892 186.696 485.892 186.607C485.892 186.467 485.829 186.347 485.702 186.245C485.575 186.139 485.401 186.048 485.181 185.972C484.961 185.892 484.705 185.82 484.413 185.756C484.121 185.689 483.81 185.623 483.48 185.56C483.154 185.492 482.818 185.42 482.471 185.344C482.124 185.268 481.785 185.179 481.455 185.077C481.129 184.971 480.82 184.851 480.528 184.715C480.236 184.576 479.98 184.413 479.76 184.227C479.54 184.036 479.367 183.818 479.24 183.573C479.113 183.323 479.049 183.035 479.049 182.709C479.049 182.324 479.117 181.992 479.252 181.713C479.388 181.434 479.57 181.197 479.798 181.002C480.031 180.803 480.298 180.642 480.598 180.52C480.903 180.397 481.222 180.302 481.557 180.234C481.891 180.166 482.229 180.12 482.572 180.094C482.915 180.069 483.241 180.056 483.55 180.056C483.888 180.056 484.235 180.073 484.591 180.107C484.951 180.141 485.304 180.189 485.651 180.253C485.998 180.312 486.332 180.382 486.654 180.462C486.98 180.543 487.28 180.627 487.555 180.716V182.735ZM495.401 182.176V189H493.046V182.176H489.345V180.278H499.108V182.176H495.401ZM507.169 187.35H502.307L501.488 189H498.86L503.424 180.278H506.052L510.616 189H507.988L507.169 187.35ZM503.151 185.648H506.338L504.751 182.437L503.151 185.648ZM514.399 189H512.044V180.278H517.948C518.583 180.278 519.12 180.344 519.56 180.475C520.004 180.606 520.364 180.792 520.639 181.034C520.918 181.275 521.119 181.567 521.242 181.91C521.369 182.248 521.433 182.627 521.433 183.046C521.433 183.414 521.38 183.736 521.274 184.011C521.172 184.286 521.033 184.523 520.855 184.722C520.681 184.916 520.478 185.081 520.246 185.217C520.013 185.352 519.767 185.464 519.509 185.553L522.366 189H519.611L516.97 185.788H514.399V189ZM519.052 183.033C519.052 182.864 519.029 182.72 518.982 182.602C518.94 182.483 518.864 182.388 518.754 182.316C518.644 182.24 518.496 182.185 518.31 182.151C518.128 182.117 517.899 182.1 517.624 182.1H514.399V183.966H517.624C517.899 183.966 518.128 183.949 518.31 183.916C518.496 183.882 518.644 183.829 518.754 183.757C518.864 183.681 518.94 183.583 518.982 183.465C519.029 183.346 519.052 183.202 519.052 183.033ZM528.942 182.176V189H526.587V182.176H522.886V180.278H532.649V182.176H528.942ZM494.766 198.633C494.766 199.191 494.705 199.689 494.582 200.125C494.459 200.556 494.286 200.933 494.062 201.254C493.841 201.576 493.575 201.849 493.262 202.073C492.953 202.298 492.608 202.477 492.227 202.613C491.846 202.748 491.436 202.848 490.996 202.911C490.556 202.97 490.096 203 489.618 203H484.083V194.278H489.605C490.084 194.278 490.543 194.31 490.983 194.374C491.423 194.433 491.833 194.53 492.214 194.666C492.599 194.801 492.949 194.981 493.262 195.205C493.575 195.425 493.841 195.698 494.062 196.024C494.286 196.346 494.459 196.722 494.582 197.154C494.705 197.585 494.766 198.078 494.766 198.633ZM492.392 198.633C492.392 198.214 492.337 197.85 492.227 197.541C492.121 197.232 491.948 196.978 491.707 196.779C491.47 196.576 491.159 196.426 490.773 196.329C490.388 196.227 489.919 196.176 489.364 196.176H486.438V201.102H489.364C489.919 201.102 490.388 201.053 490.773 200.956C491.159 200.854 491.47 200.702 491.707 200.499C491.948 200.292 492.121 200.034 492.227 199.725C492.337 199.416 492.392 199.052 492.392 198.633ZM503.926 201.35H499.063L498.245 203H495.617L500.181 194.278H502.809L507.373 203H504.745L503.926 201.35ZM499.908 199.648H503.094L501.507 196.437L499.908 199.648ZM513.181 196.176V203H510.826V196.176H507.125V194.278H516.888V196.176H513.181ZM518.449 203V194.278H527.279V196.138H520.868V197.579H526.949V199.439H520.868V201.14H527.368V203H518.449Z" fill="#FAF5EE"/>
</svg>
