<svg width="1040" height="350" viewBox="0 0 1040 350" fill="none" xmlns="http://www.w3.org/2000/svg">
<path d="M215 47.4305C348.946 32.4754 484.705 37.6038 618.841 46.9976C645.967 48.8973 676.863 47.793 703.522 54.2709C704.237 54.4446 706.192 54.9384 705.514 55.2233C702.461 56.5057 698.947 56.1257 695.643 56.349C661.908 58.6283 628.043 59.0808 594.25 59.7259C480.893 61.8897 141.278 81.6546 254.57 77.2597C333.478 74.1986 412.383 72.2108 491.298 76.4371C542.317 79.1694 594.237 82.1718 644.643 91.0702C654.477 92.8063 674.409 95.0079 682.049 103.452C684.414 106.066 677.122 109.009 673.737 109.989C646.856 117.777 617.622 118.855 589.921 120.986C515.083 126.743 439.832 129.325 365.834 142.763C353.655 144.974 341.223 147.147 329.294 150.555C317.368 153.963 331.719 153.957 335.442 154.019C394.933 155.007 454.393 151.437 513.897 153.586C516.083 153.665 561.027 153.906 546.367 161.292C511.981 178.619 471.215 182.45 434.281 191.684C430.458 192.64 425.084 193.757 421.683 196.1C416.423 199.723 433.774 200.628 440.126 201.295C468.24 204.25 493.985 205.171 519.699 217.314" stroke="#FFA665" stroke-width="15" stroke-linecap="round"/>
<path d="M63.6032 142.772L187.282 117.702" stroke="black" stroke-width="10" stroke-linecap="round"/>
<path d="M49.6642 24.9219L147.945 5.00004" stroke="black" stroke-width="10" stroke-linecap="round"/>
<path d="M61.3747 323.276L185.053 298.206" stroke="black" stroke-width="10" stroke-linecap="round"/>
<path d="M188.942 116.979L188.942 295.811" stroke="black" stroke-width="10" stroke-linecap="round"/>
<path d="M60.2493 322.553L60.2493 143.72" stroke="black" stroke-width="10" stroke-linecap="round"/>
<path d="M24.0483 128.845L147.727 103.775" stroke="black" stroke-width="10" stroke-linecap="round"/>
<path d="M148.412 122.119V109.506" stroke="black" stroke-width="10" stroke-linecap="round"/>
<path d="M22.9229 311.411L22.9229 132.578" stroke="black" stroke-width="10" stroke-linecap="round"/>
<path d="M24.1182 131.197L62.5588 142.897" stroke="black" stroke-width="10" stroke-linecap="round"/>
<path d="M22.9229 311.968L61.3636 323.667" stroke="black" stroke-width="10" stroke-linecap="round"/>
<path d="M150.582 104.456L189.023 116.155" stroke="black" stroke-width="10" stroke-linecap="round"/>
<path d="M77.0304 137.037L77.0304 25.6107" stroke="black" stroke-width="10" stroke-linecap="round"/>
<path d="M135.969 123.107V15.0279" stroke="black" stroke-width="10" stroke-linecap="round"/>
<path d="M60.4475 321.438C53.2449 323.464 46.639 325.944 43.1418 332.97C39.1788 340.932 52.634 343.035 57.728 343.035C63.1803 343.035 68.1782 341.701 72.3583 338.011C74.5324 336.092 76.6206 331.742 75.8813 328.785C73.2876 318.41 58.0779 326.051 52.501 328.749" stroke="black" stroke-width="10" stroke-linecap="round"/>
<path d="M137.329 310.854C130.126 312.879 123.52 315.359 120.023 322.385C116.06 330.347 129.515 332.45 134.609 332.45C140.062 332.45 145.059 331.116 149.24 327.426C151.414 325.507 153.502 321.157 152.762 318.2C150.169 307.825 134.959 315.466 129.382 318.164" stroke="black" stroke-width="10" stroke-linecap="round"/>
<path d="M114.724 194.688L87.3852 212.531" stroke="black" stroke-width="10" stroke-linecap="round"/>
<path d="M114.724 194.688L87.3852 212.531" stroke="black" stroke-width="10" stroke-linecap="round"/>
<path d="M110.247 217.259L110.247 208.345" stroke="black" stroke-width="10" stroke-linecap="round"/>
<path d="M148.45 212.245L148.45 203.331" stroke="black" stroke-width="10" stroke-linecap="round"/>
<path d="M138.962 192.013L168.998 198.494" stroke="black" stroke-width="10" stroke-linecap="round"/>
<path d="M189.099 207.263C273.243 160.712 208.618 154.027 189.099 141.492" stroke="black" stroke-width="10" stroke-linecap="round"/>
<path d="M35.9254 242.131C32.0471 240.789 27.3932 241.359 23.3535 240.514C16.3895 239.057 8.43855 235.647 5.95327 228.364C2.0451 216.911 10.9686 203.553 17.9558 195.351C28.6051 182.851 42.1438 173.182 56.833 166.085" stroke="black" stroke-width="10" stroke-linecap="round"/>
<path d="M225.772 231.122L295.005 217.088" stroke="black" stroke-width="8" stroke-linecap="round"/>
<path d="M217.969 165.152L272.985 154" stroke="black" stroke-width="8" stroke-linecap="round"/>
<path d="M224.524 332.165L293.757 318.131" stroke="black" stroke-width="8" stroke-linecap="round"/>
<path d="M295.934 216.684L295.934 316.79" stroke="black" stroke-width="8" stroke-linecap="round"/>
<path d="M223.895 331.759V231.653" stroke="black" stroke-width="8" stroke-linecap="round"/>
<path d="M203.63 223.326L272.863 209.293" stroke="black" stroke-width="8" stroke-linecap="round"/>
<path d="M273.246 219.561V212.501" stroke="black" stroke-width="8" stroke-linecap="round"/>
<path d="M203 325.522V225.415" stroke="black" stroke-width="8" stroke-linecap="round"/>
<path d="M203.669 224.643L225.187 231.192" stroke="black" stroke-width="8" stroke-linecap="round"/>
<path d="M203 325.834L224.518 332.383" stroke="black" stroke-width="8" stroke-linecap="round"/>
<path d="M274.461 209.673L295.979 216.222" stroke="black" stroke-width="8" stroke-linecap="round"/>
<path d="M233.288 227.911V165.537" stroke="black" stroke-width="8" stroke-linecap="round"/>
<path d="M266.281 220.114V159.614" stroke="black" stroke-width="8" stroke-linecap="round"/>
<path d="M224.005 331.136C219.974 332.27 216.276 333.658 214.318 337.591C212.1 342.048 219.632 343.225 222.483 343.225C225.535 343.225 228.333 342.478 230.673 340.413C231.89 339.339 233.059 336.903 232.645 335.248C231.193 329.44 222.679 333.718 219.557 335.228" stroke="black" stroke-width="8" stroke-linecap="round"/>
<path d="M267.042 325.21C263.01 326.344 259.312 327.732 257.355 331.665C255.136 336.122 262.668 337.3 265.52 337.3C268.572 337.3 271.369 336.553 273.709 334.488C274.926 333.413 276.095 330.978 275.681 329.323C274.23 323.515 265.715 327.792 262.594 329.303" stroke="black" stroke-width="8" stroke-linecap="round"/>
<path d="M254.388 260.183L239.085 270.172" stroke="black" stroke-width="8" stroke-linecap="round"/>
<path d="M267.956 258.686L284.77 262.314" stroke="black" stroke-width="8" stroke-linecap="round"/>
<path d="M210.934 282.704C210.934 283.394 211.146 283.999 211.377 284.657C212.657 288.294 214.338 291.647 218.489 292.353C223.876 293.27 229.557 291.9 234.773 290.696C242.37 288.942 249.885 286.844 257.42 284.85" stroke="black" stroke-width="8" stroke-linecap="round"/>
<path d="M268.659 280.967C269.377 281.529 270.335 281.206 271.128 281.001C277.395 279.38 283.672 277.299 289.66 274.837C294.322 272.919 298.906 270.667 303.293 268.185C304.776 267.345 307.916 265.505 305.711 263.678C303.147 261.553 299.457 261.798 296.346 261.862" stroke="black" stroke-width="8" stroke-linecap="round"/>
<path d="M668.112 240.633L726.414 228.815" stroke="black" stroke-width="7" stroke-linecap="round"/>
<path d="M662.592 186.391L708.922 177" stroke="black" stroke-width="7" stroke-linecap="round"/>
<path d="M668.112 327.036L726.414 315.218" stroke="black" stroke-width="7" stroke-linecap="round"/>
<path d="M728.248 229.787L728.248 314.089" stroke="black" stroke-width="7" stroke-linecap="round"/>
<path d="M667.582 326.695V242.393" stroke="black" stroke-width="7" stroke-linecap="round"/>
<path d="M650.516 235.381L708.819 223.563" stroke="black" stroke-width="7" stroke-linecap="round"/>
<path d="M709.142 223.638V229.584" stroke="black" stroke-width="7" stroke-linecap="round"/>
<path d="M649.986 321.443V237.141" stroke="black" stroke-width="7" stroke-linecap="round"/>
<path d="M650.549 236.49L668.67 242.005" stroke="black" stroke-width="7" stroke-linecap="round"/>
<path d="M649.986 321.705L668.107 327.22" stroke="black" stroke-width="7" stroke-linecap="round"/>
<path d="M710.165 223.884L728.286 229.399" stroke="black" stroke-width="7" stroke-linecap="round"/>
<path d="M690.692 265.429L690.954 279.348" stroke="black" stroke-width="7" stroke-linecap="round"/>
<path d="M707.5 262.016L707.762 275.935" stroke="black" stroke-width="7" stroke-linecap="round"/>
<path d="M675.393 237.141L675.46 186.717" stroke="black" stroke-width="7" stroke-linecap="round"/>
<path d="M701.656 231.111V181.727" stroke="black" stroke-width="7" stroke-linecap="round"/>
<path d="M667.675 326.17C664.28 327.125 661.166 328.294 659.517 331.606C657.649 335.359 663.992 336.351 666.393 336.351C668.963 336.351 671.319 335.722 673.29 333.982C674.315 333.078 675.299 331.027 674.951 329.633C673.728 324.742 666.558 328.344 663.929 329.616" stroke="black" stroke-width="7" stroke-linecap="round"/>
<path d="M703.917 321.18C700.522 322.135 697.408 323.304 695.759 326.616C693.891 330.369 700.234 331.361 702.635 331.361C705.205 331.361 707.561 330.732 709.532 328.993C710.557 328.088 711.541 326.037 711.193 324.643C709.97 319.753 702.8 323.354 700.171 324.626" stroke="black" stroke-width="7" stroke-linecap="round"/>
<path d="M663.991 280.38C661.221 278.534 655.643 280.73 652.834 281.51C647.194 283.076 641.646 284.905 636 286.454" stroke="black" stroke-width="7" stroke-linecap="round"/>
<path d="M728.952 274.174C730.583 269.068 733.983 264.252 736.779 259.739C739.563 255.242 742.556 250.87 745.456 246.447" stroke="black" stroke-width="7" stroke-linecap="round"/>
<path d="M851.611 217.722L851.611 209.712" stroke="black" stroke-width="9" stroke-linecap="round"/>
<path d="M818.571 213.217L818.571 205.207" stroke="black" stroke-width="9" stroke-linecap="round"/>
<path d="M891.036 153.795L783.677 131.269" stroke="black" stroke-width="9" stroke-linecap="round"/>
<path d="M903.136 47.9009L817.823 30.0001" stroke="black" stroke-width="9" stroke-linecap="round"/>
<path d="M892.971 315.987L785.612 293.461" stroke="black" stroke-width="9" stroke-linecap="round"/>
<path d="M782.028 130.619L782.028 291.309" stroke="black" stroke-width="9" stroke-linecap="round"/>
<path d="M894.161 315.337V154.647" stroke="black" stroke-width="9" stroke-linecap="round"/>
<path d="M925.372 141.281L818.013 118.754" stroke="black" stroke-width="9" stroke-linecap="round"/>
<path d="M817.57 135.124V124.111" stroke="black" stroke-width="9" stroke-linecap="round"/>
<path d="M926.199 305.325V144.635" stroke="black" stroke-width="9" stroke-linecap="round"/>
<path d="M924.599 143.486L891.231 153.999" stroke="black" stroke-width="9" stroke-linecap="round"/>
<path d="M926.349 305.826L892.981 316.338" stroke="black" stroke-width="9" stroke-linecap="round"/>
<path d="M815.534 119.367L782.166 129.879" stroke="black" stroke-width="9" stroke-linecap="round"/>
<path d="M879.143 148.64V48.5214" stroke="black" stroke-width="9" stroke-linecap="round"/>
<path d="M828.083 136.125V39.0102" stroke="black" stroke-width="9" stroke-linecap="round"/>
<path d="M878.59 314.336C884.812 316.167 890.518 318.408 893.539 324.76C896.962 331.958 885.339 333.859 880.939 333.859C876.229 333.859 871.912 332.653 868.301 329.317C866.423 327.583 864.619 323.65 865.258 320.977C867.498 311.598 880.637 318.505 885.454 320.945" stroke="black" stroke-width="9" stroke-linecap="round"/>
<path d="M812.512 304.825C818.733 306.656 824.44 308.897 827.461 315.249C830.884 322.446 819.261 324.348 814.861 324.348C810.151 324.348 805.834 323.142 802.223 319.806C800.345 318.071 798.541 314.139 799.18 311.465C801.42 302.087 814.559 308.994 819.376 311.433" stroke="black" stroke-width="9" stroke-linecap="round"/>
<path d="M924.603 55.2882C930.073 51.3971 951.076 50.4539 947.815 62.331C946.258 67.9998 940.582 72.0662 936.38 75.7332C932.224 79.3595 930.511 82.2161 928.989 87.495" stroke="black" stroke-width="9" stroke-linecap="round"/>
<path d="M926.289 110.417L926.95 110.278" stroke="black" stroke-width="9" stroke-linecap="round"/>
<path d="M911.181 219.724C917.548 240.402 925.207 260.865 928.702 282.298" stroke="black" stroke-width="9" stroke-linecap="round"/>
<path d="M779.525 201.703C771.26 217.394 765.967 234.403 758 250.26" stroke="black" stroke-width="9" stroke-linecap="round"/>
<path d="M1010.57 261.845L959.401 251.473" stroke="black" stroke-width="7" stroke-linecap="round"/>
<path d="M1015.41 214.242L974.753 206" stroke="black" stroke-width="7" stroke-linecap="round"/>
<path d="M1010.57 337.672L959.401 327.301" stroke="black" stroke-width="7" stroke-linecap="round"/>
<path d="M957.792 252.326L957.792 326.31" stroke="black" stroke-width="7" stroke-linecap="round"/>
<path d="M1011.03 337.373V263.389" stroke="black" stroke-width="7" stroke-linecap="round"/>
<path d="M1026.01 257.235L974.843 246.863" stroke="black" stroke-width="7" stroke-linecap="round"/>
<path d="M973.177 246.93V252.148" stroke="black" stroke-width="7" stroke-linecap="round"/>
<path d="M1026.47 332.763V258.779" stroke="black" stroke-width="7" stroke-linecap="round"/>
<path d="M1025.98 258.208L1010.08 263.048" stroke="black" stroke-width="7" stroke-linecap="round"/>
<path d="M1026.47 332.994L1010.57 337.834" stroke="black" stroke-width="7" stroke-linecap="round"/>
<path d="M973.662 247.146L957.759 251.986" stroke="black" stroke-width="7" stroke-linecap="round"/>
<path d="M1004.12 254.861V214.528" stroke="black" stroke-width="7" stroke-linecap="round"/>
<path d="M979.688 251.404V211.07" stroke="black" stroke-width="7" stroke-linecap="round"/>
<path d="M1010.95 336.912C1013.93 337.75 1016.66 338.775 1018.11 341.682C1019.75 344.976 1014.18 345.846 1012.08 345.846C1009.82 345.846 1007.75 345.294 1006.02 343.768C1005.12 342.974 1004.26 341.174 1004.57 339.951C1005.64 335.659 1011.93 338.82 1014.24 339.936" stroke="black" stroke-width="7" stroke-linecap="round"/>
<path d="M979.145 332.533C982.124 333.371 984.857 334.397 986.304 337.304C987.944 340.598 982.377 341.468 980.27 341.468C978.014 341.468 975.947 340.916 974.217 339.389C973.318 338.595 972.454 336.796 972.76 335.572C973.833 331.28 980.125 334.441 982.432 335.558" stroke="black" stroke-width="7" stroke-linecap="round"/>
<path d="M991.204 290.808C991.346 290.817 991.331 290.833 991.408 290.91" stroke="black" stroke-width="7" stroke-linecap="round"/>
<path d="M981.714 289.175C981.848 289.175 981.865 289.181 981.918 289.073" stroke="black" stroke-width="7" stroke-linecap="round"/>
<path d="M1011.51 300.604C1012.58 300.949 1013.65 301.27 1014.78 301.364C1017.19 301.565 1017.91 300.217 1019.27 298.49C1019.69 297.952 1020.25 297.667 1020.94 297.713C1022.88 297.842 1024.8 298.646 1026.7 299.005C1029.72 299.575 1032.99 298.991 1036 298.665" stroke="black" stroke-width="7" stroke-linecap="round"/>
<path d="M957.123 287.236C957.123 288.757 952.142 286.786 950.949 287.395C947.816 288.994 944.339 287.44 941 287.338" stroke="black" stroke-width="7" stroke-linecap="round"/>
</svg>
