<svg width="100" height="100" viewBox="0 0 100 100" fill="none" xmlns="http://www.w3.org/2000/svg">
<circle cx="50" cy="50" r="50" fill="#0D2610"/>
<path d="M60.2014 53.6C60.2014 56.5667 59.268 59.0333 57.4014 61C55.2014 63.3 52.2847 64.45 48.6514 64.45C47.0514 64.45 45.6347 64.2333 44.4014 63.8C43.2014 63.3667 42.118 62.7667 41.1514 62C40.2847 61.2667 39.618 60.4167 39.1514 59.45C38.6847 58.45 38.4514 57.4 38.4514 56.3C38.4514 55.3 38.8014 54.5167 39.5014 53.95C39.8347 53.65 40.3014 53.5 40.9014 53.5C42.368 53.5 43.1014 54.3 43.1014 55.9C43.1014 56.1333 43.0514 56.4333 42.9514 56.8C42.8847 57.1333 42.8514 57.4 42.8514 57.6C42.8514 58.1 42.9014 58.65 43.0014 59.25C43.1014 59.8167 43.2847 60.25 43.5514 60.55C44.8847 61.8833 46.5847 62.55 48.6514 62.55C49.6514 62.55 50.718 62.3 51.8514 61.8C52.9847 61.3 53.8847 60.6667 54.5514 59.9C55.9847 58.2667 56.7014 56.1167 56.7014 53.45C56.7014 51.3833 55.868 49.5667 54.2014 48C53.268 47.1333 52.2847 46.5167 51.2514 46.15C50.218 45.75 48.9514 45.55 47.4514 45.55C47.318 45.55 47.168 45.5667 47.0014 45.6C46.868 45.6 46.718 45.6167 46.5514 45.65C46.3847 45.6833 46.2514 45.7167 46.1514 45.75C46.0514 45.75 45.968 45.75 45.9014 45.75C45.468 45.75 45.168 45.5167 45.0014 45.05C44.9347 44.85 44.8847 44.6833 44.8514 44.55C44.8514 44.3833 44.8514 44.2167 44.8514 44.05C44.8514 43.55 45.0847 43.2667 45.5514 43.2C45.718 43.1667 45.868 43.1667 46.0014 43.2C46.1347 43.2 46.3014 43.2167 46.5014 43.25C46.7014 43.2833 46.868 43.3167 47.0014 43.35C47.168 43.35 47.318 43.35 47.4514 43.35C48.0847 43.35 48.7347 43.2667 49.4014 43.1C50.1014 42.9 50.768 42.6667 51.4014 42.4C52.3347 41.9667 53.0347 41.5167 53.5014 41.05C55.0347 39.75 55.8014 38.05 55.8014 35.95C55.8014 33.8833 55.268 32.2667 54.2014 31.1C53.6347 30.5 52.9347 30 52.1014 29.6C51.3014 29.1667 50.4514 28.9333 49.5514 28.9H48.7014C48.568 28.9 48.4347 28.9 48.3014 28.9C48.168 28.9 48.0347 28.9167 47.9014 28.95C46.4014 29.0833 45.2347 29.5667 44.4014 30.4C43.9014 30.9 43.6514 31.45 43.6514 32.05C43.6514 32.3167 43.7014 32.6 43.8014 32.9C43.9014 33.1667 43.968 33.45 44.0014 33.75C44.068 34.05 44.1014 34.3 44.1014 34.5C44.1014 35.3 43.918 35.9333 43.5514 36.4C43.218 36.8333 42.6847 37.05 41.9514 37.05L41.9014 37C40.4347 36.9 39.7014 36 39.7014 34.3C39.7014 32.4 40.5514 30.7667 42.2514 29.4C43.9514 28.0667 45.9347 27.3167 48.2014 27.15C48.368 27.1167 48.5847 27.1 48.8514 27.1H49.5514C52.4514 27.1333 54.8014 27.95 56.6014 29.55C58.3347 31.15 59.2014 33.2833 59.2014 35.95C59.2014 38.15 58.4514 40.05 56.9514 41.65C55.8514 42.85 54.4514 43.7833 52.7514 44.45C54.918 45.1167 56.6014 46.15 57.8014 47.55C59.4014 49.35 60.2014 51.3667 60.2014 53.6ZM61.1068 62.95C61.1068 62.1833 61.3568 61.5333 61.8568 61C62.3902 60.5 63.0068 60.25 63.7068 60.25C64.4735 60.25 65.1068 60.5 65.6068 61C66.1402 61.5333 66.4068 62.1833 66.4068 62.95C66.4068 63.65 66.1402 64.25 65.6068 64.75C65.1068 65.2833 64.4735 65.55 63.7068 65.55C63.0068 65.55 62.3902 65.2833 61.8568 64.75C61.3568 64.25 61.1068 63.65 61.1068 62.95Z" fill="#FAF5EE"/>
</svg>
