<svg width="410" height="266" viewBox="0 0 410 266" fill="none" xmlns="http://www.w3.org/2000/svg">
<path d="M24.5421 27.2069C23.5057 33.4248 18.1465 47.726 5 55.1875" stroke="#FFA665" stroke-width="10" stroke-linecap="round"/>
<path d="M23.6537 27.2069C24.6901 33.3261 30.0493 47.4003 43.1958 54.7434" stroke="#FFA665" stroke-width="10" stroke-linecap="round"/>
<path d="M5.88818 54.7434C18.324 60.9613 25.2733 86.6226 24.5094 100.045" stroke="#FFA665" stroke-width="10" stroke-linecap="round"/>
<path d="M43.1958 54.7434C29.4275 64.9586 26.58 86.6226 27.2348 100.045" stroke="#FFA665" stroke-width="10" stroke-linecap="round"/>
<path d="M385.182 179.99C384.145 186.208 378.786 200.509 365.64 207.971" stroke="#FFA665" stroke-width="10" stroke-linecap="round"/>
<path d="M384.293 179.99C385.33 186.109 390.689 200.184 403.835 207.527" stroke="#FFA665" stroke-width="10" stroke-linecap="round"/>
<path d="M366.528 207.527C378.964 213.745 385.913 239.406 385.149 252.829" stroke="#FFA665" stroke-width="10" stroke-linecap="round"/>
<path d="M403.835 207.527C390.067 217.742 387.22 239.406 387.874 252.829" stroke="#FFA665" stroke-width="10" stroke-linecap="round"/>
<path d="M71.665 76.0017C69.4572 80.8928 61.9712 91.4752 49.6892 94.6761" stroke="#FFA665" stroke-width="10" stroke-linecap="round"/>
<path d="M70.9463 75.8025C70.4376 81.0769 71.6758 93.8753 80.6981 102.873" stroke="#FFA665" stroke-width="10" stroke-linecap="round"/>
<path d="M50.5059 94.5093C59.2008 102.421 59.1745 125.123 55.6007 136.012" stroke="#FFA665" stroke-width="10" stroke-linecap="round"/>
<path d="M80.6978 102.873C67.3062 108.204 60.2317 125.416 57.8061 136.623" stroke="#FFA665" stroke-width="10" stroke-linecap="round"/>
<path d="M60.9585 14.549H77.8416" stroke="#FFA665" stroke-width="10" stroke-linecap="round"/>
<path d="M68.9556 5V33.4248" stroke="#FFA665" stroke-width="10" stroke-linecap="round"/>
<path d="M80.5034 146.014H97.3865" stroke="#FFA665" stroke-width="10" stroke-linecap="round"/>
<path d="M88.501 136.465V175.993" stroke="#FFA665" stroke-width="10" stroke-linecap="round"/>
<path d="M346.098 139.796L373.634 140.018" stroke="#FFA665" stroke-width="10" stroke-linecap="round"/>
<path d="M360.31 126.694V179.99" stroke="#FFA665" stroke-width="10" stroke-linecap="round"/>
<path d="M91.833 49.8045C91.8589 50.2194 91.9053 50.1759 92.1321 50.4028" stroke="#FFA665" stroke-width="10" stroke-linecap="round"/>
<path d="M405 163.466C404.155 163.863 404.272 163.645 404.402 162.868" stroke="#FFA665" stroke-width="10" stroke-linecap="round"/>
<path d="M346.076 260.377C346.114 260.908 346.161 260.591 346.375 260.377" stroke="#FFA665" stroke-width="10" stroke-linecap="round"/>
<path d="M37.0957 167.653V168.252" stroke="#FFA665" stroke-width="10" stroke-linecap="round"/>
<path d="M86.7476 234.355V234.953" stroke="#FFA665" stroke-width="10" stroke-linecap="round"/>
<path d="M338.299 23.1838L338 23.4829" stroke="#FFA665" stroke-width="10" stroke-linecap="round"/>
<path d="M280.232 179C268.732 196.833 240.632 233.1 220.232 235.5C192.566 224.667 139.132 180 146.732 88L182.232 70H256.232L292.732 88C296.133 100.5 299.794 132.1 287.232 158.5" stroke="black" stroke-width="10" stroke-linecap="round"/>
<path d="M206.5 98V126H179V152.5H206.5V182H235V152.5H262V126H235V98H206.5Z" stroke="black" stroke-width="10" stroke-linecap="round"/>
</svg>
