<svg width="100" height="100" viewBox="0 0 100 100" fill="none" xmlns="http://www.w3.org/2000/svg">
<circle cx="50" cy="50" r="50" fill="#0D2610"/>
<path d="M58.6514 54.65H52.2514V60.6C52.2514 61.3667 52.568 61.8667 53.2014 62.1C53.8347 62.3667 55.0347 62.5 56.8014 62.5V64.15H44.3014V62.55C46.2014 62.55 47.5014 62.4 48.2014 62.1C48.768 61.8333 49.0514 61.3333 49.0514 60.6V54.75H34.9014V52.8C37.5014 48.4 40.0847 44.05 42.6514 39.75C45.2514 35.4167 47.8514 31.0333 50.4514 26.6H52.2514V52.7H58.6514V54.65ZM49.0514 52.7V33.35C47.0514 36.5833 45.0847 39.8167 43.1514 43.05C41.2514 46.25 39.3014 49.4667 37.3014 52.7H49.0514ZM58.1068 62.95C58.1068 62.1833 58.3568 61.5333 58.8568 61C59.3902 60.5 60.0068 60.25 60.7068 60.25C61.4735 60.25 62.1068 60.5 62.6068 61C63.1402 61.5333 63.4068 62.1833 63.4068 62.95C63.4068 63.65 63.1402 64.25 62.6068 64.75C62.1068 65.2833 61.4735 65.55 60.7068 65.55C60.0068 65.55 59.3902 65.2833 58.8568 64.75C58.3568 64.25 58.1068 63.65 58.1068 62.95Z" fill="#FAF5EE"/>
</svg>
