<svg width="846" height="737" viewBox="0 0 846 737" fill="none" xmlns="http://www.w3.org/2000/svg">
<path d="M792.882 8.42383C829.32 54.8813 857.245 115.548 813.161 168.518C727.482 271.465 576.053 210.092 475.096 170.919C353.894 123.891 208.947 57.1146 85.6682 138.033C39.1198 168.587 5.64706 219.065 7.82264 276.114C9.95714 332.085 46.1722 376.476 99.0761 393.182C140.858 406.377 190.184 403.995 229.352 383.443C253.643 370.698 279.313 342.869 262.972 314.336C225.37 248.683 91.8704 297.922 105.28 372.771C114.482 424.137 166.85 451.071 210.808 467.759C272.866 491.32 337.508 486.563 402.12 495.242C443.845 500.847 497.512 515.228 497.109 566.884C496.657 624.909 452.151 663.04 411.059 696.427" stroke="#FFA665" stroke-width="15" stroke-linecap="round"/>
<path opacity="0.5" d="M795.16 41C831.597 87.4575 859.523 148.124 815.438 201.094C729.76 304.041 578.331 242.668 477.374 203.495C356.172 156.467 211.224 89.6908 87.9458 170.609C41.3974 201.163 7.92465 251.641 10.1002 308.69C12.2347 364.661 48.4498 409.052 101.354 425.759C143.136 438.953 192.461 436.571 231.63 416.02C255.921 403.275 281.591 375.445 265.25 346.912C227.648 281.259 94.148 330.498 107.557 405.347C116.76 456.713 169.128 483.647 213.086 500.336C275.143 523.896 339.786 519.139 404.398 527.818C446.122 533.423 499.789 547.804 499.387 599.46C498.935 657.486 454.428 695.616 413.336 729.003" stroke="#FFA665" stroke-width="15" stroke-linecap="round"/>
</svg>
