<svg width="350" height="323" viewBox="0 0 350 323" fill="none" xmlns="http://www.w3.org/2000/svg">
<path d="M9.36182 38.1512L55.599 5" stroke="#FFA665" stroke-width="10" stroke-linecap="round"/>
<path d="M83.5161 94.0401L56.4717 5.00001" stroke="#FFA665" stroke-width="10" stroke-linecap="round"/>
<path d="M83.5161 94.0401L9.36221 38.1512" stroke="#FFA665" stroke-width="10" stroke-linecap="round"/>
<path d="M16.3413 104.453L20.6904 77.4646" stroke="#FFA665" stroke-width="10" stroke-linecap="round"/>
<path d="M67.4961 105.982L21.5622 77.4647" stroke="#FFA665" stroke-width="10" stroke-linecap="round"/>
<path d="M67.4961 105.982L16.3411 105.326" stroke="#FFA665" stroke-width="10" stroke-linecap="round"/>
<path d="M345 273.066L308.968 317.095" stroke="#FFA665" stroke-width="10" stroke-linecap="round"/>
<path d="M258.868 238.371L308.126 317.322" stroke="#FFA665" stroke-width="10" stroke-linecap="round"/>
<path d="M258.868 238.371L345 273.066" stroke="#FFA665" stroke-width="10" stroke-linecap="round"/>
<path d="M321.028 210.856L323.843 238.048" stroke="#FFA665" stroke-width="10" stroke-linecap="round"/>
<path d="M271.233 222.676L323.001 238.274" stroke="#FFA665" stroke-width="10" stroke-linecap="round"/>
<path d="M271.233 222.676L320.801 210.014" stroke="#FFA665" stroke-width="10" stroke-linecap="round"/>
<path d="M55.5991 178.607L4.99999 197.8" stroke="#FFA665" stroke-width="10" stroke-linecap="round"/>
<path d="M61.8267 192.566L30.2997 217.596" stroke="#FFA665" stroke-width="10" stroke-linecap="round"/>
<path d="M257.123 120.157L308.93 135.798" stroke="#FFA665" stroke-width="10" stroke-linecap="round"/>
<path d="M258.868 105.063L298.559 98.3468" stroke="#FFA665" stroke-width="10" stroke-linecap="round"/>
<path d="M204.012 58.6521H203.523C196.335 58.6521 190.487 64.5002 190.487 71.688V194.942C190.487 202.81 187.637 210.649 182.464 217.014C178.278 222.166 175.973 228.665 175.973 235.314C175.973 251.324 188.996 264.348 205.006 264.348H209.192L198.643 242.772L200.821 235.601H211.094L219.956 256.278L222.636 254.139C223.015 253.837 226.402 250.991 228.909 244.064C229.03 243.731 229.145 243.397 229.255 243.061C232.887 231.991 230.406 219.401 222.781 210.204C220.252 207.153 218.502 203.57 217.719 199.842C217.274 197.717 217.047 195.539 217.047 193.369V71.688C217.048 64.5002 211.2 58.6521 204.012 58.6521ZM195.713 98.803H201.287V181.987H206.514V98.803H211.821V193.369C211.821 194.836 211.921 196.305 212.096 197.765H195.6C195.669 196.826 195.714 195.885 195.714 194.942V98.803H195.713ZM211.821 93.5765H195.714V91.6531H211.821V93.5765ZM203.523 63.8787H204.012C208.318 63.8787 211.821 67.3818 211.821 71.688V86.4261H195.714V71.688C195.713 67.3818 199.216 63.8787 203.523 63.8787ZM218.758 213.539C225.247 221.366 227.367 232.053 224.29 241.43C224.196 241.716 224.098 242 223.995 242.284C223.261 244.313 222.445 245.898 221.706 247.091L214.541 230.374H196.946L193.045 243.221L200.622 258.716C189.581 256.652 181.2 246.943 181.2 235.314C181.2 229.861 183.089 224.533 186.521 220.311C190.682 215.192 193.523 209.227 194.852 202.991H213.129C214.238 206.792 216.158 210.405 218.758 213.539Z" fill="black"/>
<path d="M203.9 78.6472C207.723 78.6472 210.833 75.537 210.833 71.7142C210.833 67.8909 207.723 64.7807 203.9 64.7807C200.077 64.7807 196.966 67.8909 196.966 71.7142C196.966 75.537 200.077 78.6472 203.9 78.6472ZM203.9 70.0073C204.841 70.0073 205.607 70.7725 205.607 71.7142C205.607 72.6554 204.841 73.4206 203.9 73.4206C202.959 73.4206 202.193 72.655 202.193 71.7142C202.193 70.7725 202.959 70.0073 203.9 70.0073Z" fill="black"/>
<path d="M206.514 187.212H201.287V195.736H206.514V187.212Z" fill="black"/>
<path d="M138.573 244.353C134.749 244.353 131.639 247.463 131.639 251.286C131.639 255.109 134.749 258.22 138.573 258.22C142.396 258.22 145.506 255.109 145.506 251.286C145.506 247.463 142.396 244.353 138.573 244.353ZM138.573 252.993C137.631 252.993 136.866 252.227 136.866 251.286C136.866 250.345 137.631 249.579 138.573 249.579C139.514 249.579 140.28 250.345 140.28 251.286C140.28 252.227 139.514 252.993 138.573 252.993Z" fill="black"/>
<path d="M162.1 102.846C164.892 98.2934 166.368 93.0512 166.368 87.6857C166.368 71.6763 153.344 58.6521 137.334 58.6521H133.148L143.697 80.2278L141.52 87.3987H131.245L122.384 66.7224L119.703 68.8618C119.33 69.1597 110.936 76.1019 110.786 95.3557H104.099V107.597L106.417 108.932C108.297 110.008 110.084 111.247 111.733 112.617C112.132 112.946 112.527 113.288 112.907 113.629C120.778 120.729 125.293 130.881 125.293 141.482V251.311C125.293 258.499 131.141 264.348 138.33 264.348H138.817C146.005 264.348 151.853 258.499 151.853 251.311V145.628V139.618C151.854 126.49 155.397 113.775 162.1 102.846ZM120.641 75.9233L126.343 89.2262L118.781 95.3557H116.01C116.096 85.2736 118.652 79.1607 120.641 75.9233ZM116.405 109.745C115.969 109.353 115.518 108.964 115.07 108.593C113.283 107.109 111.351 105.758 109.326 104.577V100.582H120.632L130.449 92.6252H145.395L149.295 79.7788L141.719 64.2833C152.759 66.3469 161.141 76.0557 161.141 87.6857C161.141 92.0865 159.932 96.3836 157.644 100.114C150.437 111.865 146.627 125.525 146.627 139.618V145.628V224.197H141.186V141.013H135.959V224.197H130.519V141.482C130.52 129.404 125.376 117.837 116.405 109.745ZM130.52 229.424H146.627V231.347H130.52V229.424ZM138.817 259.121H138.33C134.023 259.121 130.52 255.617 130.52 251.311V236.573H146.627V251.311C146.627 255.617 143.123 259.121 138.817 259.121Z" fill="black"/>
<path d="M146.572 98.4023H125.363V113.515H146.572V98.4023ZM130.59 103.629H133.355V108.288H130.59V103.629ZM141.346 108.288H138.581V103.629H141.346V108.288Z" fill="black"/>
<path d="M141.186 127.264H135.959V135.789H141.186V127.264Z" fill="black"/>
</svg>
