<svg width="320" height="249" viewBox="0 0 320 249" fill="none" xmlns="http://www.w3.org/2000/svg">
<path d="M70.8252 75.8015C72.0975 66.754 80.1555 48.4892 102.209 47.8107" stroke="#FFA665" stroke-width="10" stroke-linecap="round"/>
<path d="M57.2539 60.1097C58.809 53.0413 65.5663 38.7348 80.1555 38.0563" stroke="#FFA665" stroke-width="10" stroke-linecap="round"/>
<path d="M44.9551 50.3553C45.9447 43.711 51.147 30.168 64.0398 29.1501" stroke="#FFA665" stroke-width="10" stroke-linecap="round"/>
<path d="M51.3161 103.792C30.9593 100.824 30.9593 123.725 53.4366 118.212C69.5216 114.266 69.1287 139.841 47.4992 133.056" stroke="#FFA665" stroke-width="10" stroke-linecap="round"/>
<path d="M37.6025 94.3138L64.3114 141.65" stroke="#FFA665" stroke-width="7" stroke-linecap="round"/>
<path d="M24.7004 104.745C6.66668 94.8454 -1.34144 116.301 21.6448 118.995C38.094 120.924 28.783 144.747 10.8916 130.826" stroke="#FFA665" stroke-width="10" stroke-linecap="round"/>
<path d="M15.1665 91.0693L23.6368 144.757" stroke="#FFA665" stroke-width="7" stroke-linecap="round"/>
<path d="M310.145 37.8798C299.854 20.0666 281.884 34.2642 300.145 48.4829C313.213 58.6579 292.902 74.2047 284.817 53.0265" stroke="#FFA665" stroke-width="10" stroke-linecap="round"/>
<path d="M309.081 21.2431L288.496 71.546" stroke="#FFA665" stroke-width="7" stroke-linecap="round"/>
<path d="M285.82 20.6174C275.245 2.97156 257.505 17.4556 275.992 31.3795C289.221 41.3436 269.162 57.2142 260.739 36.1685" stroke="#FFA665" stroke-width="10" stroke-linecap="round"/>
<path d="M284.489 4L264.714 54.6266" stroke="#FFA665" stroke-width="7" stroke-linecap="round"/>
<path d="M297.355 202.443C299.181 209.593 298.071 226.549 279.022 237.169" stroke="#FFA665" stroke-width="10" stroke-linecap="round"/>
<path d="M313.013 219.986C314.447 224.318 313.932 235.101 300.405 243.573" stroke="#FFA665" stroke-width="10" stroke-linecap="round"/>
<circle cx="184" cy="152" r="92" stroke="black" stroke-width="10"/>
<circle cx="181.5" cy="153.5" r="69.5" stroke="black" stroke-width="10"/>
<path d="M205.612 137.54C205.946 131.706 201.512 119.84 181.112 119.04C160.712 118.24 157.279 129.706 158.112 135.54C157.612 140.873 161.512 152.14 181.112 154.54C193.5 156.057 205.612 162 205.612 174C205.612 185 197.5 189.54 183.612 189.54C169.725 189.54 159.779 178.206 158.112 170.54" stroke="black" stroke-width="10" stroke-linecap="round"/>
<path d="M182 106V202" stroke="black" stroke-width="10" stroke-linecap="round"/>
</svg>
