<svg width="360" height="460" viewBox="0 0 360 460" fill="none" xmlns="http://www.w3.org/2000/svg">
<circle cx="185.446" cy="284.268" r="163.446" fill="#DCECFB"/>
<circle cx="185.446" cy="284.268" r="163.446" fill="#DCECFB"/>
<g filter="url(#filter0_d_255_4)">
<path d="M67.6001 171.654C108.004 124.32 173.894 119.025 201.789 122.294C226.541 122.294 247.842 132.427 255.399 137.494C262.956 142.561 258.268 152.587 255.399 161.521C249.406 180.183 232.125 183.905 213.067 188.489C189.415 194.178 174.821 171.654 151.775 177.375C128.729 183.095 118.105 209.41 101.27 213.987C84.4349 218.563 17.0953 230.822 67.6001 171.654Z" fill="#567553"/>
<path d="M67.6001 171.654C108.004 124.32 173.894 119.025 201.789 122.294C226.541 122.294 247.842 132.427 255.399 137.494C262.956 142.561 258.268 152.587 255.399 161.521C249.406 180.183 232.125 183.905 213.067 188.489C189.415 194.178 174.821 171.654 151.775 177.375C128.729 183.095 118.105 209.41 101.27 213.987C84.4349 218.563 17.0953 230.822 67.6001 171.654Z" stroke="#567553" stroke-width="10"/>
</g>
<g filter="url(#filter1_d_255_4)">
<path d="M84.3947 166.975C115.79 130.195 166.988 126.081 188.663 128.621C207.896 128.621 224.448 136.495 230.32 140.432C236.192 144.369 232.549 152.159 230.32 159.101C225.663 173.603 212.235 176.495 197.426 180.056C179.048 184.476 167.708 166.975 149.801 171.42C131.893 175.865 123.638 196.313 110.557 199.869C97.4759 203.425 45.1511 212.95 84.3947 166.975Z" fill="#758773"/>
<path d="M84.3947 166.975C115.79 130.195 166.988 126.081 188.663 128.621C207.896 128.621 224.448 136.495 230.32 140.432C236.192 144.369 232.549 152.159 230.32 159.101C225.663 173.603 212.235 176.495 197.426 180.056C179.048 184.476 167.708 166.975 149.801 171.42C131.893 175.865 123.638 196.313 110.557 199.869C97.4759 203.425 45.1511 212.95 84.3947 166.975Z" stroke="#758773" stroke-width="10"/>
</g>
<g filter="url(#filter2_d_255_4)">
<path d="M36.7122 353.079C18.2755 327.451 21.8386 279.202 25.9248 258.281C30.0109 237.36 39.2769 247.924 49.4609 246.349C61.4891 244.489 72.0539 243.877 79.8619 253.214C85.0983 259.476 79.7332 267.624 85.5825 273.318C93.7697 281.287 108.263 263.975 114.839 273.318C119.469 279.894 116.498 286.042 114.839 293.912C111.127 311.529 94.1906 311.019 85.5825 329.543C76.9743 348.067 55.1489 378.708 36.7122 353.079Z" fill="#567553"/>
<path d="M36.7122 353.079C18.2755 327.451 21.8386 279.202 25.9248 258.281C30.0109 237.36 39.2769 247.924 49.4609 246.349C61.4891 244.489 72.0539 243.877 79.8619 253.214C85.0983 259.476 79.7332 267.624 85.5825 273.318C93.7697 281.287 108.263 263.975 114.839 273.318C119.469 279.894 116.498 286.042 114.839 293.912C111.127 311.529 94.1906 311.019 85.5825 329.543C76.9743 348.067 55.1489 378.708 36.7122 353.079Z" stroke="#567553" stroke-width="10"/>
</g>
<g filter="url(#filter3_d_255_4)">
<path d="M41.5245 337.948C28.7929 320.25 31.2534 286.931 34.0751 272.483C36.8969 258.036 43.2956 265.332 50.3283 264.244C58.6345 262.959 65.9301 262.537 71.322 268.984C74.9381 273.309 71.2332 278.936 75.2724 282.867C80.9262 288.371 90.9345 276.416 95.476 282.867C98.6728 287.409 96.6211 291.654 95.476 297.089C92.9124 309.255 81.2168 308.903 75.2724 321.694C69.328 334.486 54.2562 355.645 41.5245 337.948Z" fill="#758773"/>
<path d="M41.5245 337.948C28.7929 320.25 31.2534 286.931 34.0751 272.483C36.8969 258.036 43.2956 265.332 50.3283 264.244C58.6345 262.959 65.9301 262.537 71.322 268.984C74.9381 273.309 71.2332 278.936 75.2724 282.867C80.9262 288.371 90.9345 276.416 95.476 282.867C98.6728 287.409 96.6211 291.654 95.476 297.089C92.9124 309.255 81.2168 308.903 75.2724 321.694C69.328 334.486 54.2562 355.645 41.5245 337.948Z" stroke="#758773" stroke-width="10"/>
</g>
<g filter="url(#filter4_d_255_4)">
<path d="M261.447 428.591C190.054 468.079 114.346 434.366 85.4164 412.573C56.4865 390.78 100.499 391.024 111.077 377.923C125.301 360.308 130.56 323.293 149.977 334.936C163.118 342.816 151.157 361.29 161.746 372.366C173.381 384.536 186.877 390.184 202.934 385.114C221.84 379.146 210.853 350.158 228.595 341.311C240.133 335.557 251.477 334.937 261.447 338.042C271.418 341.147 332.841 389.102 261.447 428.591Z" fill="#567553"/>
<path d="M261.447 428.591C190.054 468.079 114.346 434.366 85.4164 412.573C56.4865 390.78 100.499 391.024 111.077 377.923C125.301 360.308 130.56 323.293 149.977 334.936C163.118 342.816 151.157 361.29 161.746 372.366C173.381 384.536 186.877 390.184 202.934 385.114C221.84 379.146 210.853 350.158 228.595 341.311C240.133 335.557 251.477 334.937 261.447 338.042C271.418 341.147 332.841 389.102 261.447 428.591Z" stroke="#567553" stroke-width="10"/>
</g>
<g filter="url(#filter5_d_255_4)">
<path d="M122.19 226.198C128.186 190.312 179.035 228.354 215.354 226.198C235.447 225.005 253.185 206.521 266.676 221.458C277.971 233.963 271 248.321 266.676 264.608C261.321 284.781 253.617 296.268 237.256 309.228C220.371 322.604 205.99 333.623 185.28 327.698C177.287 325.411 166.647 317.401 166.647 317.401C166.647 317.401 148.526 309.047 140.659 299.585C129.559 286.233 131.455 274.016 127.584 257.089C124.854 245.151 120.172 238.277 122.19 226.198Z" fill="#567553"/>
<path d="M122.19 226.198C128.186 190.312 179.035 228.354 215.354 226.198C235.447 225.005 253.185 206.521 266.676 221.458C277.971 233.963 271 248.321 266.676 264.608C261.321 284.781 253.617 296.268 237.256 309.228C220.371 322.604 205.99 333.623 185.28 327.698C177.287 325.411 166.647 317.401 166.647 317.401C166.647 317.401 148.526 309.047 140.659 299.585C129.559 286.233 131.455 274.016 127.584 257.089C124.854 245.151 120.172 238.277 122.19 226.198Z" stroke="#567553" stroke-width="10"/>
</g>
<g filter="url(#filter6_d_255_4)">
<path d="M134.552 231.959C139.74 200.906 183.743 233.825 215.172 231.959C232.559 230.927 247.909 214.932 259.584 227.858C269.358 238.679 263.325 251.104 259.584 265.198C254.949 282.655 248.283 292.595 234.125 303.81C219.513 315.385 207.069 324.92 189.147 319.793C182.23 317.814 173.023 310.882 173.023 310.882C173.023 310.882 157.342 303.653 150.534 295.465C140.928 283.911 142.569 273.339 139.219 258.691C136.857 248.361 132.805 242.412 134.552 231.959Z" fill="#758773"/>
<path d="M134.552 231.959C139.74 200.906 183.743 233.825 215.172 231.959C232.559 230.927 247.909 214.932 259.584 227.858C269.358 238.679 263.325 251.104 259.584 265.198C254.949 282.655 248.283 292.595 234.125 303.81C219.513 315.385 207.069 324.92 189.147 319.793C182.23 317.814 173.023 310.882 173.023 310.882C173.023 310.882 157.342 303.653 150.534 295.465C140.928 283.911 142.569 273.339 139.219 258.691C136.857 248.361 132.805 242.412 134.552 231.959Z" stroke="#758773" stroke-width="10"/>
</g>
<g filter="url(#filter7_d_255_4)">
<path d="M335.816 347.685C386.975 257.79 293.157 160.376 284.657 156.617C276.158 152.858 279.638 160.103 277.302 163.155C268.095 175.182 280.775 186.597 284.657 201.238C288.439 215.5 296.752 220.947 296.752 237.032V278.221C296.752 294.306 311.19 247.765 311.953 308.622C312.716 369.478 284.657 437.58 335.816 347.685Z" fill="#567553"/>
<path d="M335.816 347.685C386.975 257.79 293.157 160.376 284.657 156.617C276.158 152.858 279.638 160.103 277.302 163.155C268.095 175.182 280.775 186.597 284.657 201.238C288.439 215.5 296.752 220.947 296.752 237.032V278.221C296.752 294.306 311.19 247.765 311.953 308.622C312.716 369.478 284.657 437.58 335.816 347.685Z" stroke="#567553" stroke-width="10"/>
</g>
<g filter="url(#filter8_d_255_4)">
<path d="M334.972 317.077C367.558 259.817 307.799 197.768 302.385 195.374C296.972 192.979 299.188 197.594 297.7 199.538C291.836 207.199 299.912 214.469 302.385 223.795C304.794 232.88 310.089 236.35 310.089 246.595V272.831C310.089 283.077 319.286 253.432 319.772 292.195C320.257 330.959 302.385 374.338 334.972 317.077Z" fill="#758773"/>
<path d="M334.972 317.077C367.558 259.817 307.799 197.768 302.385 195.374C296.972 192.979 299.188 197.594 297.7 199.538C291.836 207.199 299.912 214.469 302.385 223.795C304.794 232.88 310.089 236.35 310.089 246.595V272.831C310.089 283.077 319.286 253.432 319.772 292.195C320.257 330.959 302.385 374.338 334.972 317.077Z" stroke="#758773" stroke-width="10"/>
</g>
<g filter="url(#filter9_d_255_4)">
<path d="M271.743 411.592C245.101 440.686 133.958 433.331 100.942 411.592C67.9261 389.854 110.088 397.189 117.45 389.2C127.543 378.249 138.596 353.179 147.197 365.337C152.174 372.372 143.78 379.492 147.197 387.402C153.08 401.021 167.273 400.907 182.011 402.603C195.762 404.185 205.646 404.815 216.989 396.882C229.998 387.783 219.277 368.933 234.314 360.107C249.351 351.281 252.783 356.838 263.407 356.838C274.031 356.838 298.385 382.499 271.743 411.592Z" fill="#758773"/>
<path d="M271.743 411.592C245.101 440.686 133.958 433.331 100.942 411.592C67.9261 389.854 110.088 397.189 117.45 389.2C127.543 378.249 138.596 353.179 147.197 365.337C152.174 372.372 143.78 379.492 147.197 387.402C153.08 401.021 167.273 400.907 182.011 402.603C195.762 404.185 205.646 404.815 216.989 396.882C229.998 387.783 219.277 368.933 234.314 360.107C249.351 351.281 252.783 356.838 263.407 356.838C274.031 356.838 298.385 382.499 271.743 411.592Z" stroke="#758773" stroke-width="10"/>
</g>
<path d="M37.2188 84.0491L92.5472 56.0629" stroke="black" stroke-width="7" stroke-linecap="round"/>
<path d="M15.2637 30.032L59.2304 7.79279" stroke="black" stroke-width="7" stroke-linecap="round"/>
<path d="M59.6738 169.854L115.002 141.868" stroke="black" stroke-width="7" stroke-linecap="round"/>
<path d="M93.2402 55.5042L116.533 140.228" stroke="black" stroke-width="7" stroke-linecap="round"/>
<path d="M59.0469 169.658L35.7541 84.935" stroke="black" stroke-width="7" stroke-linecap="round"/>
<path d="M16.666 82.6028L71.9944 54.6166" stroke="black" stroke-width="7" stroke-linecap="round"/>
<path d="M74.709 63.218L73.0661 57.2425" stroke="black" stroke-width="7" stroke-linecap="round"/>
<path d="M39.9121 169.241L16.6193 84.5178" stroke="black" stroke-width="7" stroke-linecap="round"/>
<path d="M17.0039 83.7083L36.7393 84.244" stroke="black" stroke-width="7" stroke-linecap="round"/>
<path d="M39.9824 169.505L59.7178 170.041" stroke="black" stroke-width="7" stroke-linecap="round"/>
<path d="M73.4355 54.5674L93.171 55.1032" stroke="black" stroke-width="7" stroke-linecap="round"/>
<path d="M42.832 79.5828L28.3189 26.7938" stroke="black" stroke-width="7" stroke-linecap="round"/>
<path d="M68.9414 65.3071L54.8641 14.1035" stroke="black" stroke-width="7" stroke-linecap="round"/>
<path d="M58.9949 169.105C55.8465 171.002 53.0398 173.037 52.2981 176.822C51.4577 181.11 58.1062 180.354 60.5195 179.69C63.1026 178.98 65.2966 177.697 66.7964 175.405C67.5764 174.212 67.999 171.879 67.2636 170.575C64.6836 165.997 58.473 171.598 56.1824 173.603" stroke="black" stroke-width="7" stroke-linecap="round"/>
<path d="M94.0379 154.076C90.8894 155.974 88.0828 158.009 87.3411 161.793C86.5006 166.082 93.1491 165.326 95.5625 164.662C98.1455 163.952 100.34 162.669 101.839 160.376C102.619 159.184 103.042 156.851 102.307 155.546C99.7265 150.969 93.516 156.57 91.2254 158.575" stroke="black" stroke-width="7" stroke-linecap="round"/>
<path d="M36.6621 131.156C36.8226 131.74 37.1422 132.203 37.4911 132.706C39.4206 135.487 41.6233 137.933 45.301 137.565C50.0732 137.087 54.5628 134.606 58.6973 132.373C64.7183 129.121 70.5905 125.598 76.5039 122.156" stroke="black" stroke-width="7" stroke-linecap="round"/>
<path d="M85.1153 116.255C85.8536 116.563 86.59 116.067 87.2129 115.709C92.1399 112.879 96.9681 109.658 101.463 106.18C104.963 103.473 108.318 100.5 111.454 97.3781C112.513 96.3227 114.742 94.0346 112.451 93.0013C109.787 91.7994 106.721 92.8656 104.103 93.6432" stroke="black" stroke-width="7" stroke-linecap="round"/>
<path d="M37.2188 84.0491L92.5472 56.0629" stroke="black" stroke-width="7" stroke-linecap="round"/>
<path d="M15.2637 30.032L59.2304 7.79279" stroke="black" stroke-width="7" stroke-linecap="round"/>
<path d="M59.6738 169.854L115.002 141.868" stroke="black" stroke-width="7" stroke-linecap="round"/>
<path d="M93.2402 55.5042L116.533 140.228" stroke="black" stroke-width="7" stroke-linecap="round"/>
<path d="M59.0469 169.658L35.7541 84.935" stroke="black" stroke-width="7" stroke-linecap="round"/>
<path d="M16.666 82.6028L71.9944 54.6166" stroke="black" stroke-width="7" stroke-linecap="round"/>
<path d="M74.709 63.218L73.0661 57.2425" stroke="black" stroke-width="7" stroke-linecap="round"/>
<path d="M39.9121 169.241L16.6193 84.5178" stroke="black" stroke-width="7" stroke-linecap="round"/>
<path d="M17.0039 83.7083L36.7393 84.244" stroke="black" stroke-width="7" stroke-linecap="round"/>
<path d="M39.9824 169.505L59.7178 170.041" stroke="black" stroke-width="7" stroke-linecap="round"/>
<path d="M73.4355 54.5674L93.171 55.1032" stroke="black" stroke-width="7" stroke-linecap="round"/>
<path d="M42.832 79.5828L28.3189 26.7938" stroke="black" stroke-width="7" stroke-linecap="round"/>
<path d="M68.9414 65.3071L54.8641 14.1035" stroke="black" stroke-width="7" stroke-linecap="round"/>
<path d="M58.9949 169.105C55.8465 171.002 53.0398 173.037 52.2981 176.822C51.4577 181.11 58.1062 180.354 60.5195 179.69C63.1026 178.98 65.2966 177.697 66.7964 175.405C67.5764 174.212 67.999 171.879 67.2636 170.575C64.6836 165.997 58.473 171.598 56.1824 173.603" stroke="black" stroke-width="7" stroke-linecap="round"/>
<path d="M94.0379 154.076C90.8894 155.974 88.0828 158.009 87.3411 161.793C86.5006 166.082 93.1491 165.326 95.5625 164.662C98.1455 163.952 100.34 162.669 101.839 160.376C102.619 159.184 103.042 156.851 102.307 155.546C99.7265 150.969 93.516 156.57 91.2254 158.575" stroke="black" stroke-width="7" stroke-linecap="round"/>
<path d="M36.6621 131.156C36.8226 131.74 37.1422 132.203 37.4911 132.706C39.4206 135.487 41.6233 137.933 45.301 137.565C50.0732 137.087 54.5628 134.606 58.6973 132.373C64.7183 129.121 70.5905 125.598 76.5039 122.156" stroke="black" stroke-width="7" stroke-linecap="round"/>
<path d="M85.1153 116.255C85.8536 116.563 86.59 116.067 87.2129 115.709C92.1399 112.879 96.9681 109.658 101.463 106.18C104.963 103.473 108.318 100.5 111.454 97.3781C112.513 96.3227 114.742 94.0346 112.451 93.0013C109.787 91.7994 106.721 92.8656 104.103 93.6432" stroke="black" stroke-width="7" stroke-linecap="round"/>
<path d="M65.041 96.4709L69.1508 110.387" stroke="black" stroke-width="7" stroke-linecap="round"/>
<path d="M80.9922 88.395L85.102 102.311" stroke="black" stroke-width="7" stroke-linecap="round"/>
<defs>
<filter id="filter0_d_255_4" x="40.1426" y="116.513" width="228.348" height="114.713" filterUnits="userSpaceOnUse" color-interpolation-filters="sRGB">
<feFlood flood-opacity="0" result="BackgroundImageFix"/>
<feColorMatrix in="SourceAlpha" type="matrix" values="0 0 0 0 0 0 0 0 0 0 0 0 0 0 0 0 0 0 127 0" result="hardAlpha"/>
<feOffset dy="4"/>
<feGaussianBlur stdDeviation="2"/>
<feComposite in2="hardAlpha" operator="out"/>
<feColorMatrix type="matrix" values="0 0 0 0 0 0 0 0 0 0 0 0 0 0 0 0 0 0 0.25 0"/>
<feBlend mode="normal" in2="BackgroundImageFix" result="effect1_dropShadow_255_4"/>
<feBlend mode="normal" in="SourceGraphic" in2="effect1_dropShadow_255_4" result="shape"/>
</filter>
<filter id="filter1_d_255_4" x="61.0527" y="123.014" width="181.445" height="93.1484" filterUnits="userSpaceOnUse" color-interpolation-filters="sRGB">
<feFlood flood-opacity="0" result="BackgroundImageFix"/>
<feColorMatrix in="SourceAlpha" type="matrix" values="0 0 0 0 0 0 0 0 0 0 0 0 0 0 0 0 0 0 127 0" result="hardAlpha"/>
<feOffset dy="4"/>
<feGaussianBlur stdDeviation="2"/>
<feComposite in2="hardAlpha" operator="out"/>
<feColorMatrix type="matrix" values="0 0 0 0 0 0 0 0 0 0 0 0 0 0 0 0 0 0 0.25 0"/>
<feBlend mode="normal" in2="BackgroundImageFix" result="effect1_dropShadow_255_4"/>
<feBlend mode="normal" in="SourceGraphic" in2="effect1_dropShadow_255_4" result="shape"/>
</filter>
<filter id="filter2_d_255_4" x="13.6426" y="240.052" width="112.674" height="135.828" filterUnits="userSpaceOnUse" color-interpolation-filters="sRGB">
<feFlood flood-opacity="0" result="BackgroundImageFix"/>
<feColorMatrix in="SourceAlpha" type="matrix" values="0 0 0 0 0 0 0 0 0 0 0 0 0 0 0 0 0 0 127 0" result="hardAlpha"/>
<feOffset dy="4"/>
<feGaussianBlur stdDeviation="2"/>
<feComposite in2="hardAlpha" operator="out"/>
<feColorMatrix type="matrix" values="0 0 0 0 0 0 0 0 0 0 0 0 0 0 0 0 0 0 0.25 0"/>
<feBlend mode="normal" in2="BackgroundImageFix" result="effect1_dropShadow_255_4"/>
<feBlend mode="normal" in="SourceGraphic" in2="effect1_dropShadow_255_4" result="shape"/>
</filter>
<filter id="filter3_d_255_4" x="22.8086" y="258.348" width="83.377" height="99.3672" filterUnits="userSpaceOnUse" color-interpolation-filters="sRGB">
<feFlood flood-opacity="0" result="BackgroundImageFix"/>
<feColorMatrix in="SourceAlpha" type="matrix" values="0 0 0 0 0 0 0 0 0 0 0 0 0 0 0 0 0 0 127 0" result="hardAlpha"/>
<feOffset dy="4"/>
<feGaussianBlur stdDeviation="2"/>
<feComposite in2="hardAlpha" operator="out"/>
<feColorMatrix type="matrix" values="0 0 0 0 0 0 0 0 0 0 0 0 0 0 0 0 0 0 0.25 0"/>
<feBlend mode="normal" in2="BackgroundImageFix" result="effect1_dropShadow_255_4"/>
<feBlend mode="normal" in="SourceGraphic" in2="effect1_dropShadow_255_4" result="shape"/>
</filter>
<filter id="filter4_d_255_4" x="66.7207" y="327.713" width="237.791" height="132.118" filterUnits="userSpaceOnUse" color-interpolation-filters="sRGB">
<feFlood flood-opacity="0" result="BackgroundImageFix"/>
<feColorMatrix in="SourceAlpha" type="matrix" values="0 0 0 0 0 0 0 0 0 0 0 0 0 0 0 0 0 0 127 0" result="hardAlpha"/>
<feOffset dy="4"/>
<feGaussianBlur stdDeviation="2"/>
<feComposite in2="hardAlpha" operator="out"/>
<feColorMatrix type="matrix" values="0 0 0 0 0 0 0 0 0 0 0 0 0 0 0 0 0 0 0.25 0"/>
<feBlend mode="normal" in2="BackgroundImageFix" result="effect1_dropShadow_255_4"/>
<feBlend mode="normal" in="SourceGraphic" in2="effect1_dropShadow_255_4" result="shape"/>
</filter>
<filter id="filter5_d_255_4" x="112.699" y="205.72" width="169.1" height="136.621" filterUnits="userSpaceOnUse" color-interpolation-filters="sRGB">
<feFlood flood-opacity="0" result="BackgroundImageFix"/>
<feColorMatrix in="SourceAlpha" type="matrix" values="0 0 0 0 0 0 0 0 0 0 0 0 0 0 0 0 0 0 127 0" result="hardAlpha"/>
<feOffset dy="4"/>
<feGaussianBlur stdDeviation="2"/>
<feComposite in2="hardAlpha" operator="out"/>
<feColorMatrix type="matrix" values="0 0 0 0 0 0 0 0 0 0 0 0 0 0 0 0 0 0 0.25 0"/>
<feBlend mode="normal" in2="BackgroundImageFix" result="effect1_dropShadow_255_4"/>
<feBlend mode="normal" in="SourceGraphic" in2="effect1_dropShadow_255_4" result="shape"/>
</filter>
<filter id="filter6_d_255_4" x="125.127" y="213.566" width="148.754" height="120.649" filterUnits="userSpaceOnUse" color-interpolation-filters="sRGB">
<feFlood flood-opacity="0" result="BackgroundImageFix"/>
<feColorMatrix in="SourceAlpha" type="matrix" values="0 0 0 0 0 0 0 0 0 0 0 0 0 0 0 0 0 0 127 0" result="hardAlpha"/>
<feOffset dy="4"/>
<feGaussianBlur stdDeviation="2"/>
<feComposite in2="hardAlpha" operator="out"/>
<feColorMatrix type="matrix" values="0 0 0 0 0 0 0 0 0 0 0 0 0 0 0 0 0 0 0.25 0"/>
<feBlend mode="normal" in2="BackgroundImageFix" result="effect1_dropShadow_255_4"/>
<feBlend mode="normal" in="SourceGraphic" in2="effect1_dropShadow_255_4" result="shape"/>
</filter>
<filter id="filter7_d_255_4" x="265.02" y="150.561" width="94.9824" height="253.543" filterUnits="userSpaceOnUse" color-interpolation-filters="sRGB">
<feFlood flood-opacity="0" result="BackgroundImageFix"/>
<feColorMatrix in="SourceAlpha" type="matrix" values="0 0 0 0 0 0 0 0 0 0 0 0 0 0 0 0 0 0 127 0" result="hardAlpha"/>
<feOffset dy="4"/>
<feGaussianBlur stdDeviation="2"/>
<feComposite in2="hardAlpha" operator="out"/>
<feColorMatrix type="matrix" values="0 0 0 0 0 0 0 0 0 0 0 0 0 0 0 0 0 0 0.25 0"/>
<feBlend mode="normal" in2="BackgroundImageFix" result="effect1_dropShadow_255_4"/>
<feBlend mode="normal" in="SourceGraphic" in2="effect1_dropShadow_255_4" result="shape"/>
</filter>
<filter id="filter8_d_255_4" x="286.609" y="189.701" width="67.0371" height="168.036" filterUnits="userSpaceOnUse" color-interpolation-filters="sRGB">
<feFlood flood-opacity="0" result="BackgroundImageFix"/>
<feColorMatrix in="SourceAlpha" type="matrix" values="0 0 0 0 0 0 0 0 0 0 0 0 0 0 0 0 0 0 127 0" result="hardAlpha"/>
<feOffset dy="4"/>
<feGaussianBlur stdDeviation="2"/>
<feComposite in2="hardAlpha" operator="out"/>
<feColorMatrix type="matrix" values="0 0 0 0 0 0 0 0 0 0 0 0 0 0 0 0 0 0 0.25 0"/>
<feBlend mode="normal" in2="BackgroundImageFix" result="effect1_dropShadow_255_4"/>
<feBlend mode="normal" in="SourceGraphic" in2="effect1_dropShadow_255_4" result="shape"/>
</filter>
<filter id="filter9_d_255_4" x="79.4727" y="350.112" width="213.312" height="93.6411" filterUnits="userSpaceOnUse" color-interpolation-filters="sRGB">
<feFlood flood-opacity="0" result="BackgroundImageFix"/>
<feColorMatrix in="SourceAlpha" type="matrix" values="0 0 0 0 0 0 0 0 0 0 0 0 0 0 0 0 0 0 127 0" result="hardAlpha"/>
<feOffset dy="4"/>
<feGaussianBlur stdDeviation="2"/>
<feComposite in2="hardAlpha" operator="out"/>
<feColorMatrix type="matrix" values="0 0 0 0 0 0 0 0 0 0 0 0 0 0 0 0 0 0 0.25 0"/>
<feBlend mode="normal" in2="BackgroundImageFix" result="effect1_dropShadow_255_4"/>
<feBlend mode="normal" in="SourceGraphic" in2="effect1_dropShadow_255_4" result="shape"/>
</filter>
</defs>
</svg>
