<svg width="106" height="86" viewBox="0 0 106 86" fill="none" xmlns="http://www.w3.org/2000/svg">
<path d="M22.7148 29.7188C17.5516 29.7188 15.6995 35.3183 15.4671 39.9664C14.8726 51.8574 30.2844 43.6859 33.334 38.1611C39.8093 26.4305 26.4335 25.2792 18.9184 30.8339C12.8359 35.3296 9.17805 40.9806 8.16639 48.568C6.48384 61.1872 17.9255 70.3913 26.0598 77.9833" stroke="#FFA665" stroke-width="15" stroke-linecap="round"/>
<path d="M80.5366 12.9399C76.5317 13.3615 67.55 18.5125 67.6342 22.9751C67.8541 34.6298 87.8227 25.8662 91.9523 22.8689C101.11 16.222 99.6675 5.35698 87.2799 8.58599C79.2221 10.6864 70.9394 15.4632 66.413 22.63C59.8628 33.0012 63.3646 44.3329 65.2449 55.47" stroke="#FFA665" stroke-width="15" stroke-linecap="round"/>
</svg>
