<svg width="909" height="344" viewBox="0 0 909 344" fill="none" xmlns="http://www.w3.org/2000/svg">
<path d="M8 94C54.4649 94 183.2 68.5505 228.136 58.3108C280.221 46.4422 332.359 34.982 385.193 26.9165C455.902 16.1225 531.188 3.2272 602.895 10.5331C686.898 19.092 777.135 48.4463 803.955 138.083C821.956 198.245 791.167 267.061 762.868 319.415" stroke="#FFA665" stroke-width="15" stroke-linecap="round"/>
<path d="M746.561 236.746C752.64 267.75 751.749 299.826 759.782 330.619C762.526 341.14 767.601 334.937 774.052 329.22C790.205 314.906 805.69 299.95 822.387 286.236C847.612 265.518 874.52 247.578 901.431 229.191" stroke="#FFA665" stroke-width="15" stroke-linecap="round"/>
</svg>
