<svg width="44" height="58" viewBox="0 0 44 58" fill="none" xmlns="http://www.w3.org/2000/svg">
<path d="M42.6256 37.2952C42.6256 48.2113 33.4503 57.0907 22.0941 57.0907C10.7379 57.0907 1.5625 48.2113 1.5625 37.2952C1.5625 26.3791 10.7379 17.4998 22.0941 17.4998C33.4503 17.4998 42.6256 26.3791 42.6256 37.2952Z" stroke="#FFA665"/>
<path d="M16.3784 12.9671C16.4702 12.984 16.5621 13.0008 16.654 13.0177C16.7582 13.0292 16.8562 13.0434 16.9481 13.0603C16.9272 13.5788 16.8298 14.0454 16.6561 14.4601C16.4823 14.8749 16.2536 15.2569 15.9698 15.6061C15.5842 16.0842 15.0719 16.4615 14.4329 16.7379C13.2162 17.2642 11.9811 17.3528 10.7274 17.0037C9.39408 16.6324 8.29364 15.8278 7.42604 14.59C6.58888 13.3956 6.3086 12.2645 6.58521 11.1968C6.83431 10.1126 7.55489 9.31273 8.74694 8.79704C9.939 8.28135 11.0922 8.17868 12.2066 8.48902C13.3778 8.78896 14.3743 9.52526 15.1963 10.6979C14.0762 11.2249 12.9784 11.7494 11.9028 12.2713C10.8196 12.7823 9.71178 13.304 8.57942 13.8363C8.60986 13.8798 8.63416 13.9258 8.65231 13.9746C8.67515 14.0072 8.70178 14.0452 8.73222 14.0886C9.05187 14.5446 9.40866 14.928 9.8026 15.2387C10.2088 15.5441 10.6499 15.7849 11.1257 15.9611C12.1477 16.368 13.1686 16.3509 14.1886 15.9096C14.7294 15.6757 15.2072 15.3063 15.622 14.8014C15.7934 14.5432 15.9435 14.2661 16.0722 13.9698C16.2056 13.6574 16.3076 13.3232 16.3784 12.9671ZM8.18249 13.2015C9.08896 12.781 9.97934 12.3605 10.8536 11.9398C11.7279 11.5191 12.6183 11.0986 13.5248 10.6781C13.0102 9.96681 12.3549 9.50031 11.5589 9.27864C10.7202 9.01885 9.91985 9.05377 9.15791 9.38338C8.42056 9.70236 7.95802 10.2421 7.77031 11.0025C7.58903 11.7035 7.72642 12.4365 8.18249 13.2015Z" fill="#0D2610"/>
<path d="M26.2938 14.6179L22.429 15.1872L22.2845 14.5655C22.747 14.4974 23.0571 14.3914 23.215 14.2476C23.4065 14.072 23.4541 13.777 23.3578 13.3625L22.2246 8.48585C21.9718 7.39783 21.3234 6.93071 20.2796 7.08448C19.6586 7.17596 19.1608 7.35647 18.7861 7.626C18.6222 7.74391 18.4328 7.89908 18.2179 8.09149C17.9999 8.27095 17.7631 8.48669 17.5074 8.7387L18.7399 14.0428C18.8302 14.4314 18.9763 14.6778 19.1781 14.782C19.2989 14.8312 19.4563 14.8616 19.6503 14.8732C19.8473 14.8977 20.078 14.8906 20.3422 14.8516L20.4867 15.4734L16.6219 16.0427L16.4774 15.421C16.9795 15.347 17.3248 15.2158 17.5133 15.0272C17.6154 14.8782 17.6212 14.6095 17.5309 14.2209L16.2848 8.85851C16.2036 8.50879 16.0863 8.29833 15.9331 8.22713C15.715 8.1119 15.3616 8.09029 14.8727 8.16231C14.8312 8.10144 14.7948 8.03312 14.7636 7.95735C14.7455 7.87964 14.7157 7.81035 14.6743 7.74948C15.064 7.54471 15.4471 7.34092 15.8235 7.1381C16.2133 6.93334 16.603 6.72857 16.9927 6.52381L17.3132 7.90326C18.2256 6.83113 19.2632 6.20942 20.4259 6.03813C21.2319 5.9194 21.8858 6.05751 22.3875 6.45245C22.8923 6.86035 23.244 7.49174 23.4426 8.34661L24.5623 13.165C24.6556 13.5665 24.7966 13.8203 24.9852 13.9265C25.106 13.9757 25.2634 14.0061 25.4574 14.0177C25.6544 14.0423 25.885 14.0351 26.1493 13.9962L26.2938 14.6179Z" fill="#0D2610"/>
<path d="M33.5756 15.6971C33.0325 15.6408 32.5786 15.6138 32.214 15.6162C32.1057 15.6183 31.9498 15.6222 31.7464 15.6279C31.5563 15.635 31.3265 15.638 31.0569 15.6368C31.0623 15.5302 31.0678 15.4236 31.0733 15.317C31.092 15.2118 31.1041 15.1059 31.1096 14.9993C30.384 15.5134 29.4517 15.7114 28.3125 15.5932C27.1734 15.4751 26.2965 14.9822 25.682 14.1148C25.002 13.1602 24.8001 11.9069 25.0763 10.355C25.3315 8.92144 25.9451 7.78624 26.9169 6.94941C27.8421 6.14792 28.8808 5.80694 30.0332 5.92648C31.0929 6.0364 31.9281 6.38424 32.5389 6.96999L33.1007 3.81351C33.1499 3.53731 33.1001 3.32453 32.9513 3.17514C32.8025 3.02576 32.4168 2.91878 31.7943 2.8542C31.7795 2.78569 31.7725 2.7113 31.7733 2.63101C31.7873 2.5521 31.787 2.47839 31.7722 2.40988C32.2639 2.30015 32.749 2.18973 33.2274 2.07862C33.7215 1.95573 34.2155 1.83285 34.7096 1.70996L32.5288 13.9611C32.475 14.2636 32.5104 14.4816 32.635 14.615C32.8196 14.9423 33.1636 15.132 33.6669 15.1842L33.5756 15.6971ZM32.3668 7.93666C31.8808 7.25669 31.2006 6.87136 30.3264 6.78067C29.7568 6.72159 29.2234 6.80021 28.7262 7.01653C28.229 7.23286 27.7981 7.56991 27.4333 8.02768C26.9251 8.68489 26.582 9.51327 26.4041 10.5128C26.1957 11.6834 26.3318 12.6619 26.8124 13.4485C27.2882 14.2613 27.9832 14.7152 28.8971 14.81C29.7979 14.9034 30.5904 14.6574 31.2747 14.0721L32.3668 7.93666Z" fill="#0D2610"/>
</svg>
