<svg width="240" height="237" viewBox="0 0 240 237" fill="none" xmlns="http://www.w3.org/2000/svg">
<circle cx="124.37" cy="124.212" r="100" fill="#0D2610"/>
<path d="M85.9836 79.1687L82.8627 82.4797C80.6832 81.9003 78.5292 81.3449 76.4007 80.8136C74.2552 80.2662 72.0928 79.7029 69.9133 79.1235L66.7684 82.4599L72.8809 88.2216C73.4921 88.7978 74.0522 89.0371 74.561 88.9395C75.1668 88.7731 75.8698 88.2654 76.6701 87.4164L77.4851 88.1847L71.5553 94.4754L70.7403 93.7072C71.6206 92.7734 72.1019 92.0246 72.1843 91.461C72.2177 90.9153 71.9542 90.3783 71.3939 89.8502L58.3539 77.5585C57.8785 77.1104 57.3699 76.9356 56.8281 77.0341C56.2693 77.1167 55.5498 77.6249 54.6695 78.5587L53.8036 77.7425L61.1978 69.8981C64.8629 66.0099 68.2151 65.4982 71.2543 68.363C72.341 69.3873 73.0013 70.5068 73.2353 71.7213C73.5348 73.4786 72.9462 75.3447 71.4694 77.3196C73.2152 77.7467 74.9445 78.1743 76.6573 78.6024C78.3701 79.0305 80.0994 79.4581 81.8452 79.8852C82.4268 80.0166 82.962 79.976 83.4509 79.7635C83.9558 79.534 84.5284 79.0797 85.1686 78.4005L85.9836 79.1687ZM69.5709 70.0469C68.4673 69.0066 67.2572 68.5554 65.9408 68.6933C64.5914 68.8322 63.3325 69.5214 62.1641 70.7609L60.0515 73.0021C59.4593 73.6304 59.1611 74.1509 59.1568 74.5637C59.1544 75.0424 59.3824 75.4979 59.8409 75.93L65.7751 81.5236L69.7363 77.3213C70.7766 76.2177 71.2938 75.0057 71.2878 73.6853C71.2468 72.3 70.6745 71.0872 69.5709 70.0469Z" fill="#FAF5EE"/>
<path d="M94.146 69.8246C94.2946 69.8404 94.4432 69.8563 94.5917 69.8721C94.76 69.8754 94.9184 69.885 95.0669 69.9009C95.0471 70.9102 94.9029 71.833 94.634 72.6692C94.3652 73.5054 94.0068 74.288 93.5589 75.0171C92.9503 76.015 92.1347 76.8405 91.1122 77.4936C89.1654 78.7371 87.177 79.135 85.1468 78.6875C82.9878 78.2115 81.1923 76.8526 79.7605 74.6109C78.3788 72.4478 77.8965 70.3056 78.3135 68.1842C78.6857 66.0361 79.8255 64.3529 81.7329 63.1345C83.6404 61.9162 85.4964 61.5059 87.3009 61.9038C89.1967 62.271 90.8229 63.5165 92.1794 65.6402C90.3883 66.8673 88.633 68.0854 86.9134 69.2945C85.1813 70.4839 83.4099 71.6985 81.5991 72.9381C81.6494 73.0168 81.6898 73.1017 81.7204 73.1929C81.758 73.2519 81.802 73.3207 81.8522 73.3994C82.3798 74.2253 82.9652 74.9035 83.6086 75.4339C84.2716 75.9518 84.989 76.338 85.7607 76.5926C87.4189 77.1947 89.064 76.9745 90.6962 75.932C91.5614 75.3793 92.3215 74.5754 92.9765 73.5202C93.2458 72.9883 93.4802 72.4233 93.6797 71.8252C93.8862 71.1949 94.0416 70.5281 94.146 69.8246ZM80.9422 71.7796C82.3919 70.7982 83.8156 69.8196 85.2135 68.8437C86.6113 67.8678 88.035 66.8892 89.4847 65.9079C88.6361 64.6226 87.5673 63.8379 86.2783 63.5537C84.9194 63.2034 83.6304 63.4177 82.4112 64.1964C81.2313 64.95 80.5004 66.0814 80.2184 67.5905C79.9451 68.9832 80.1864 70.3796 80.9422 71.7796Z" fill="#FAF5EE"/>
<path d="M111.071 68.0779L104.652 70.3967L104.271 69.3433C105.039 69.0658 105.541 68.7729 105.777 68.4644C106.063 68.0882 106.079 67.549 105.825 66.8467L102.841 58.5843C102.175 56.7409 100.975 56.1323 99.2412 56.7586C98.2098 57.1312 97.4064 57.6199 96.831 58.2247C96.5792 58.4893 96.2924 58.8286 95.9706 59.2425C95.6408 59.6345 95.287 60.0973 94.9091 60.6307L98.1554 69.6174C98.3932 70.2757 98.6944 70.6631 99.059 70.7795C99.2742 70.8258 99.5473 70.8264 99.8783 70.7813C100.217 70.7581 100.606 70.6672 101.045 70.5086L101.426 71.562L95.0066 73.8808L94.626 72.8274C95.46 72.5262 96.0159 72.1765 96.2938 71.7784C96.434 71.4796 96.3852 71.0011 96.1474 70.3427L92.8654 61.2573C92.6514 60.6648 92.4069 60.3314 92.1319 60.257C91.7375 60.1266 91.1343 60.2081 90.3223 60.5014C90.2388 60.4075 90.1623 60.2987 90.0928 60.175C90.0452 60.0433 89.9797 59.9305 89.8961 59.8366C90.5112 59.3416 91.1153 58.8505 91.7084 58.3633C92.3234 57.8682 92.9385 57.3731 93.5535 56.8781L94.3978 59.2153C95.7082 57.0053 97.329 55.5514 99.2602 54.8538C100.599 54.3703 101.736 54.3936 102.672 54.9239C103.616 55.4761 104.349 56.4764 104.872 57.9248L107.821 66.0885C108.067 66.7688 108.361 67.1711 108.704 67.2954C108.919 67.3417 109.192 67.3423 109.523 67.2972C109.862 67.274 110.251 67.1831 110.69 67.0245L111.071 68.0779Z" fill="#FAF5EE"/>
<path d="M117.934 63.9989C118.065 64.0723 118.181 64.1361 118.285 64.1903C118.411 64.2407 118.537 64.2911 118.664 64.3415C118.406 65.3761 117.973 66.2738 117.364 67.0346C116.681 67.9256 115.867 68.4477 114.923 68.601C113.679 68.8029 112.662 68.5071 111.871 67.7135C111.635 67.421 111.425 67.0768 111.243 66.6809C111.06 66.285 110.928 65.8338 110.846 65.3271L108.989 53.8918L106.294 54.3293L106.115 53.2237C107.359 53.0218 108.203 52.4001 108.649 51.3586C109.141 50.1676 109.224 48.5703 108.899 46.5665L109.936 46.3983L110.878 52.2023L115.404 51.4675L115.622 52.8149L111.097 53.5496L112.992 65.2268C113.191 66.4474 113.935 66.9531 115.224 66.7437C116.261 66.5754 117.164 65.6605 117.934 63.9989Z" fill="#FAF5EE"/>
<path d="M146.309 70.0383L138.333 68.711L138.523 67.5716C139.513 67.7364 140.251 67.7055 140.738 67.4791C141.202 67.2488 141.494 66.7769 141.613 66.0634L143.124 56.9833L130.833 54.9377L129.322 64.0178C129.195 64.7774 129.272 65.3106 129.552 65.6174C129.94 65.9894 130.697 66.2692 131.825 66.4569L131.636 67.5963L123.695 66.2747L123.884 65.1354C125.104 65.3384 125.95 65.3017 126.422 65.0254C126.771 64.776 127.001 64.3176 127.112 63.6501L130.117 45.5935C130.228 44.926 130.144 44.4388 129.864 44.132C129.48 43.737 128.724 43.4456 127.596 43.2579L127.78 42.1531L135.548 43.446L135.365 44.5508C134.26 44.3669 133.496 44.4054 133.074 44.6664C132.683 44.8851 132.434 45.3167 132.327 45.9612L131.045 53.6603L143.336 55.7059L144.618 48.0068C144.725 47.3623 144.594 46.8675 144.226 46.5223C143.842 46.1273 143.144 45.8455 142.131 45.677L142.315 44.5722L150.153 45.8765L149.969 46.9813C148.864 46.7974 148.066 46.8302 147.575 47.0797C147.211 47.2792 146.973 47.7128 146.862 48.3802L143.857 66.4369C143.73 67.1964 143.807 67.7296 144.087 68.0364C144.475 68.4084 145.278 68.6959 146.498 68.899L146.309 70.0383Z" fill="#FAF5EE"/>
<path d="M158.954 72.1554C159.021 72.289 159.088 72.4227 159.154 72.5563C159.242 72.6997 159.32 72.8383 159.387 72.9719C158.526 73.4998 157.671 73.8761 156.822 74.1009C155.973 74.3257 155.121 74.4462 154.265 74.4624C153.097 74.4883 151.962 74.247 150.86 73.7384C148.763 72.7701 147.355 71.3105 146.637 69.3597C145.873 67.285 146.048 65.0402 147.163 62.6252C148.239 60.2949 149.782 58.733 151.794 57.9396C153.803 57.0941 155.835 57.1457 157.89 58.0944C159.945 59.0432 161.292 60.3846 161.93 62.1186C162.644 63.913 162.473 65.9541 161.416 68.242C159.417 67.396 157.444 66.5752 155.498 65.7797C153.562 64.9629 151.584 64.1267 149.563 63.2708C149.524 63.3556 149.475 63.4354 149.414 63.5104C149.385 63.5739 149.351 63.6481 149.312 63.7328C148.901 64.6225 148.646 65.4814 148.546 66.3092C148.468 67.1469 148.53 67.9593 148.732 68.7464C149.119 70.4674 150.192 71.7338 151.951 72.5456C152.883 72.9759 153.97 73.1822 155.211 73.1645C155.805 73.1043 156.407 72.9968 157.018 72.842C157.66 72.6759 158.305 72.447 158.954 72.1554ZM150.184 62.0927C151.793 62.7838 153.385 63.4547 154.961 64.1051C156.537 64.7555 158.129 65.4264 159.737 66.1176C160.361 64.7096 160.446 63.3863 159.989 62.1477C159.551 60.8146 158.675 59.8448 157.362 59.2384C156.091 58.6516 154.744 58.6465 153.321 59.2232C152.001 59.7445 150.955 60.701 150.184 62.0927Z" fill="#FAF5EE"/>
<path d="M175.74 71.1859C175.026 72.1672 174.235 72.3422 173.367 71.711C173.009 71.4502 172.729 71.0016 172.529 70.3652C172.4 69.8677 172.147 69.4817 171.769 69.2072C171.279 68.8504 170.46 68.6875 169.312 68.7184C168.398 68.7458 167.454 68.8531 166.481 69.0401L161.5 75.8902C161.115 76.4186 160.956 76.8364 161.021 77.1434C161.091 77.4831 161.542 77.9549 162.372 78.5587L161.713 79.4645L156.335 75.5533L156.994 74.6475C157.485 75.0043 157.889 75.241 158.209 75.3577C158.528 75.4743 158.789 75.4915 158.993 75.4091C159.197 75.3268 159.416 75.1252 159.65 74.8044L165.66 66.5389C165.935 66.1615 166.054 65.8587 166.018 65.6306C165.997 65.5002 165.899 65.2986 165.722 65.0259C165.499 64.7771 165.199 64.5155 164.821 64.241C164.852 64.1192 164.893 64.0043 164.942 63.8962C164.992 63.7881 165.032 63.6732 165.063 63.5514C165.846 63.7452 166.612 63.9416 167.361 64.1406C168.125 64.3207 168.888 64.5008 169.651 64.6809L167.531 67.5965C168.3 67.4918 169.041 67.4249 169.754 67.3957C170.468 67.3665 171.131 67.3871 171.744 67.4574C173.085 67.5963 174.199 67.9883 175.086 68.6333C176.181 69.4293 176.399 70.2801 175.74 71.1859Z" fill="#FAF5EE"/>
<path d="M178.491 89.676C178.503 89.825 178.514 89.974 178.525 90.1229C178.552 90.289 178.571 90.4465 178.583 90.5955C177.586 90.7582 176.653 90.7828 175.782 90.6693C174.911 90.5557 174.076 90.3445 173.278 90.0354C172.187 89.6169 171.228 88.9637 170.401 88.0758C168.827 86.3854 168.076 84.5014 168.15 82.4238C168.229 80.2143 169.241 78.2031 171.188 76.3902C173.066 74.641 175.086 73.78 177.248 73.8073C179.428 73.7858 181.289 74.6032 182.832 76.2594C184.374 77.9157 185.113 79.6672 185.047 81.514C185.028 83.4449 184.096 85.2691 182.252 86.9866C180.722 85.4463 179.207 83.9396 177.708 82.4664C176.225 80.9774 174.711 79.4542 173.165 77.8969C173.097 77.9605 173.02 78.0155 172.936 78.0621C172.885 78.1098 172.825 78.1654 172.757 78.2291C172.04 78.897 171.478 79.5952 171.073 80.3237C170.683 81.0693 170.433 81.8446 170.321 82.6496C170.028 84.3892 170.542 85.9676 171.862 87.3848C172.561 88.1361 173.489 88.7387 174.645 89.1925C175.217 89.3615 175.815 89.49 176.439 89.5783C177.097 89.6677 177.781 89.7002 178.491 89.676ZM174.186 77.0417C175.413 78.2905 176.632 79.5143 177.844 80.713C179.056 81.9118 180.276 83.1356 181.503 84.3844C182.614 83.3178 183.193 82.1249 183.24 80.8058C183.339 79.406 182.896 78.1768 181.91 77.1182C180.956 76.0937 179.711 75.5789 178.176 75.5738C176.756 75.5564 175.427 76.0457 174.186 77.0417Z" fill="#FAF5EE"/>
<path d="M197.211 86.5208C196.513 86.8451 195.573 87.2042 194.392 87.5981C193.243 88.0034 192.014 88.4324 190.707 88.8853C189.399 89.3381 188.092 89.791 186.784 90.2439C185.486 90.7179 184.351 91.181 183.377 91.633L183.009 90.8394C184.151 90.3087 185.323 89.7006 186.522 89.0149C187.721 88.3292 188.879 87.6372 189.996 86.9387C191.143 86.2515 192.221 85.6093 193.23 85.0121C194.239 84.4149 195.114 83.9443 195.855 83.6004C196.892 83.1188 197.739 82.8667 198.398 82.8439C199.066 82.8424 199.513 83.0849 199.739 83.5717C199.975 84.0796 199.829 84.5974 199.303 85.125C198.797 85.6428 198.1 86.1081 197.211 86.5208ZM178.971 95.1073C178.526 95.3136 178.072 95.3318 177.607 95.1618C177.152 95.0129 176.831 94.7375 176.644 94.3354C176.438 93.891 176.424 93.4469 176.604 93.0032C176.784 92.5595 177.096 92.2345 177.541 92.0281C177.985 91.8217 178.424 91.7979 178.858 91.9566C179.313 92.1054 179.644 92.4021 179.85 92.8465C180.047 93.2697 180.055 93.7032 179.875 94.1469C179.717 94.5808 179.415 94.9009 178.971 95.1073Z" fill="#FAF5EE"/>
<path d="M164.115 169.454L167.261 166.167C169.436 166.762 171.586 167.333 173.71 167.881C175.852 168.444 178.01 169.023 180.185 169.619L183.355 166.306L177.285 160.499C176.678 159.918 176.12 159.675 175.611 159.769C175.004 159.931 174.297 160.433 173.49 161.276L172.681 160.502L178.657 154.255L179.467 155.03C178.58 155.957 178.093 156.702 178.006 157.265C177.969 157.81 178.228 158.349 178.784 158.882L191.732 171.27C192.204 171.722 192.712 171.9 193.254 171.806C193.814 171.728 194.537 171.225 195.424 170.298L196.284 171.12L188.832 178.909C185.138 182.77 181.782 183.257 178.764 180.369C177.685 179.337 177.033 178.213 176.808 176.996C176.522 175.237 177.124 173.375 178.615 171.411C176.873 170.971 175.147 170.531 173.437 170.09C171.728 169.649 170.002 169.209 168.259 168.768C167.679 168.633 167.143 168.669 166.653 168.878C166.146 169.104 165.57 169.554 164.925 170.228L164.115 169.454ZM180.46 178.698C181.556 179.747 182.762 180.207 184.08 180.079C185.43 179.95 186.694 179.27 187.872 178.039L190.001 175.814C190.598 175.19 190.9 174.672 190.907 174.259C190.913 173.78 190.689 173.323 190.233 172.888L184.341 167.25L180.349 171.423C179.3 172.518 178.774 173.727 178.77 175.047C178.801 176.432 179.364 177.65 180.46 178.698Z" fill="#FAF5EE"/>
<path d="M164.115 169.454L167.261 166.167C169.436 166.762 171.586 167.333 173.71 167.881C175.852 168.444 178.01 169.023 180.185 169.619L183.355 166.306L177.285 160.499C176.678 159.918 176.12 159.675 175.611 159.769C175.004 159.931 174.297 160.433 173.49 161.276L172.681 160.502L178.657 154.255L179.467 155.03C178.58 155.957 178.093 156.702 178.006 157.265C177.969 157.81 178.228 158.349 178.784 158.882L191.732 171.27C192.204 171.722 192.712 171.9 193.254 171.806C193.814 171.728 194.537 171.225 195.424 170.298L196.284 171.12L188.832 178.909C185.138 182.77 181.782 183.257 178.764 180.369C177.685 179.337 177.033 178.213 176.808 176.996C176.522 175.237 177.124 173.375 178.615 171.411C176.873 170.971 175.147 170.531 173.437 170.09C171.728 169.649 170.002 169.209 168.259 168.768C167.679 168.633 167.143 168.669 166.653 168.878C166.146 169.104 165.57 169.554 164.925 170.228L164.115 169.454ZM180.46 178.698C181.556 179.747 182.762 180.207 184.08 180.079C185.43 179.95 186.694 179.27 187.872 178.039L190.001 175.814C190.598 175.19 190.9 174.672 190.907 174.259C190.913 173.78 190.689 173.323 190.233 172.888L184.341 167.25L180.349 171.423C179.3 172.518 178.774 173.727 178.77 175.047C178.801 176.432 179.364 177.65 180.46 178.698Z" fill="#FAF5EE"/>
<path d="M155.884 178.737C155.735 178.72 155.587 178.703 155.438 178.686C155.27 178.682 155.112 178.671 154.963 178.654C154.991 177.645 155.142 176.723 155.417 175.889C155.692 175.055 156.056 174.275 156.509 173.549C157.125 172.556 157.947 171.736 158.975 171.091C160.93 169.862 162.922 169.479 164.949 169.942C167.104 170.434 168.889 171.806 170.304 174.058C171.67 176.232 172.136 178.377 171.703 180.495C171.315 182.641 170.163 184.315 168.246 185.52C166.33 186.724 164.471 187.12 162.669 186.709C160.776 186.327 159.16 185.07 157.819 182.936C159.619 181.722 161.384 180.517 163.112 179.321C164.853 178.145 166.633 176.943 168.453 175.717C168.404 175.638 168.364 175.553 168.334 175.462C168.297 175.402 168.253 175.333 168.204 175.254C167.682 174.424 167.102 173.742 166.463 173.207C165.803 172.684 165.089 172.292 164.319 172.032C162.665 171.417 161.019 171.625 159.379 172.656C158.51 173.202 157.743 174 157.081 175.05C156.807 175.58 156.569 176.144 156.365 176.74C156.154 177.369 155.993 178.034 155.884 178.737ZM169.102 176.881C167.645 177.851 166.214 178.819 164.809 179.785C163.404 180.75 161.973 181.718 160.516 182.689C161.355 183.98 162.418 184.773 163.704 185.067C165.061 185.427 166.351 185.222 167.576 184.453C168.762 183.708 169.501 182.582 169.794 181.075C170.078 179.684 169.847 178.286 169.102 176.881Z" fill="#FAF5EE"/>
<path d="M155.884 178.737C155.735 178.72 155.587 178.703 155.438 178.686C155.27 178.682 155.112 178.671 154.963 178.654C154.991 177.645 155.142 176.723 155.417 175.889C155.692 175.055 156.056 174.275 156.509 173.549C157.125 172.556 157.947 171.736 158.975 171.091C160.93 169.862 162.922 169.479 164.949 169.942C167.104 170.434 168.889 171.806 170.304 174.058C171.67 176.232 172.136 178.377 171.703 180.495C171.315 182.641 170.163 184.315 168.246 185.52C166.33 186.724 164.471 187.12 162.669 186.709C160.776 186.327 159.16 185.07 157.819 182.936C159.619 181.722 161.384 180.517 163.112 179.321C164.853 178.145 166.633 176.943 168.453 175.717C168.404 175.638 168.364 175.553 168.334 175.462C168.297 175.402 168.253 175.333 168.204 175.254C167.682 174.424 167.102 173.742 166.463 173.207C165.803 172.684 165.089 172.292 164.319 172.032C162.665 171.417 161.019 171.625 159.379 172.656C158.51 173.202 157.743 174 157.081 175.05C156.807 175.58 156.569 176.144 156.365 176.74C156.154 177.369 155.993 178.034 155.884 178.737ZM169.102 176.881C167.645 177.851 166.214 178.819 164.809 179.785C163.404 180.75 161.973 181.718 160.516 182.689C161.355 183.98 162.418 184.773 163.704 185.067C165.061 185.427 166.351 185.222 167.576 184.453C168.762 183.708 169.501 182.582 169.794 181.075C170.078 179.684 169.847 178.286 169.102 176.881Z" fill="#FAF5EE"/>
<path d="M138.947 180.358L145.383 178.087L145.755 179.143C144.985 179.415 144.481 179.704 144.243 180.011C143.954 180.385 143.934 180.924 144.183 181.628L147.106 189.912C147.758 191.761 148.953 192.378 150.691 191.765C151.725 191.4 152.532 190.917 153.112 190.317C153.366 190.054 153.655 189.717 153.98 189.305C154.313 188.916 154.67 188.456 155.052 187.925L151.873 178.914C151.64 178.254 151.342 177.865 150.978 177.746C150.763 177.698 150.49 177.695 150.159 177.738C149.82 177.758 149.43 177.846 148.99 178.002L148.617 176.945L155.053 174.675L155.426 175.731C154.59 176.026 154.031 176.371 153.75 176.767C153.608 177.065 153.653 177.544 153.886 178.204L157.1 187.314C157.31 187.908 157.552 188.243 157.826 188.319C158.22 188.453 158.824 188.376 159.638 188.089C159.721 188.183 159.796 188.292 159.865 188.417C159.911 188.549 159.976 188.662 160.059 188.756C159.44 189.247 158.833 189.734 158.236 190.216C157.617 190.707 156.998 191.197 156.38 191.688L155.553 189.344C154.226 191.544 152.594 192.986 150.658 193.669C149.316 194.143 148.179 194.111 147.247 193.574C146.307 193.015 145.581 192.009 145.069 190.557L142.181 182.371C141.94 181.689 141.649 181.285 141.307 181.158C141.092 181.11 140.819 181.107 140.488 181.15C140.149 181.171 139.759 181.258 139.319 181.414L138.947 180.358Z" fill="#FAF5EE"/>
<path d="M138.947 180.358L145.383 178.087L145.755 179.143C144.985 179.415 144.481 179.704 144.243 180.011C143.954 180.385 143.934 180.924 144.183 181.628L147.106 189.912C147.758 191.761 148.953 192.378 150.691 191.765C151.725 191.4 152.532 190.917 153.112 190.317C153.366 190.054 153.655 189.717 153.98 189.305C154.313 188.916 154.67 188.456 155.052 187.925L151.873 178.914C151.64 178.254 151.342 177.865 150.978 177.746C150.763 177.698 150.49 177.695 150.159 177.738C149.82 177.758 149.43 177.846 148.99 178.002L148.617 176.945L155.053 174.675L155.426 175.731C154.59 176.026 154.031 176.371 153.75 176.767C153.608 177.065 153.653 177.544 153.886 178.204L157.1 187.314C157.31 187.908 157.552 188.243 157.826 188.319C158.22 188.453 158.824 188.376 159.638 188.089C159.721 188.183 159.796 188.292 159.865 188.417C159.911 188.549 159.976 188.662 160.059 188.756C159.44 189.247 158.833 189.734 158.236 190.216C157.617 190.707 156.998 191.197 156.38 191.688L155.553 189.344C154.226 191.544 152.594 192.986 150.658 193.669C149.316 194.143 148.179 194.111 147.247 193.574C146.307 193.015 145.581 192.009 145.069 190.557L142.181 182.371C141.94 181.689 141.649 181.285 141.307 181.158C141.092 181.11 140.819 181.107 140.488 181.15C140.149 181.171 139.759 181.258 139.319 181.414L138.947 180.358Z" fill="#FAF5EE"/>
<path d="M132.052 184.385C131.923 184.311 131.807 184.246 131.704 184.191C131.578 184.14 131.452 184.089 131.326 184.037C131.591 183.005 132.031 182.11 132.646 181.354C133.335 180.468 134.153 179.952 135.098 179.806C136.343 179.613 137.358 179.917 138.143 180.716C138.377 181.01 138.584 181.356 138.764 181.753C138.943 182.151 139.072 182.603 139.151 183.11L140.922 194.559L143.62 194.141L143.791 195.248C142.546 195.441 141.697 196.056 141.244 197.095C140.743 198.282 140.647 199.878 140.958 201.885L139.92 202.045L139.021 196.234L134.49 196.935L134.281 195.586L138.812 194.885L137.004 183.194C136.815 181.972 136.074 181.461 134.783 181.661C133.745 181.821 132.835 182.73 132.052 184.385Z" fill="#FAF5EE"/>
<path d="M132.052 184.385C131.923 184.311 131.807 184.246 131.704 184.191C131.578 184.14 131.452 184.089 131.326 184.037C131.591 183.005 132.031 182.11 132.646 181.354C133.335 180.468 134.153 179.952 135.098 179.806C136.343 179.613 137.358 179.917 138.143 180.716C138.377 181.01 138.584 181.356 138.764 181.753C138.943 182.151 139.072 182.603 139.151 183.11L140.922 194.559L143.62 194.141L143.791 195.248C142.546 195.441 141.697 196.056 141.244 197.095C140.743 198.282 140.647 199.878 140.958 201.885L139.92 202.045L139.021 196.234L134.49 196.935L134.281 195.586L138.812 194.885L137.004 183.194C136.815 181.972 136.074 181.461 134.783 181.661C133.745 181.821 132.835 182.73 132.052 184.385Z" fill="#FAF5EE"/>
<path d="M103.724 178.135L111.689 179.521L111.491 180.659C110.503 180.487 109.764 180.512 109.275 180.735C108.809 180.962 108.514 181.432 108.39 182.144L106.812 191.213L119.087 193.35L120.666 184.282C120.798 183.523 120.725 182.989 120.447 182.68C120.062 182.305 119.307 182.02 118.18 181.824L118.379 180.686L126.309 182.067L126.111 183.205C124.893 182.992 124.047 183.023 123.573 183.296C123.222 183.542 122.989 183.999 122.873 184.666L119.733 202.699C119.617 203.366 119.698 203.854 119.975 204.163C120.356 204.561 121.11 204.858 122.236 205.054L122.044 206.157L114.286 204.806L114.478 203.703C115.581 203.895 116.345 203.862 116.769 203.604C117.162 203.389 117.414 202.959 117.526 202.315L118.865 194.626L106.589 192.489L105.251 200.178C105.139 200.822 105.266 201.318 105.631 201.665C106.012 202.063 106.708 202.35 107.72 202.526L107.527 203.63L99.7002 202.267L99.8923 201.164C100.996 201.356 101.794 201.329 102.287 201.083C102.652 200.886 102.893 200.455 103.009 199.788L106.149 181.754C106.281 180.996 106.208 180.462 105.93 180.153C105.546 179.778 104.744 179.485 103.526 179.272L103.724 178.135Z" fill="#FAF5EE"/>
<path d="M103.724 178.135L111.689 179.521L111.491 180.659C110.503 180.487 109.764 180.512 109.275 180.735C108.809 180.962 108.514 181.432 108.39 182.144L106.812 191.213L119.087 193.35L120.666 184.282C120.798 183.523 120.725 182.989 120.447 182.68C120.062 182.305 119.307 182.02 118.18 181.824L118.379 180.686L126.309 182.067L126.111 183.205C124.893 182.992 124.047 183.023 123.573 183.296C123.222 183.542 122.989 183.999 122.873 184.666L119.733 202.699C119.617 203.366 119.698 203.854 119.975 204.163C120.356 204.561 121.11 204.858 122.236 205.054L122.044 206.157L114.286 204.806L114.478 203.703C115.581 203.895 116.345 203.862 116.769 203.604C117.162 203.389 117.414 202.959 117.526 202.315L118.865 194.626L106.589 192.489L105.251 200.178C105.139 200.822 105.266 201.318 105.631 201.665C106.012 202.063 106.708 202.35 107.72 202.526L107.527 203.63L99.7002 202.267L99.8923 201.164C100.996 201.356 101.794 201.329 102.287 201.083C102.652 200.886 102.893 200.455 103.009 199.788L106.149 181.754C106.281 180.996 106.208 180.462 105.93 180.153C105.546 179.778 104.744 179.485 103.526 179.272L103.724 178.135Z" fill="#FAF5EE"/>
<path d="M91.0948 175.923C91.029 175.789 90.9632 175.655 90.8974 175.521C90.8105 175.377 90.7341 175.238 90.6683 175.104C91.5328 174.582 92.3904 174.212 93.2411 173.994C94.0919 173.775 94.9451 173.661 95.8007 173.651C96.9694 173.634 98.1026 173.884 99.2003 174.401C101.29 175.385 102.687 176.855 103.391 178.811C104.14 180.891 103.947 183.135 102.814 185.541C101.721 187.863 100.166 189.414 98.1492 190.192C96.1335 191.023 94.1017 190.956 92.0539 189.992C90.0062 189.028 88.6695 187.676 88.0438 185.938C87.3436 184.138 87.5302 182.098 88.6036 179.818C90.5967 180.679 92.5631 181.515 94.5029 182.325C96.4327 183.156 98.4047 184.007 100.419 184.878C100.459 184.793 100.509 184.714 100.57 184.639C100.6 184.576 100.634 184.502 100.674 184.418C101.092 183.531 101.353 182.674 101.459 181.847C101.543 181.01 101.488 180.197 101.292 179.408C100.917 177.685 99.8533 176.41 98.1011 175.585C97.1722 175.148 96.0868 174.934 94.8449 174.942C94.2513 174.998 93.6483 175.101 93.036 175.251C92.3927 175.412 91.7456 175.637 91.0948 175.923ZM99.7891 186.051C98.1859 185.348 96.5989 184.665 95.028 184.003C93.457 183.341 91.87 182.658 90.2668 181.955C89.632 183.358 89.538 184.681 89.9849 185.923C90.4132 187.259 91.2817 188.236 92.5906 188.852C93.8573 189.448 95.2041 189.463 96.6312 188.897C97.9551 188.386 99.0078 187.437 99.7891 186.051Z" fill="#FAF5EE"/>
<path d="M91.0948 175.923C91.029 175.789 90.9632 175.655 90.8974 175.521C90.8105 175.377 90.7341 175.238 90.6683 175.104C91.5328 174.582 92.3904 174.212 93.2411 173.994C94.0919 173.775 94.9451 173.661 95.8007 173.651C96.9694 173.634 98.1026 173.884 99.2003 174.401C101.29 175.385 102.687 176.855 103.391 178.811C104.14 180.891 103.947 183.135 102.814 185.541C101.721 187.863 100.166 189.414 98.1492 190.192C96.1335 191.023 94.1017 190.956 92.0539 189.992C90.0062 189.028 88.6695 187.676 88.0438 185.938C87.3436 184.138 87.5302 182.098 88.6036 179.818C90.5967 180.679 92.5631 181.515 94.5029 182.325C96.4327 183.156 98.4047 184.007 100.419 184.878C100.459 184.793 100.509 184.714 100.57 184.639C100.6 184.576 100.634 184.502 100.674 184.418C101.092 183.531 101.353 182.674 101.459 181.847C101.543 181.01 101.488 180.197 101.292 179.408C100.917 177.685 99.8533 176.41 98.1011 175.585C97.1722 175.148 96.0868 174.934 94.8449 174.942C94.2513 174.998 93.6483 175.101 93.036 175.251C92.3927 175.412 91.7456 175.637 91.0948 175.923ZM99.7891 186.051C98.1859 185.348 96.5989 184.665 95.028 184.003C93.457 183.341 91.87 182.658 90.2668 181.955C89.632 183.358 89.538 184.681 89.9849 185.923C90.4132 187.259 91.2817 188.236 92.5906 188.852C93.8573 189.448 95.2041 189.463 96.6312 188.897C97.9551 188.386 99.0078 187.437 99.7891 186.051Z" fill="#FAF5EE"/>
<path d="M74.3022 176.768C75.0231 175.792 75.8152 175.623 76.6785 176.26C77.0351 176.524 77.3114 176.974 77.5074 177.612C77.6324 178.111 77.8825 178.499 78.2579 178.776C78.7459 179.136 79.5638 179.305 80.7116 179.283C81.6262 179.262 82.5705 179.162 83.5445 178.982L88.5771 172.17C88.9653 171.644 89.1279 171.228 89.065 170.92C88.9972 170.58 88.5504 170.105 87.7246 169.495L88.39 168.594L93.7389 172.545L93.0735 173.446C92.5855 173.085 92.1824 172.846 91.8642 172.727C91.546 172.608 91.2845 172.589 91.0798 172.669C90.875 172.75 90.6548 172.95 90.4191 173.269L84.3468 181.49C84.0695 181.865 83.9481 182.167 83.9824 182.395C84.002 182.526 84.0991 182.728 84.2738 183.002C84.495 183.253 84.7932 183.516 85.1686 183.794C85.1368 183.915 85.0956 184.03 85.0451 184.138C84.9945 184.245 84.9534 184.36 84.9216 184.481C84.1408 184.282 83.3763 184.08 82.6281 183.875C81.8661 183.689 81.104 183.504 80.342 183.318L82.484 180.418C81.7147 180.517 80.9731 180.578 80.2592 180.602C79.5454 180.626 78.8825 180.601 78.2706 180.526C76.9302 180.377 75.8189 179.977 74.9368 179.325C73.8483 178.521 73.6367 177.668 74.3022 176.768Z" fill="#FAF5EE"/>
<path d="M74.3022 176.768C75.0231 175.792 75.8152 175.623 76.6785 176.26C77.0351 176.524 77.3114 176.974 77.5074 177.612C77.6324 178.111 77.8825 178.499 78.2579 178.776C78.7459 179.136 79.5638 179.305 80.7116 179.283C81.6262 179.262 82.5705 179.162 83.5445 178.982L88.5771 172.17C88.9653 171.644 89.1279 171.228 89.065 170.92C88.9972 170.58 88.5504 170.105 87.7246 169.495L88.39 168.594L93.7389 172.545L93.0735 173.446C92.5855 173.085 92.1824 172.846 91.8642 172.727C91.546 172.608 91.2845 172.589 91.0798 172.669C90.875 172.75 90.6548 172.95 90.4191 173.269L84.3468 181.49C84.0695 181.865 83.9481 182.167 83.9824 182.395C84.002 182.526 84.0991 182.728 84.2738 183.002C84.495 183.253 84.7932 183.516 85.1686 183.794C85.1368 183.915 85.0956 184.03 85.0451 184.138C84.9945 184.245 84.9534 184.36 84.9216 184.481C84.1408 184.282 83.3763 184.08 82.6281 183.875C81.8661 183.689 81.104 183.504 80.342 183.318L82.484 180.418C81.7147 180.517 80.9731 180.578 80.2592 180.602C79.5454 180.626 78.8825 180.601 78.2706 180.526C76.9302 180.377 75.8189 179.977 74.9368 179.325C73.8483 178.521 73.6367 177.668 74.3022 176.768Z" fill="#FAF5EE"/>
<path d="M71.6885 158.258C71.6784 158.108 71.6683 157.959 71.6582 157.81C71.6324 157.644 71.6144 157.486 71.6043 157.337C72.6018 157.182 73.5356 157.164 74.4057 157.284C75.2758 157.404 76.1087 157.622 76.9044 157.937C77.9925 158.364 78.9467 159.024 79.767 159.918C81.3287 161.62 82.0648 163.51 81.9755 165.587C81.8805 167.795 80.8529 169.799 78.8929 171.597C77.0017 173.333 74.9753 174.178 72.8138 174.135C70.6337 174.14 68.7785 173.309 67.2484 171.641C65.7182 169.974 64.9929 168.217 65.0723 166.37C65.1058 164.44 66.051 162.623 67.9078 160.919C69.4265 162.47 70.93 163.988 72.4185 165.473C73.8898 166.973 75.3927 168.507 76.9271 170.076C76.9959 170.013 77.0725 169.958 77.1571 169.913C77.2087 169.865 77.2688 169.81 77.3376 169.747C78.0597 169.084 78.6263 168.39 79.0373 167.665C79.4326 166.922 79.6888 166.149 79.806 165.345C80.1119 163.607 79.6103 162.025 78.301 160.598C77.6069 159.842 76.6835 159.232 75.5309 158.77C74.9603 158.596 74.3633 158.463 73.7397 158.371C73.0832 158.276 72.3995 158.239 71.6885 158.258ZM75.8998 170.924C74.6823 169.666 73.472 168.433 72.2688 167.225C71.0657 166.017 69.8554 164.784 68.6379 163.526C67.5189 164.585 66.9311 165.773 66.8743 167.092C66.7646 168.491 67.1988 169.724 68.1768 170.79C69.1233 171.821 70.3641 172.345 71.8992 172.362C73.3182 172.39 74.6518 171.91 75.8998 170.924Z" fill="#FAF5EE"/>
<path d="M71.6885 158.258C71.6784 158.108 71.6683 157.959 71.6582 157.81C71.6324 157.644 71.6144 157.486 71.6043 157.337C72.6018 157.182 73.5356 157.164 74.4057 157.284C75.2758 157.404 76.1087 157.622 76.9044 157.937C77.9925 158.364 78.9467 159.024 79.767 159.918C81.3287 161.62 82.0648 163.51 81.9755 165.587C81.8805 167.795 80.8529 169.799 78.8929 171.597C77.0017 173.333 74.9753 174.178 72.8138 174.135C70.6337 174.14 68.7785 173.309 67.2484 171.641C65.7182 169.974 64.9929 168.217 65.0723 166.37C65.1058 164.44 66.051 162.623 67.9078 160.919C69.4265 162.47 70.93 163.988 72.4185 165.473C73.8898 166.973 75.3927 168.507 76.9271 170.076C76.9959 170.013 77.0725 169.958 77.1571 169.913C77.2087 169.865 77.2688 169.81 77.3376 169.747C78.0597 169.084 78.6263 168.39 79.0373 167.665C79.4326 166.922 79.6888 166.149 79.806 165.345C80.1119 163.607 79.6103 162.025 78.301 160.598C77.6069 159.842 76.6835 159.232 75.5309 158.77C74.9603 158.596 74.3633 158.463 73.7397 158.371C73.0832 158.276 72.3995 158.239 71.6885 158.258ZM75.8998 170.924C74.6823 169.666 73.472 168.433 72.2688 167.225C71.0657 166.017 69.8554 164.784 68.6379 163.526C67.5189 164.585 66.9311 165.773 66.8743 167.092C66.7646 168.491 67.1988 169.724 68.1768 170.79C69.1233 171.821 70.3641 172.345 71.8992 172.362C73.3182 172.39 74.6518 171.91 75.8998 170.924Z" fill="#FAF5EE"/>
<path d="M52.9461 161.273C53.6469 160.954 54.589 160.602 55.7725 160.217C56.9251 159.82 58.1568 159.4 59.4677 158.957C60.7786 158.514 62.0895 158.071 63.4004 157.628C64.7017 157.163 65.8407 156.709 66.8175 156.264L67.1801 157.06C66.0334 157.583 64.8578 158.182 63.6533 158.859C62.4487 159.535 61.2857 160.219 60.1642 160.909C59.0118 161.588 57.9289 162.222 56.9155 162.811C55.9021 163.401 55.0238 163.865 54.2805 164.204C53.24 164.677 52.3905 164.923 51.732 164.941C51.0638 164.938 50.6186 164.692 50.3962 164.203C50.1641 163.694 50.3134 163.177 50.8441 162.653C51.3535 162.139 52.0542 161.679 52.9461 161.273ZM71.2499 152.823C71.6959 152.62 72.1506 152.605 72.6142 152.778C73.0681 152.931 73.3869 153.209 73.5707 153.612C73.7737 154.058 73.7837 154.502 73.6005 154.944C73.4174 155.387 73.1028 155.709 72.6569 155.913C72.2109 156.116 71.7716 156.136 71.339 155.974C70.8851 155.822 70.5566 155.523 70.3535 155.077C70.1601 154.652 70.155 154.219 70.3381 153.776C70.5001 153.344 70.804 153.026 71.2499 152.823Z" fill="#FAF5EE"/>
<path d="M52.9461 161.273C53.6469 160.954 54.589 160.602 55.7725 160.217C56.9251 159.82 58.1568 159.4 59.4677 158.957C60.7786 158.514 62.0895 158.071 63.4004 157.628C64.7017 157.163 65.8407 156.709 66.8175 156.264L67.1801 157.06C66.0334 157.583 64.8578 158.182 63.6533 158.859C62.4487 159.535 61.2857 160.219 60.1642 160.909C59.0118 161.588 57.9289 162.222 56.9155 162.811C55.9021 163.401 55.0238 163.865 54.2805 164.204C53.24 164.677 52.3905 164.923 51.732 164.941C51.0638 164.938 50.6186 164.692 50.3962 164.203C50.1641 163.694 50.3134 163.177 50.8441 162.653C51.3535 162.139 52.0542 161.679 52.9461 161.273ZM71.2499 152.823C71.6959 152.62 72.1506 152.605 72.6142 152.778C73.0681 152.931 73.3869 153.209 73.5707 153.612C73.7737 154.058 73.7837 154.502 73.6005 154.944C73.4174 155.387 73.1028 155.709 72.6569 155.913C72.2109 156.116 71.7716 156.136 71.339 155.974C70.8851 155.822 70.5566 155.523 70.3535 155.077C70.1601 154.652 70.155 154.219 70.3381 153.776C70.5001 153.344 70.804 153.026 71.2499 152.823Z" fill="#FAF5EE"/>
</svg>
