<?xml version="1.0" encoding="iso-8859-1"?>
<!-- Uploaded to: SVG Repo, www.svgrepo.com, Generator: SVG Repo Mixer Tools -->
<svg fill="#000000" height="800px" width="800px" version="1.1" id="Layer_1" xmlns="http://www.w3.org/2000/svg" xmlns:xlink="http://www.w3.org/1999/xlink" 
	 viewBox="0 0 512.001 512.001" xml:space="preserve">
<g>
	<g>
		<path d="M511.996,316.094c0.23-20.913-7.735-40.62-22.436-55.498c-11.507-11.647-26.024-19.202-41.818-21.941V132.798
			c0-7.435-6.027-13.462-13.462-13.462h-51.518V85.264h50.011c7.435,0,13.462-6.027,13.462-13.462
			c0-7.435-6.027-13.462-13.462-13.462h-155.97c-5.452,0-10.366,3.287-12.444,8.328l-44.421,107.673H60.336
			c-7.435,0-13.462,6.027-13.462,13.462c0,7.435,6.027,13.462,13.462,13.462h73.38v34.085h-73.38
			c-7.435,0-13.462,6.027-13.462,13.462v43.63H25.981c-7.435,0-13.462,6.027-13.462,13.462s6.027,13.462,13.462,13.462h20.893v19.52
			H25.981c-7.435,0-13.462,6.027-13.462,13.462s6.027,13.462,13.462,13.462h20.893v13.798H13.462C6.027,379.607,0,385.634,0,393.069
			s6.027,13.462,13.462,13.462h46.874h57.796c6.139,26.951,30.276,47.13,59.053,47.13c28.783,0,52.925-20.179,59.067-47.13h100.071
			c6.14,26.951,30.282,47.13,59.067,47.13c28.776,0,52.913-20.179,59.053-47.13h44.024c7.431,0,13.455-6.02,13.462-13.451
			l0.055-63.859c0-0.032,0.005-0.063,0.005-0.097c0-0.031-0.004-0.062-0.004-0.093L511.996,316.094z M160.64,201.264h68.305
			c5.452,0,10.366-3.287,12.444-8.328l44.421-107.673h70.026v34.072h-44.222c-5.452,0-10.366,3.289-12.444,8.329l-44.423,107.687
			H160.64V201.264z M177.185,426.737c-18.557,0-33.655-15.104-33.655-33.668s15.097-33.668,33.655-33.668
			c18.565,0,33.668,15.103,33.668,33.668S195.75,426.737,177.185,426.737z M395.388,426.737c-18.565,0-33.668-15.104-33.668-33.668
			s15.104-33.668,33.668-33.668c18.557,0,33.655,15.103,33.655,33.668S413.947,426.737,395.388,426.737z M464.192,342.586h20.855
			l-0.032,37.02H454.44c-6.139-26.949-30.276-47.13-59.053-47.13c-28.783,0-52.925,20.179-59.067,47.13h-40.159v-41.287
			c0-7.435-6.027-13.462-13.462-13.462c-7.435,0-13.462,6.027-13.462,13.462v41.287h-32.986c-6.14-26.949-30.282-47.13-59.067-47.13
			c-28.776,0-52.913,20.179-59.053,47.13H73.798V262.274h189.96c5.452,0,10.366-3.289,12.444-8.329l44.423-107.687h100.193v104.706
			c0,7.435,6.027,13.462,13.462,13.462c13.681,0,26.512,5.36,36.128,15.093c9.578,9.693,14.777,22.523,14.663,36.142h-20.878
			c-7.435,0-13.462,6.027-13.462,13.462S456.757,342.586,464.192,342.586z"/>
	</g>
</g>
<g>
	<g>
		<path d="M387.971,171.689h-46.699c-5.463,0-10.382,3.301-12.455,8.354l-26.991,65.815c-1.703,4.152-1.225,8.879,1.275,12.607
			c2.501,3.725,6.693,5.962,11.18,5.962h73.69c7.435,0,13.462-6.027,13.462-13.462v-65.815
			C401.432,177.716,395.406,171.689,387.971,171.689z M374.509,237.504h-40.157l15.948-38.891h24.208V237.504z"/>
	</g>
</g>
</svg>