<svg width="51" height="71" viewBox="0 0 51 71" fill="none" xmlns="http://www.w3.org/2000/svg">
<ellipse cx="22.1351" cy="50.2952" rx="21.0316" ry="20.2955" fill="#FFA665"/>
<path d="M15.2937 26.3495C15.5338 26.8378 15.608 27.3377 15.5164 27.8492C15.485 27.9371 15.4536 28.025 15.4222 28.1129C15.403 28.1951 15.3777 28.2802 15.3463 28.3681C15.0288 29.0877 14.403 29.6658 13.4689 30.1024C12.826 30.403 12.2182 30.5626 11.6455 30.5813C11.5732 30.5858 11.5037 30.5963 11.4372 30.6127C11.3887 30.6354 11.3341 30.6609 11.2735 30.6893L11.0915 30.7743C10.9873 30.8963 10.8834 31.0034 10.7796 31.0959C10.6818 31.2002 10.5778 31.3074 10.4678 31.4174C10.0755 31.0442 9.68291 30.6858 9.29016 30.3421C8.89155 29.9865 8.49607 29.6222 8.10374 29.249C8.1347 29.1906 8.15959 29.135 8.17841 29.0823C8.20937 29.0239 8.24932 28.9686 8.29826 28.9164C9.17121 29.3871 9.92621 29.6787 10.5633 29.791C11.5496 29.9158 12.4067 29.8081 13.1345 29.4678C13.7047 29.2013 14.0989 28.8047 14.3173 28.2779C14.4805 27.8208 14.4537 27.3719 14.2371 26.9313C14.0966 26.6455 13.8554 26.4433 13.5137 26.3248C13.4476 26.3117 13.3664 26.2984 13.2702 26.2848C13.174 26.2712 13.0628 26.2573 12.9364 26.2431C12.7319 26.2215 12.4788 26.2226 12.1772 26.2465C11.8698 26.2583 11.5048 26.2898 11.0824 26.3408C10.4185 26.4168 9.86052 26.4652 9.40835 26.4862C8.95032 26.4953 8.5862 26.4677 8.31598 26.4036C7.37149 26.3032 6.72065 25.8898 6.36347 25.1633C6.03557 24.4964 6.09648 23.8162 6.54618 23.1227C6.88503 22.5981 7.41838 22.1657 8.14623 21.8255C8.77703 21.5307 9.48458 21.3464 10.2689 21.2727C10.3542 21.2035 10.4368 21.1136 10.5167 21.0031C10.5908 20.8806 10.6711 20.7405 10.7577 20.5829C11.1383 20.9322 11.5219 21.2875 11.9084 21.6488C12.289 21.9981 12.6725 22.3534 13.059 22.7147C13.0101 22.7668 12.9641 22.8249 12.921 22.889C12.89 22.9474 12.8501 23.0027 12.8011 23.0549C12.2168 22.625 11.582 22.3505 10.8969 22.2314C9.90471 22.0947 9.09322 22.1738 8.46242 22.4686C8.00145 22.6841 7.67558 22.9316 7.48482 23.2112C7.1899 23.6127 7.17126 24.0754 7.4289 24.5994C7.59285 24.9329 7.90927 25.1365 8.37817 25.2102C8.43841 25.2113 8.49864 25.2125 8.55888 25.2136C8.61911 25.2148 8.68541 25.2131 8.75777 25.2085C8.97445 25.2244 9.23651 25.2264 9.54395 25.2145C9.8514 25.2026 10.1862 25.1706 10.5485 25.1184C11.3031 25.0147 11.9425 24.9648 12.4666 24.9688C12.997 24.9552 13.4184 24.9779 13.7309 25.0369C14.4214 25.1974 14.9424 25.635 15.2937 26.3495Z" fill="#0D2610"/>
<path d="M20.3854 25.9058C20.4617 25.9454 20.5301 25.9797 20.5906 26.0088C20.6644 26.0354 20.7382 26.0621 20.8119 26.0887C20.6776 26.6759 20.4396 27.1882 20.0979 27.6259C19.7156 28.1379 19.2525 28.4438 18.7086 28.5436C17.9923 28.6749 17.3999 28.5224 16.9315 28.086C16.7906 27.9244 16.6646 27.7332 16.5535 27.5125C16.4424 27.2918 16.3595 27.0392 16.3048 26.7546L15.0706 20.3316L13.5185 20.6162L13.3991 19.9953C14.1155 19.8639 14.5952 19.5014 14.8382 18.9078C15.1061 18.2292 15.1319 17.3272 14.9156 16.2017L15.5126 16.0922L16.139 19.3522L18.7458 18.8742L18.8912 19.631L16.2844 20.109L17.5448 26.6678C17.6765 27.3534 18.1138 27.6281 18.8567 27.4919C19.4537 27.3824 19.9633 26.8537 20.3854 25.9058Z" fill="#0D2610"/>
<path d="M22.3594 19.078C23.2044 18.7865 24.1529 18.689 25.205 18.7853C26.0548 18.8631 26.7217 19.1415 27.2057 19.6205C27.7238 20.1685 27.9396 20.8863 27.853 21.7741L27.3581 26.8459C27.3517 26.9112 27.3441 26.9895 27.3352 27.0809C27.3397 27.1735 27.3443 27.2662 27.3489 27.3588C27.367 27.4526 27.393 27.5341 27.4271 27.603C27.4747 27.6733 27.5322 27.7115 27.5997 27.7176C27.802 27.7362 28.106 27.6191 28.5117 27.3665L28.7259 27.6824C28.0648 28.32 27.505 28.6178 27.0464 28.5758C26.4529 28.5215 26.1311 28.1232 26.0811 27.381C25.1735 28.0355 24.0722 28.3035 22.7773 28.1849C22.3322 28.1442 21.932 28.0614 21.5767 27.9367C21.2349 27.8132 20.9522 27.6424 20.7285 27.4244C20.2689 26.974 20.0747 26.3832 20.1461 25.6521C20.1996 25.1038 20.4362 24.6316 20.8559 24.2353C21.2904 23.8273 21.8251 23.5074 22.4601 23.2758C23.5497 22.8487 24.9066 22.6107 26.5309 22.5618L26.6493 21.3477C26.699 20.8386 26.5773 20.4125 26.2841 20.0696C26.1131 19.8695 25.9033 19.7186 25.6546 19.6168C25.4195 19.5162 25.1603 19.453 24.877 19.427C24.3375 19.3776 23.8687 19.4401 23.4706 19.6144C23.2273 19.737 23.0312 19.8639 22.8823 19.9952C22.7347 20.1134 22.6526 20.2573 22.636 20.427L22.6265 20.525C22.5641 21.1647 22.2428 21.458 21.6628 21.4048C21.1368 21.3567 20.9024 21.0389 20.9597 20.4514C21.0196 19.8378 21.4861 19.38 22.3594 19.078ZM26.4583 23.306C25.2598 23.3148 24.1286 23.5405 23.0648 23.9831C22.0991 24.3952 21.5788 24.9864 21.5036 25.7567C21.4628 26.1744 21.6051 26.5299 21.9303 26.8231C22.2568 27.1033 22.6831 27.2675 23.2091 27.3156C23.6947 27.3601 24.2095 27.315 24.7533 27.1804C25.199 27.0763 25.6616 26.8684 26.1411 26.5567L26.4583 23.306Z" fill="#0D2610"/>
<path d="M37.294 23.1598C37.0265 23.788 36.6041 23.9857 36.0266 23.7529C35.7881 23.6567 35.5682 23.4478 35.3669 23.126C35.2255 22.8708 35.0293 22.6926 34.7782 22.5914C34.4518 22.4598 33.9667 22.4765 33.3229 22.6416C32.8103 22.7746 32.2922 22.955 31.7688 23.1827L29.9019 27.5679C29.7579 27.9062 29.7255 28.155 29.8048 28.3143C29.8914 28.4908 30.2109 28.6904 30.7633 28.9131L30.5164 29.4929L26.9387 28.0505L27.1856 27.4707C27.512 27.6022 27.7733 27.6793 27.9696 27.7018C28.166 27.7244 28.3161 27.7 28.42 27.6286C28.5239 27.5573 28.6196 27.4189 28.707 27.2136L30.9596 21.9223C31.0624 21.6807 31.0879 21.4999 31.0361 21.3799C31.0064 21.3114 30.9229 21.214 30.7854 21.0878C30.6251 20.9807 30.4194 20.8765 30.1683 20.7753C30.1689 20.7048 30.1758 20.6368 30.189 20.5713C30.2021 20.5059 30.209 20.4379 30.2096 20.3673C30.6782 20.3722 31.1379 20.3807 31.5888 20.3926C32.0448 20.3924 32.5008 20.3923 32.9568 20.3921L32.1622 22.2586C32.5818 22.1022 32.991 21.97 33.39 21.8619C33.789 21.7538 34.1663 21.6795 34.5219 21.6388C35.2987 21.5416 35.9821 21.6118 36.5721 21.8497C37.3002 22.1433 37.5408 22.58 37.294 23.1598Z" fill="#0D2610"/>
<path d="M38.65 32.2619C38.6715 32.3436 38.6916 32.4161 38.7103 32.4795C38.7399 32.5508 38.7695 32.6222 38.7991 32.6935C38.2625 32.9849 37.7127 33.1513 37.1496 33.1928C36.5027 33.2541 35.9577 33.1199 35.5147 32.7903C34.9312 32.3561 34.6471 31.824 34.6623 31.194C34.6899 30.9843 34.75 30.7659 34.8426 30.5388C34.9352 30.3117 35.0711 30.0839 35.2503 29.8555L39.2948 24.7L38.0306 23.7594L38.4216 23.261C39.0051 23.6951 39.6043 23.8038 40.2192 23.5872C40.9154 23.3323 41.6178 22.7532 42.3265 21.8498L42.8127 22.2116L40.7599 24.8282L42.883 26.4081L42.4065 27.0155L40.2834 25.4357L36.1534 30.7001C35.7217 31.2505 35.8083 31.7507 36.4134 32.201C36.8996 32.5628 37.6451 32.5831 38.65 32.2619Z" fill="#0D2610"/>
</svg>
